<?xml version="1.0" encoding="utf-8" standalone="no"?>
<!DOCTYPE svg PUBLIC "-//W3C//DTD SVG 1.1//EN"
  "http://www.w3.org/Graphics/SVG/1.1/DTD/svg11.dtd">
<svg xmlns:xlink="http://www.w3.org/1999/xlink" width="417.6pt" height="273.6pt" viewBox="0 0 417.6 273.6" xmlns="http://www.w3.org/2000/svg" version="1.1">
 <metadata>
  <rdf:RDF xmlns:dc="http://purl.org/dc/elements/1.1/" xmlns:cc="http://creativecommons.org/ns#" xmlns:rdf="http://www.w3.org/1999/02/22-rdf-syntax-ns#">
   <cc:Work>
    <dc:type rdf:resource="http://purl.org/dc/dcmitype/StillImage"/>
    <dc:date>2026-06-25T01:15:21.792286</dc:date>
    <dc:format>image/svg+xml</dc:format>
    <dc:creator>
     <cc:Agent>
      <dc:title>Matplotlib v3.11.0, https://matplotlib.org/</dc:title>
     </cc:Agent>
    </dc:creator>
   </cc:Work>
  </rdf:RDF>
 </metadata>
 <defs>
  <style type="text/css">*{stroke-linejoin: round; stroke-linecap: butt}</style>
 </defs>
 <g id="figure_1">
  <g id="patch_1">
   <path d="M 0 273.6 
L 417.6 273.6 
L 417.6 0 
L 0 0 
z
" style="fill: #ffffff"/>
  </g>
  <g id="axes_1">
   <g id="patch_2">
    <path d="M 32.628053 244.584135 
L 414.59976 244.584135 
L 414.59976 15.989303 
L 32.628053 15.989303 
z
" style="fill: #ffffff"/>
   </g>
   <g id="FillBetweenPolyCollection_1">
    <defs>
     <path id="m27ed8aac0b" d="M 80.624706 -83.52694 
L 56.279365 -83.52694 
L 55.918063 -83.899939 
L 55.562465 -84.272938 
L 55.213407 -84.645936 
L 54.871697 -85.018935 
L 54.538109 -85.391933 
L 54.21338 -85.764932 
L 53.898203 -86.13793 
L 53.593226 -86.510929 
L 53.299045 -86.883927 
L 53.016201 -87.256926 
L 52.745179 -87.629925 
L 52.486404 -88.002923 
L 52.240239 -88.375922 
L 52.006983 -88.74892 
L 51.786871 -89.121919 
L 51.580075 -89.494917 
L 51.386701 -89.867916 
L 51.206793 -90.240915 
L 51.040332 -90.613913 
L 50.887239 -90.986912 
L 50.74738 -91.35991 
L 50.620563 -91.732909 
L 50.506548 -92.105907 
L 50.405047 -92.478906 
L 50.315732 -92.851904 
L 50.238234 -93.224903 
L 50.172156 -93.597902 
L 50.117069 -93.9709 
L 50.072527 -94.343899 
L 50.038065 -94.716897 
L 50.01321 -95.089896 
L 49.997482 -95.462894 
L 49.990403 -95.835893 
L 49.9915 -96.208892 
L 50.000311 -96.58189 
L 50.016391 -96.954889 
L 50.039312 -97.327887 
L 50.068672 -97.700886 
L 50.104095 -98.073884 
L 50.145235 -98.446883 
L 50.191777 -98.819881 
L 50.243443 -99.19288 
L 50.299987 -99.565879 
L 50.361199 -99.938877 
L 50.426906 -100.311876 
L 50.496969 -100.684874 
L 50.571282 -101.057873 
L 50.649773 -101.430871 
L 50.7324 -101.80387 
L 50.819146 -102.176869 
L 50.910023 -102.549867 
L 51.005061 -102.922866 
L 51.10431 -103.295864 
L 51.207836 -103.668863 
L 51.315713 -104.041861 
L 51.428025 -104.41486 
L 51.54486 -104.787858 
L 51.666304 -105.160857 
L 51.792444 -105.533856 
L 51.923356 -105.906854 
L 52.059112 -106.279853 
L 52.19977 -106.652851 
L 52.345375 -107.02585 
L 52.495957 -107.398848 
L 52.651528 -107.771847 
L 52.812084 -108.144845 
L 52.977601 -108.517844 
L 53.148038 -108.890843 
L 53.323334 -109.263841 
L 53.503412 -109.63684 
L 53.688175 -110.009838 
L 53.877512 -110.382837 
L 54.071297 -110.755835 
L 54.269392 -111.128834 
L 54.471644 -111.501833 
L 54.677893 -111.874831 
L 54.887971 -112.24783 
L 55.101703 -112.620828 
L 55.318909 -112.993827 
L 55.539408 -113.366825 
L 55.763016 -113.739824 
L 55.989551 -114.112822 
L 56.218828 -114.485821 
L 56.45067 -114.85882 
L 56.684898 -115.231818 
L 56.921338 -115.604817 
L 57.159819 -115.977815 
L 57.400174 -116.350814 
L 57.642237 -116.723812 
L 57.885847 -117.096811 
L 58.130843 -117.46981 
L 58.377064 -117.842808 
L 58.624351 -118.215807 
L 58.872543 -118.588805 
L 59.121474 -118.961804 
L 59.370977 -119.334802 
L 59.62088 -119.707801 
L 59.871004 -120.080799 
L 60.121163 -120.453798 
L 76.782908 -120.453798 
L 76.782908 -120.453798 
L 77.033067 -120.080799 
L 77.283191 -119.707801 
L 77.533094 -119.334802 
L 77.782597 -118.961804 
L 78.031529 -118.588805 
L 78.27972 -118.215807 
L 78.527007 -117.842808 
L 78.773228 -117.46981 
L 79.018224 -117.096811 
L 79.261834 -116.723812 
L 79.503898 -116.350814 
L 79.744252 -115.977815 
L 79.982734 -115.604817 
L 80.219173 -115.231818 
L 80.453401 -114.85882 
L 80.685243 -114.485821 
L 80.914521 -114.112822 
L 81.141055 -113.739824 
L 81.364663 -113.366825 
L 81.585162 -112.993827 
L 81.802368 -112.620828 
L 82.0161 -112.24783 
L 82.226178 -111.874831 
L 82.432428 -111.501833 
L 82.63468 -111.128834 
L 82.832774 -110.755835 
L 83.026559 -110.382837 
L 83.215897 -110.009838 
L 83.40066 -109.63684 
L 83.580737 -109.263841 
L 83.756033 -108.890843 
L 83.92647 -108.517844 
L 84.091987 -108.144845 
L 84.252543 -107.771847 
L 84.408114 -107.398848 
L 84.558696 -107.02585 
L 84.704301 -106.652851 
L 84.844959 -106.279853 
L 84.980715 -105.906854 
L 85.111628 -105.533856 
L 85.237767 -105.160857 
L 85.359211 -104.787858 
L 85.476046 -104.41486 
L 85.588358 -104.041861 
L 85.696235 -103.668863 
L 85.799761 -103.295864 
L 85.89901 -102.922866 
L 85.994048 -102.549867 
L 86.084925 -102.176869 
L 86.171671 -101.80387 
L 86.254298 -101.430871 
L 86.332789 -101.057873 
L 86.407102 -100.684874 
L 86.477165 -100.311876 
L 86.542872 -99.938877 
L 86.604084 -99.565879 
L 86.660628 -99.19288 
L 86.712294 -98.819881 
L 86.758837 -98.446883 
L 86.799976 -98.073884 
L 86.835399 -97.700886 
L 86.864759 -97.327887 
L 86.88768 -96.954889 
L 86.90376 -96.58189 
L 86.912571 -96.208892 
L 86.913668 -95.835893 
L 86.906589 -95.462894 
L 86.890861 -95.089896 
L 86.866006 -94.716897 
L 86.831544 -94.343899 
L 86.787002 -93.9709 
L 86.731916 -93.597902 
L 86.665837 -93.224903 
L 86.588339 -92.851904 
L 86.499024 -92.478906 
L 86.397524 -92.105907 
L 86.283509 -91.732909 
L 86.156692 -91.35991 
L 86.016832 -90.986912 
L 85.863739 -90.613913 
L 85.697278 -90.240915 
L 85.51737 -89.867916 
L 85.323996 -89.494917 
L 85.1172 -89.121919 
L 84.897089 -88.74892 
L 84.663832 -88.375922 
L 84.417667 -88.002923 
L 84.158892 -87.629925 
L 83.88787 -87.256926 
L 83.605026 -86.883927 
L 83.310845 -86.510929 
L 83.005868 -86.13793 
L 82.690692 -85.764932 
L 82.365962 -85.391933 
L 82.032374 -85.018935 
L 81.690664 -84.645936 
L 81.341606 -84.272938 
L 80.986008 -83.899939 
L 80.624706 -83.52694 
z
" style="stroke: #0f766e; stroke-opacity: 0.34"/>
    </defs>
    <g clip-path="url(#pa7b84c52b5)">
     <use xlink:href="#m27ed8aac0b" x="0" y="273.6" style="fill: #0f766e; fill-opacity: 0.34; stroke: #0f766e; stroke-opacity: 0.34"/>
    </g>
   </g>
   <g id="FillBetweenPolyCollection_2">
    <defs>
     <path id="mc54bee25e6" d="M 209.051431 -141.554859 
L 190.838861 -141.554859 
L 190.516283 -141.963382 
L 190.191982 -142.371904 
L 189.866365 -142.780426 
L 189.539857 -143.188948 
L 189.212894 -143.597471 
L 188.885926 -144.005993 
L 188.559418 -144.414515 
L 188.233851 -144.823037 
L 187.909721 -145.23156 
L 187.587537 -145.640082 
L 187.267826 -146.048604 
L 186.951125 -146.457126 
L 186.637985 -146.865648 
L 186.328971 -147.274171 
L 186.024655 -147.682693 
L 185.725618 -148.091215 
L 185.432447 -148.499737 
L 185.145731 -148.90826 
L 184.866062 -149.316782 
L 184.594025 -149.725304 
L 184.330205 -150.133826 
L 184.075172 -150.542349 
L 183.829488 -150.950871 
L 183.593697 -151.359393 
L 183.368322 -151.767915 
L 183.153866 -152.176438 
L 182.950804 -152.58496 
L 182.75958 -152.993482 
L 182.580607 -153.402004 
L 182.414263 -153.810526 
L 182.260887 -154.219049 
L 182.120777 -154.627571 
L 181.99419 -155.036093 
L 181.881338 -155.444615 
L 181.782391 -155.853138 
L 181.697469 -156.26166 
L 181.626649 -156.670182 
L 181.569961 -157.078704 
L 181.527388 -157.487227 
L 181.498867 -157.895749 
L 181.484292 -158.304271 
L 181.483514 -158.712793 
L 181.496339 -159.121316 
L 181.522537 -159.529838 
L 181.561836 -159.93836 
L 181.613931 -160.346882 
L 181.678482 -160.755404 
L 181.755118 -161.163927 
L 181.843439 -161.572449 
L 181.943021 -161.980971 
L 182.053416 -162.389493 
L 182.174156 -162.798016 
L 182.304756 -163.206538 
L 182.444718 -163.61506 
L 182.593531 -164.023582 
L 182.750678 -164.432105 
L 182.915635 -164.840627 
L 183.087878 -165.249149 
L 183.266882 -165.657671 
L 183.452127 -166.066193 
L 183.6431 -166.474716 
L 183.839295 -166.883238 
L 184.040221 -167.29176 
L 184.245399 -167.700282 
L 184.45437 -168.108805 
L 184.666691 -168.517327 
L 184.881944 -168.925849 
L 185.099732 -169.334371 
L 185.319684 -169.742894 
L 185.541457 -170.151416 
L 185.764735 -170.559938 
L 185.989232 -170.96846 
L 186.214692 -171.376983 
L 186.440889 -171.785505 
L 186.667629 -172.194027 
L 186.894747 -172.602549 
L 187.122109 -173.011071 
L 187.349611 -173.419594 
L 187.577175 -173.828116 
L 187.80475 -174.236638 
L 188.032312 -174.64516 
L 188.259856 -175.053683 
L 188.487401 -175.462205 
L 188.714979 -175.870727 
L 188.94264 -176.279249 
L 189.170443 -176.687772 
L 189.398456 -177.096294 
L 189.626752 -177.504816 
L 189.855405 -177.913338 
L 190.084485 -178.32186 
L 190.314059 -178.730383 
L 190.544183 -179.138905 
L 190.774902 -179.547427 
L 191.006245 -179.955949 
L 191.238224 -180.364472 
L 191.470829 -180.772994 
L 191.70403 -181.181516 
L 191.937771 -181.590038 
L 192.171972 -181.998561 
L 207.71832 -181.998561 
L 207.71832 -181.998561 
L 207.952522 -181.590038 
L 208.186263 -181.181516 
L 208.419464 -180.772994 
L 208.652069 -180.364472 
L 208.884047 -179.955949 
L 209.11539 -179.547427 
L 209.346109 -179.138905 
L 209.576233 -178.730383 
L 209.805807 -178.32186 
L 210.034888 -177.913338 
L 210.26354 -177.504816 
L 210.491837 -177.096294 
L 210.71985 -176.687772 
L 210.947653 -176.279249 
L 211.175314 -175.870727 
L 211.402892 -175.462205 
L 211.630436 -175.053683 
L 211.857981 -174.64516 
L 212.085543 -174.236638 
L 212.313118 -173.828116 
L 212.540682 -173.419594 
L 212.768183 -173.011071 
L 212.995545 -172.602549 
L 213.222664 -172.194027 
L 213.449403 -171.785505 
L 213.675601 -171.376983 
L 213.901061 -170.96846 
L 214.125558 -170.559938 
L 214.348836 -170.151416 
L 214.570609 -169.742894 
L 214.790561 -169.334371 
L 215.008349 -168.925849 
L 215.223601 -168.517327 
L 215.435923 -168.108805 
L 215.644893 -167.700282 
L 215.850072 -167.29176 
L 216.050998 -166.883238 
L 216.247193 -166.474716 
L 216.438165 -166.066193 
L 216.623411 -165.657671 
L 216.802415 -165.249149 
L 216.974658 -164.840627 
L 217.139615 -164.432105 
L 217.296762 -164.023582 
L 217.445575 -163.61506 
L 217.585536 -163.206538 
L 217.716136 -162.798016 
L 217.836876 -162.389493 
L 217.947271 -161.980971 
L 218.046854 -161.572449 
L 218.135175 -161.163927 
L 218.211811 -160.755404 
L 218.276362 -160.346882 
L 218.328457 -159.93836 
L 218.367756 -159.529838 
L 218.393954 -159.121316 
L 218.406779 -158.712793 
L 218.406 -158.304271 
L 218.391426 -157.895749 
L 218.362905 -157.487227 
L 218.320332 -157.078704 
L 218.263643 -156.670182 
L 218.192824 -156.26166 
L 218.107902 -155.853138 
L 218.008954 -155.444615 
L 217.896103 -155.036093 
L 217.769516 -154.627571 
L 217.629406 -154.219049 
L 217.476029 -153.810526 
L 217.309685 -153.402004 
L 217.130713 -152.993482 
L 216.939489 -152.58496 
L 216.736426 -152.176438 
L 216.521971 -151.767915 
L 216.296596 -151.359393 
L 216.060805 -150.950871 
L 215.815121 -150.542349 
L 215.560088 -150.133826 
L 215.296267 -149.725304 
L 215.024231 -149.316782 
L 214.744561 -148.90826 
L 214.457845 -148.499737 
L 214.164674 -148.091215 
L 213.865637 -147.682693 
L 213.561321 -147.274171 
L 213.252307 -146.865648 
L 212.939168 -146.457126 
L 212.622467 -146.048604 
L 212.302755 -145.640082 
L 211.980572 -145.23156 
L 211.656442 -144.823037 
L 211.330875 -144.414515 
L 211.004367 -144.005993 
L 210.677399 -143.597471 
L 210.350435 -143.188948 
L 210.023927 -142.780426 
L 209.698311 -142.371904 
L 209.374009 -141.963382 
L 209.051431 -141.554859 
z
" style="stroke: #0f766e; stroke-opacity: 0.34"/>
    </defs>
    <g clip-path="url(#pa7b84c52b5)">
     <use xlink:href="#mc54bee25e6" x="0" y="273.6" style="fill: #0f766e; fill-opacity: 0.34; stroke: #0f766e; stroke-opacity: 0.34"/>
    </g>
   </g>
   <g id="FillBetweenPolyCollection_3">
    <defs>
     <path id="ma3d96ea7f4" d="M 341.591184 -192.549091 
L 321.28533 -192.549091 
L 320.991244 -192.975375 
L 320.700214 -193.401659 
L 320.412677 -193.827944 
L 320.129045 -194.254228 
L 319.849704 -194.680512 
L 319.575018 -195.106796 
L 319.305322 -195.53308 
L 319.040923 -195.959364 
L 318.782101 -196.385648 
L 318.529106 -196.811932 
L 318.282161 -197.238216 
L 318.041457 -197.6645 
L 317.807159 -198.090784 
L 317.579401 -198.517068 
L 317.358289 -198.943352 
L 317.1439 -199.369636 
L 316.936286 -199.795921 
L 316.735471 -200.222205 
L 316.541451 -200.648489 
L 316.354201 -201.074773 
L 316.173668 -201.501057 
L 315.999778 -201.927341 
L 315.832437 -202.353625 
L 315.671528 -202.779909 
L 315.516917 -203.206193 
L 315.368453 -203.632477 
L 315.225969 -204.058761 
L 315.089287 -204.485045 
L 314.958215 -204.911329 
L 314.832556 -205.337613 
L 314.712103 -205.763897 
L 314.596647 -206.190182 
L 314.485979 -206.616466 
L 314.379891 -207.04275 
L 314.27818 -207.469034 
L 314.18065 -207.895318 
L 314.087117 -208.321602 
L 313.997411 -208.747886 
L 313.91138 -209.17417 
L 313.82889 -209.600454 
L 313.749831 -210.026738 
L 313.674121 -210.453022 
L 313.601704 -210.879306 
L 313.532554 -211.30559 
L 313.466681 -211.731874 
L 313.404126 -212.158159 
L 313.344968 -212.584443 
L 313.289322 -213.010727 
L 313.237339 -213.437011 
L 313.189207 -213.863295 
L 313.145152 -214.289579 
L 313.105433 -214.715863 
L 313.070343 -215.142147 
L 313.040207 -215.568431 
L 313.015378 -215.994715 
L 312.996235 -216.420999 
L 312.983177 -216.847283 
L 312.976624 -217.273567 
L 312.977008 -217.699851 
L 312.984769 -218.126136 
L 313.000353 -218.55242 
L 313.024204 -218.978704 
L 313.05676 -219.404988 
L 313.098448 -219.831272 
L 313.149679 -220.257556 
L 313.210843 -220.68384 
L 313.282303 -221.110124 
L 313.364393 -221.536408 
L 313.45741 -221.962692 
L 313.561616 -222.388976 
L 313.677227 -222.81526 
L 313.804417 -223.241544 
L 313.943313 -223.667828 
L 314.09399 -224.094113 
L 314.256477 -224.520397 
L 314.430747 -224.946681 
L 314.616725 -225.372965 
L 314.814281 -225.799249 
L 315.023239 -226.225533 
L 315.243369 -226.651817 
L 315.474395 -227.078101 
L 315.715996 -227.504385 
L 315.967805 -227.930669 
L 316.229415 -228.356953 
L 316.500384 -228.783237 
L 316.78023 -229.209521 
L 317.068442 -229.635805 
L 317.364481 -230.062089 
L 317.667783 -230.488374 
L 317.97776 -230.914658 
L 318.293811 -231.340942 
L 318.615315 -231.767226 
L 318.941642 -232.19351 
L 319.272155 -232.619794 
L 319.60621 -233.046078 
L 319.943161 -233.472362 
L 320.282363 -233.898646 
L 320.623174 -234.32493 
L 320.964957 -234.751214 
L 341.911557 -234.751214 
L 341.911557 -234.751214 
L 342.25334 -234.32493 
L 342.594151 -233.898646 
L 342.933353 -233.472362 
L 343.270304 -233.046078 
L 343.604359 -232.619794 
L 343.934872 -232.19351 
L 344.261199 -231.767226 
L 344.582703 -231.340942 
L 344.898754 -230.914658 
L 345.208732 -230.488374 
L 345.512033 -230.062089 
L 345.808072 -229.635805 
L 346.096284 -229.209521 
L 346.37613 -228.783237 
L 346.647099 -228.356953 
L 346.90871 -227.930669 
L 347.160519 -227.504385 
L 347.402119 -227.078101 
L 347.633145 -226.651817 
L 347.853275 -226.225533 
L 348.062233 -225.799249 
L 348.25979 -225.372965 
L 348.445767 -224.946681 
L 348.620037 -224.520397 
L 348.782524 -224.094113 
L 348.933201 -223.667828 
L 349.072097 -223.241544 
L 349.199287 -222.81526 
L 349.314898 -222.388976 
L 349.419104 -221.962692 
L 349.512121 -221.536408 
L 349.594211 -221.110124 
L 349.665671 -220.68384 
L 349.726835 -220.257556 
L 349.778066 -219.831272 
L 349.819754 -219.404988 
L 349.85231 -218.978704 
L 349.876161 -218.55242 
L 349.891745 -218.126136 
L 349.899506 -217.699851 
L 349.89989 -217.273567 
L 349.893337 -216.847283 
L 349.880279 -216.420999 
L 349.861136 -215.994715 
L 349.836307 -215.568431 
L 349.806171 -215.142147 
L 349.771081 -214.715863 
L 349.731362 -214.289579 
L 349.687307 -213.863295 
L 349.639176 -213.437011 
L 349.587192 -213.010727 
L 349.531546 -212.584443 
L 349.472388 -212.158159 
L 349.409833 -211.731874 
L 349.34396 -211.30559 
L 349.27481 -210.879306 
L 349.202393 -210.453022 
L 349.126683 -210.026738 
L 349.047624 -209.600454 
L 348.965134 -209.17417 
L 348.879103 -208.747886 
L 348.789397 -208.321602 
L 348.695864 -207.895318 
L 348.598334 -207.469034 
L 348.496623 -207.04275 
L 348.390535 -206.616466 
L 348.279867 -206.190182 
L 348.164411 -205.763897 
L 348.043958 -205.337613 
L 347.918299 -204.911329 
L 347.787227 -204.485045 
L 347.650545 -204.058761 
L 347.508061 -203.632477 
L 347.359597 -203.206193 
L 347.204986 -202.779909 
L 347.044077 -202.353625 
L 346.876736 -201.927341 
L 346.702846 -201.501057 
L 346.522313 -201.074773 
L 346.335063 -200.648489 
L 346.141043 -200.222205 
L 345.940228 -199.795921 
L 345.732614 -199.369636 
L 345.518226 -198.943352 
L 345.297113 -198.517068 
L 345.069355 -198.090784 
L 344.835057 -197.6645 
L 344.594353 -197.238216 
L 344.347408 -196.811932 
L 344.094413 -196.385648 
L 343.835591 -195.959364 
L 343.571192 -195.53308 
L 343.301496 -195.106796 
L 343.02681 -194.680512 
L 342.747469 -194.254228 
L 342.463837 -193.827944 
L 342.1763 -193.401659 
L 341.88527 -192.975375 
L 341.591184 -192.549091 
z
" style="stroke: #0f766e; stroke-opacity: 0.34"/>
    </defs>
    <g clip-path="url(#pa7b84c52b5)">
     <use xlink:href="#ma3d96ea7f4" x="0" y="273.6" style="fill: #0f766e; fill-opacity: 0.34; stroke: #0f766e; stroke-opacity: 0.34"/>
    </g>
   </g>
   <g id="FillBetweenPolyCollection_4">
    <defs>
     <path id="m60a39d62a9" d="M 126.487721 -53.63377 
L 105.09139 -53.63377 
L 104.782792 -53.917959 
L 104.47702 -54.202149 
L 104.174582 -54.486338 
L 103.875975 -54.770528 
L 103.581678 -55.054717 
L 103.292156 -55.338906 
L 103.00785 -55.623096 
L 102.729185 -55.907285 
L 102.45656 -56.191474 
L 102.19035 -56.475664 
L 101.930905 -56.759853 
L 101.678547 -57.044043 
L 101.433571 -57.328232 
L 101.196239 -57.612421 
L 100.966787 -57.896611 
L 100.745414 -58.1808 
L 100.53229 -58.464989 
L 100.327552 -58.749179 
L 100.131302 -59.033368 
L 99.943608 -59.317558 
L 99.764505 -59.601747 
L 99.593993 -59.885936 
L 99.43204 -60.170126 
L 99.278578 -60.454315 
L 99.133509 -60.738505 
L 98.996702 -61.022694 
L 98.867995 -61.306883 
L 98.747197 -61.591073 
L 98.634089 -61.875262 
L 98.528427 -62.159451 
L 98.429943 -62.443641 
L 98.338346 -62.72783 
L 98.253328 -63.01202 
L 98.174562 -63.296209 
L 98.10171 -63.580398 
L 98.034423 -63.864588 
L 97.972344 -64.148777 
L 97.915113 -64.432966 
L 97.862371 -64.717156 
L 97.813759 -65.001345 
L 97.768929 -65.285535 
L 97.727542 -65.569724 
L 97.689271 -65.853913 
L 97.653811 -66.138103 
L 97.620876 -66.422292 
L 97.590204 -66.706482 
L 97.561562 -66.990671 
L 97.534748 -67.27486 
L 97.509592 -67.55905 
L 97.48596 -67.843239 
L 97.463758 -68.127428 
L 97.44293 -68.411618 
L 97.42346 -68.695807 
L 97.405376 -68.979997 
L 97.388749 -69.264186 
L 97.373691 -69.548375 
L 97.360359 -69.832565 
L 97.348951 -70.116754 
L 97.339705 -70.400943 
L 97.332902 -70.685133 
L 97.328857 -70.969322 
L 97.327923 -71.253512 
L 97.330483 -71.537701 
L 97.336953 -71.82189 
L 97.347774 -72.10608 
L 97.363408 -72.390269 
L 97.384338 -72.674458 
L 97.41106 -72.958648 
L 97.44408 -73.242837 
L 97.483912 -73.527027 
L 97.531068 -73.811216 
L 97.586057 -74.095405 
L 97.649379 -74.379595 
L 97.721521 -74.663784 
L 97.802951 -74.947974 
L 97.894115 -75.232163 
L 97.995431 -75.516352 
L 98.107284 -75.800542 
L 98.230024 -76.084731 
L 98.363962 -76.36892 
L 98.509362 -76.65311 
L 98.666444 -76.937299 
L 98.835378 -77.221489 
L 99.016281 -77.505678 
L 99.209213 -77.789867 
L 99.414182 -78.074057 
L 99.631135 -78.358246 
L 99.859961 -78.642435 
L 100.10049 -78.926625 
L 100.352493 -79.210814 
L 100.615684 -79.495004 
L 100.889717 -79.779193 
L 101.174191 -80.063382 
L 101.468653 -80.347572 
L 101.772594 -80.631761 
L 102.085459 -80.915951 
L 102.406646 -81.20014 
L 102.735512 -81.484329 
L 103.071374 -81.768519 
L 128.507737 -81.768519 
L 128.507737 -81.768519 
L 128.843599 -81.484329 
L 129.172465 -81.20014 
L 129.493652 -80.915951 
L 129.806517 -80.631761 
L 130.110458 -80.347572 
L 130.404919 -80.063382 
L 130.689394 -79.779193 
L 130.963427 -79.495004 
L 131.226618 -79.210814 
L 131.478621 -78.926625 
L 131.71915 -78.642435 
L 131.947976 -78.358246 
L 132.164929 -78.074057 
L 132.369898 -77.789867 
L 132.56283 -77.505678 
L 132.743733 -77.221489 
L 132.912667 -76.937299 
L 133.069749 -76.65311 
L 133.215149 -76.36892 
L 133.349086 -76.084731 
L 133.471827 -75.800542 
L 133.58368 -75.516352 
L 133.684995 -75.232163 
L 133.77616 -74.947974 
L 133.85759 -74.663784 
L 133.929732 -74.379595 
L 133.993054 -74.095405 
L 134.048043 -73.811216 
L 134.095199 -73.527027 
L 134.135031 -73.242837 
L 134.168051 -72.958648 
L 134.194773 -72.674458 
L 134.215703 -72.390269 
L 134.231337 -72.10608 
L 134.242157 -71.82189 
L 134.248628 -71.537701 
L 134.251188 -71.253512 
L 134.250254 -70.969322 
L 134.246209 -70.685133 
L 134.239405 -70.400943 
L 134.23016 -70.116754 
L 134.218752 -69.832565 
L 134.20542 -69.548375 
L 134.190362 -69.264186 
L 134.173735 -68.979997 
L 134.155651 -68.695807 
L 134.136181 -68.411618 
L 134.115353 -68.127428 
L 134.093151 -67.843239 
L 134.069519 -67.55905 
L 134.044363 -67.27486 
L 134.017549 -66.990671 
L 133.988907 -66.706482 
L 133.958235 -66.422292 
L 133.9253 -66.138103 
L 133.88984 -65.853913 
L 133.851569 -65.569724 
L 133.810182 -65.285535 
L 133.765352 -65.001345 
L 133.71674 -64.717156 
L 133.663997 -64.432966 
L 133.606767 -64.148777 
L 133.544688 -63.864588 
L 133.477401 -63.580398 
L 133.404549 -63.296209 
L 133.325783 -63.01202 
L 133.240764 -62.72783 
L 133.149168 -62.443641 
L 133.050683 -62.159451 
L 132.945022 -61.875262 
L 132.831914 -61.591073 
L 132.711116 -61.306883 
L 132.582409 -61.022694 
L 132.445602 -60.738505 
L 132.300533 -60.454315 
L 132.147071 -60.170126 
L 131.985118 -59.885936 
L 131.814606 -59.601747 
L 131.635503 -59.317558 
L 131.447809 -59.033368 
L 131.251559 -58.749179 
L 131.046821 -58.464989 
L 130.833697 -58.1808 
L 130.612324 -57.896611 
L 130.382872 -57.612421 
L 130.14554 -57.328232 
L 129.900564 -57.044043 
L 129.648206 -56.759853 
L 129.388761 -56.475664 
L 129.122551 -56.191474 
L 128.849926 -55.907285 
L 128.571261 -55.623096 
L 128.286955 -55.338906 
L 127.997433 -55.054717 
L 127.703136 -54.770528 
L 127.404529 -54.486338 
L 127.102091 -54.202149 
L 126.796318 -53.917959 
L 126.487721 -53.63377 
z
" style="stroke: #0f766e; stroke-opacity: 0.34"/>
    </defs>
    <g clip-path="url(#pa7b84c52b5)">
     <use xlink:href="#m60a39d62a9" x="0" y="273.6" style="fill: #0f766e; fill-opacity: 0.34; stroke: #0f766e; stroke-opacity: 0.34"/>
    </g>
   </g>
   <g id="FillBetweenPolyCollection_5">
    <defs>
     <path id="mb15cfa4f1e" d="M 259.191676 -104.628002 
L 235.373657 -104.628002 
L 235.03346 -104.947715 
L 234.697984 -105.267428 
L 234.367931 -105.587141 
L 234.043984 -105.906854 
L 233.726804 -106.226567 
L 233.417023 -106.54628 
L 233.115242 -106.865993 
L 232.822028 -107.185706 
L 232.537911 -107.505419 
L 232.263379 -107.825132 
L 231.998874 -108.144845 
L 231.744796 -108.464559 
L 231.50149 -108.784272 
L 231.269254 -109.103985 
L 231.048329 -109.423698 
L 230.838905 -109.743411 
L 230.641112 -110.063124 
L 230.455025 -110.382837 
L 230.280662 -110.70255 
L 230.117983 -111.022263 
L 229.966891 -111.341976 
L 229.827233 -111.661689 
L 229.698802 -111.981402 
L 229.58134 -112.301115 
L 229.474535 -112.620828 
L 229.37803 -112.940541 
L 229.291423 -113.260254 
L 229.214272 -113.579967 
L 229.146096 -113.89968 
L 229.086385 -114.219393 
L 229.034599 -114.539107 
L 228.990176 -114.85882 
L 228.952539 -115.178533 
L 228.921096 -115.498246 
L 228.895253 -115.817959 
L 228.874413 -116.137672 
L 228.857988 -116.457385 
L 228.845399 -116.777098 
L 228.836088 -117.096811 
L 228.829516 -117.416524 
L 228.825178 -117.736237 
L 228.822601 -118.05595 
L 228.821349 -118.375663 
L 228.821033 -118.695376 
L 228.821311 -119.015089 
L 228.821891 -119.334802 
L 228.822537 -119.654515 
L 228.823068 -119.974228 
L 228.823364 -120.293941 
L 228.823364 -120.613655 
L 228.823068 -120.933368 
L 228.822537 -121.253081 
L 228.821891 -121.572794 
L 228.821311 -121.892507 
L 228.821033 -122.21222 
L 228.821349 -122.531933 
L 228.822601 -122.851646 
L 228.825178 -123.171359 
L 228.829516 -123.491072 
L 228.836088 -123.810785 
L 228.845399 -124.130498 
L 228.857988 -124.450211 
L 228.874413 -124.769924 
L 228.895253 -125.089637 
L 228.921096 -125.40935 
L 228.952539 -125.729063 
L 228.990176 -126.048776 
L 229.034599 -126.368489 
L 229.086385 -126.688203 
L 229.146096 -127.007916 
L 229.214272 -127.327629 
L 229.291423 -127.647342 
L 229.37803 -127.967055 
L 229.474535 -128.286768 
L 229.58134 -128.606481 
L 229.698802 -128.926194 
L 229.827233 -129.245907 
L 229.966891 -129.56562 
L 230.117983 -129.885333 
L 230.280662 -130.205046 
L 230.455025 -130.524759 
L 230.641112 -130.844472 
L 230.838905 -131.164185 
L 231.048329 -131.483898 
L 231.269254 -131.803611 
L 231.50149 -132.123324 
L 231.744796 -132.443037 
L 231.998874 -132.762751 
L 232.263379 -133.082464 
L 232.537911 -133.402177 
L 232.822028 -133.72189 
L 233.115242 -134.041603 
L 233.417023 -134.361316 
L 233.726804 -134.681029 
L 234.043984 -135.000742 
L 234.367931 -135.320455 
L 234.697984 -135.640168 
L 235.03346 -135.959881 
L 235.373657 -136.279594 
L 259.191676 -136.279594 
L 259.191676 -136.279594 
L 259.531872 -135.959881 
L 259.867348 -135.640168 
L 260.197401 -135.320455 
L 260.521348 -135.000742 
L 260.838528 -134.681029 
L 261.14831 -134.361316 
L 261.450091 -134.041603 
L 261.743304 -133.72189 
L 262.027421 -133.402177 
L 262.301954 -133.082464 
L 262.566458 -132.762751 
L 262.820537 -132.443037 
L 263.063842 -132.123324 
L 263.296079 -131.803611 
L 263.517003 -131.483898 
L 263.726427 -131.164185 
L 263.92422 -130.844472 
L 264.110307 -130.524759 
L 264.28467 -130.205046 
L 264.447349 -129.885333 
L 264.598442 -129.56562 
L 264.7381 -129.245907 
L 264.86653 -128.926194 
L 264.983993 -128.606481 
L 265.090797 -128.286768 
L 265.187302 -127.967055 
L 265.273909 -127.647342 
L 265.351061 -127.327629 
L 265.419236 -127.007916 
L 265.478948 -126.688203 
L 265.530734 -126.368489 
L 265.575156 -126.048776 
L 265.612794 -125.729063 
L 265.644236 -125.40935 
L 265.67008 -125.089637 
L 265.690919 -124.769924 
L 265.707344 -124.450211 
L 265.719933 -124.130498 
L 265.729245 -123.810785 
L 265.735816 -123.491072 
L 265.740154 -123.171359 
L 265.742732 -122.851646 
L 265.743983 -122.531933 
L 265.744299 -122.21222 
L 265.744021 -121.892507 
L 265.743441 -121.572794 
L 265.742796 -121.253081 
L 265.742264 -120.933368 
L 265.741968 -120.613655 
L 265.741968 -120.293941 
L 265.742264 -119.974228 
L 265.742796 -119.654515 
L 265.743441 -119.334802 
L 265.744021 -119.015089 
L 265.744299 -118.695376 
L 265.743983 -118.375663 
L 265.742732 -118.05595 
L 265.740154 -117.736237 
L 265.735816 -117.416524 
L 265.729245 -117.096811 
L 265.719933 -116.777098 
L 265.707344 -116.457385 
L 265.690919 -116.137672 
L 265.67008 -115.817959 
L 265.644236 -115.498246 
L 265.612794 -115.178533 
L 265.575156 -114.85882 
L 265.530734 -114.539107 
L 265.478948 -114.219393 
L 265.419236 -113.89968 
L 265.351061 -113.579967 
L 265.273909 -113.260254 
L 265.187302 -112.940541 
L 265.090797 -112.620828 
L 264.983993 -112.301115 
L 264.86653 -111.981402 
L 264.7381 -111.661689 
L 264.598442 -111.341976 
L 264.447349 -111.022263 
L 264.28467 -110.70255 
L 264.110307 -110.382837 
L 263.92422 -110.063124 
L 263.726427 -109.743411 
L 263.517003 -109.423698 
L 263.296079 -109.103985 
L 263.063842 -108.784272 
L 262.820537 -108.464559 
L 262.566458 -108.144845 
L 262.301954 -107.825132 
L 262.027421 -107.505419 
L 261.743304 -107.185706 
L 261.450091 -106.865993 
L 261.14831 -106.54628 
L 260.838528 -106.226567 
L 260.521348 -105.906854 
L 260.197401 -105.587141 
L 259.867348 -105.267428 
L 259.531872 -104.947715 
L 259.191676 -104.628002 
z
" style="stroke: #0f766e; stroke-opacity: 0.34"/>
    </defs>
    <g clip-path="url(#pa7b84c52b5)">
     <use xlink:href="#mb15cfa4f1e" x="0" y="273.6" style="fill: #0f766e; fill-opacity: 0.34; stroke: #0f766e; stroke-opacity: 0.34"/>
    </g>
   </g>
   <g id="FillBetweenPolyCollection_6">
    <defs>
     <path id="m15a4088207" d="M 389.372907 -148.588547 
L 368.178647 -148.588547 
L 367.861255 -148.961545 
L 367.546947 -149.334544 
L 367.236311 -149.707542 
L 366.929919 -150.080541 
L 366.628326 -150.453539 
L 366.332065 -150.826538 
L 366.041644 -151.199537 
L 365.757545 -151.572535 
L 365.480219 -151.945534 
L 365.210086 -152.318532 
L 364.94753 -152.691531 
L 364.692898 -153.064529 
L 364.4465 -153.437528 
L 364.208603 -153.810526 
L 363.979432 -154.183525 
L 363.759169 -154.556524 
L 363.547951 -154.929522 
L 363.34587 -155.302521 
L 363.152973 -155.675519 
L 362.969259 -156.048518 
L 362.794684 -156.421516 
L 362.629159 -156.794515 
L 362.472553 -157.167514 
L 362.324691 -157.540512 
L 362.185361 -157.913511 
L 362.054312 -158.286509 
L 361.931259 -158.659508 
L 361.815888 -159.032506 
L 361.707856 -159.405505 
L 361.606795 -159.778503 
L 361.512322 -160.151502 
L 361.424035 -160.524501 
L 361.341525 -160.897499 
L 361.264378 -161.270498 
L 361.192179 -161.643496 
L 361.124519 -162.016495 
L 361.061 -162.389493 
L 361.001239 -162.762492 
L 360.944876 -163.135491 
L 360.891574 -163.508489 
L 360.841028 -163.881488 
L 360.792967 -164.254486 
L 360.747159 -164.627485 
L 360.703413 -165.000483 
L 360.661587 -165.373482 
L 360.621581 -165.74648 
L 360.583348 -166.119479 
L 360.546893 -166.492478 
L 360.51227 -166.865476 
L 360.479585 -167.238475 
L 360.448998 -167.611473 
L 360.420716 -167.984472 
L 360.394996 -168.35747 
L 360.372139 -168.730469 
L 360.35249 -169.103467 
L 360.336432 -169.476466 
L 360.324385 -169.849465 
L 360.316798 -170.222463 
L 360.314144 -170.595462 
L 360.31692 -170.96846 
L 360.325635 -171.341459 
L 360.340807 -171.714457 
L 360.362961 -172.087456 
L 360.392617 -172.460455 
L 360.430285 -172.833453 
L 360.476467 -173.206452 
L 360.53164 -173.57945 
L 360.59626 -173.952449 
L 360.670755 -174.325447 
L 360.755515 -174.698446 
L 360.850896 -175.071444 
L 360.957211 -175.444443 
L 361.074727 -175.817442 
L 361.203667 -176.19044 
L 361.3442 -176.563439 
L 361.496446 -176.936437 
L 361.660471 -177.309436 
L 361.836289 -177.682434 
L 362.023859 -178.055433 
L 362.223086 -178.428432 
L 362.433824 -178.80143 
L 362.655873 -179.174429 
L 362.888986 -179.547427 
L 363.132863 -179.920426 
L 363.387162 -180.293424 
L 363.651495 -180.666423 
L 363.925432 -181.039421 
L 364.208506 -181.41242 
L 364.500213 -181.785419 
L 364.800019 -182.158417 
L 365.107358 -182.531416 
L 365.42164 -182.904414 
L 365.742251 -183.277413 
L 366.068559 -183.650411 
L 366.399914 -184.02341 
L 366.735656 -184.396408 
L 367.075112 -184.769407 
L 367.417605 -185.142406 
L 367.762453 -185.515404 
L 389.7891 -185.515404 
L 389.7891 -185.515404 
L 390.133949 -185.142406 
L 390.476442 -184.769407 
L 390.815898 -184.396408 
L 391.15164 -184.02341 
L 391.482995 -183.650411 
L 391.809303 -183.277413 
L 392.129914 -182.904414 
L 392.444196 -182.531416 
L 392.751535 -182.158417 
L 393.051341 -181.785419 
L 393.343048 -181.41242 
L 393.626122 -181.039421 
L 393.900059 -180.666423 
L 394.164391 -180.293424 
L 394.41869 -179.920426 
L 394.662568 -179.547427 
L 394.89568 -179.174429 
L 395.11773 -178.80143 
L 395.328468 -178.428432 
L 395.527695 -178.055433 
L 395.715265 -177.682434 
L 395.891083 -177.309436 
L 396.055108 -176.936437 
L 396.207354 -176.563439 
L 396.347887 -176.19044 
L 396.476826 -175.817442 
L 396.594343 -175.444443 
L 396.700658 -175.071444 
L 396.796039 -174.698446 
L 396.880799 -174.325447 
L 396.955293 -173.952449 
L 397.019914 -173.57945 
L 397.075087 -173.206452 
L 397.121268 -172.833453 
L 397.158937 -172.460455 
L 397.188592 -172.087456 
L 397.210746 -171.714457 
L 397.225919 -171.341459 
L 397.234634 -170.96846 
L 397.23741 -170.595462 
L 397.234756 -170.222463 
L 397.227169 -169.849465 
L 397.215121 -169.476466 
L 397.199064 -169.103467 
L 397.179415 -168.730469 
L 397.156558 -168.35747 
L 397.130838 -167.984472 
L 397.102556 -167.611473 
L 397.071968 -167.238475 
L 397.039284 -166.865476 
L 397.004661 -166.492478 
L 396.968205 -166.119479 
L 396.929973 -165.74648 
L 396.889967 -165.373482 
L 396.84814 -165.000483 
L 396.804395 -164.627485 
L 396.758587 -164.254486 
L 396.710526 -163.881488 
L 396.65998 -163.508489 
L 396.606678 -163.135491 
L 396.550315 -162.762492 
L 396.490554 -162.389493 
L 396.427035 -162.016495 
L 396.359375 -161.643496 
L 396.287176 -161.270498 
L 396.210029 -160.897499 
L 396.127519 -160.524501 
L 396.039232 -160.151502 
L 395.944759 -159.778503 
L 395.843698 -159.405505 
L 395.735666 -159.032506 
L 395.620294 -158.659508 
L 395.497242 -158.286509 
L 395.366193 -157.913511 
L 395.226862 -157.540512 
L 395.079001 -157.167514 
L 394.922394 -156.794515 
L 394.75687 -156.421516 
L 394.582295 -156.048518 
L 394.398581 -155.675519 
L 394.205683 -155.302521 
L 394.003602 -154.929522 
L 393.792385 -154.556524 
L 393.572122 -154.183525 
L 393.342951 -153.810526 
L 393.105054 -153.437528 
L 392.858656 -153.064529 
L 392.604024 -152.691531 
L 392.341468 -152.318532 
L 392.071335 -151.945534 
L 391.794009 -151.572535 
L 391.50991 -151.199537 
L 391.219489 -150.826538 
L 390.923228 -150.453539 
L 390.621635 -150.080541 
L 390.315243 -149.707542 
L 390.004607 -149.334544 
L 389.690299 -148.961545 
L 389.372907 -148.588547 
z
" style="stroke: #0f766e; stroke-opacity: 0.34"/>
    </defs>
    <g clip-path="url(#pa7b84c52b5)">
     <use xlink:href="#m15a4088207" x="0" y="273.6" style="fill: #0f766e; fill-opacity: 0.34; stroke: #0f766e; stroke-opacity: 0.34"/>
    </g>
   </g>
   <g id="matplotlib.axis_1">
    <g id="xtick_1">
     <g id="line2d_1">
      <path d="M 92.120796 244.584135 
L 92.120796 15.989303 
" clip-path="url(#pa7b84c52b5)" style="fill: none; stroke: #b0b0b0; stroke-opacity: 0.25; stroke-width: 0.8; stroke-linecap: square"/>
     </g>
     <g id="line2d_2">
      <defs>
       <path id="ma017250b61" d="M 0 0 
L 0 3.5 
" style="stroke: #000000; stroke-width: 0.8"/>
      </defs>
      <g>
       <use xlink:href="#ma017250b61" x="92.120796" y="244.584135" style="stroke: #000000; stroke-width: 0.8"/>
      </g>
     </g>
     <g id="text_1">
      <!-- Baseline -->
      <g transform="translate(76.777671 257.408354) scale(0.08 -0.08)">
       <defs>
        <path id="ArialMT-25" d="M 469 0 
L 469 4581 
L 2188 4581 
Q 2713 4581 3030 4442 
Q 3347 4303 3526 4014 
Q 3706 3725 3706 3409 
Q 3706 3116 3547 2856 
Q 3388 2597 3066 2438 
Q 3481 2316 3704 2022 
Q 3928 1728 3928 1328 
Q 3928 1006 3792 729 
Q 3656 453 3456 303 
Q 3256 153 2954 76 
Q 2653 0 2216 0 
L 469 0 
z
M 1075 2656 
L 2066 2656 
Q 2469 2656 2644 2709 
Q 2875 2778 2992 2937 
Q 3109 3097 3109 3338 
Q 3109 3566 3000 3739 
Q 2891 3913 2687 3977 
Q 2484 4041 1991 4041 
L 1075 4041 
L 1075 2656 
z
M 1075 541 
L 2216 541 
Q 2509 541 2628 563 
Q 2838 600 2978 687 
Q 3119 775 3209 942 
Q 3300 1109 3300 1328 
Q 3300 1584 3169 1773 
Q 3038 1963 2805 2039 
Q 2572 2116 2134 2116 
L 1075 2116 
L 1075 541 
z
" transform="scale(0.015625)"/>
        <path id="ArialMT-44" d="M 2588 409 
Q 2275 144 1986 34 
Q 1697 -75 1366 -75 
Q 819 -75 525 192 
Q 231 459 231 875 
Q 231 1119 342 1320 
Q 453 1522 633 1644 
Q 813 1766 1038 1828 
Q 1203 1872 1538 1913 
Q 2219 1994 2541 2106 
Q 2544 2222 2544 2253 
Q 2544 2597 2384 2738 
Q 2169 2928 1744 2928 
Q 1347 2928 1158 2789 
Q 969 2650 878 2297 
L 328 2372 
Q 403 2725 575 2942 
Q 747 3159 1072 3276 
Q 1397 3394 1825 3394 
Q 2250 3394 2515 3294 
Q 2781 3194 2906 3042 
Q 3031 2891 3081 2659 
Q 3109 2516 3109 2141 
L 3109 1391 
Q 3109 606 3145 398 
Q 3181 191 3288 0 
L 2700 0 
Q 2613 175 2588 409 
z
M 2541 1666 
Q 2234 1541 1622 1453 
Q 1275 1403 1131 1340 
Q 988 1278 909 1158 
Q 831 1038 831 891 
Q 831 666 1001 516 
Q 1172 366 1500 366 
Q 1825 366 2078 508 
Q 2331 650 2450 897 
Q 2541 1088 2541 1459 
L 2541 1666 
z
" transform="scale(0.015625)"/>
        <path id="ArialMT-56" d="M 197 991 
L 753 1078 
Q 800 744 1014 566 
Q 1228 388 1613 388 
Q 2000 388 2187 545 
Q 2375 703 2375 916 
Q 2375 1106 2209 1216 
Q 2094 1291 1634 1406 
Q 1016 1563 777 1677 
Q 538 1791 414 1992 
Q 291 2194 291 2438 
Q 291 2659 392 2848 
Q 494 3038 669 3163 
Q 800 3259 1026 3326 
Q 1253 3394 1513 3394 
Q 1903 3394 2198 3281 
Q 2494 3169 2634 2976 
Q 2775 2784 2828 2463 
L 2278 2388 
Q 2241 2644 2061 2787 
Q 1881 2931 1553 2931 
Q 1166 2931 1000 2803 
Q 834 2675 834 2503 
Q 834 2394 903 2306 
Q 972 2216 1119 2156 
Q 1203 2125 1616 2013 
Q 2213 1853 2448 1751 
Q 2684 1650 2818 1456 
Q 2953 1263 2953 975 
Q 2953 694 2789 445 
Q 2625 197 2315 61 
Q 2006 -75 1616 -75 
Q 969 -75 630 194 
Q 291 463 197 991 
z
" transform="scale(0.015625)"/>
        <path id="ArialMT-48" d="M 2694 1069 
L 3275 997 
Q 3138 488 2766 206 
Q 2394 -75 1816 -75 
Q 1088 -75 661 373 
Q 234 822 234 1631 
Q 234 2469 665 2931 
Q 1097 3394 1784 3394 
Q 2450 3394 2872 2941 
Q 3294 2488 3294 1666 
Q 3294 1616 3291 1516 
L 816 1516 
Q 847 969 1125 678 
Q 1403 388 1819 388 
Q 2128 388 2347 550 
Q 2566 713 2694 1069 
z
M 847 1978 
L 2700 1978 
Q 2663 2397 2488 2606 
Q 2219 2931 1791 2931 
Q 1403 2931 1139 2672 
Q 875 2413 847 1978 
z
" transform="scale(0.015625)"/>
        <path id="ArialMT-4f" d="M 409 0 
L 409 4581 
L 972 4581 
L 972 0 
L 409 0 
z
" transform="scale(0.015625)"/>
        <path id="ArialMT-4c" d="M 425 3934 
L 425 4581 
L 988 4581 
L 988 3934 
L 425 3934 
z
M 425 0 
L 425 3319 
L 988 3319 
L 988 0 
L 425 0 
z
" transform="scale(0.015625)"/>
        <path id="ArialMT-51" d="M 422 0 
L 422 3319 
L 928 3319 
L 928 2847 
Q 1294 3394 1984 3394 
Q 2284 3394 2536 3286 
Q 2788 3178 2913 3003 
Q 3038 2828 3088 2588 
Q 3119 2431 3119 2041 
L 3119 0 
L 2556 0 
L 2556 2019 
Q 2556 2363 2490 2533 
Q 2425 2703 2258 2804 
Q 2091 2906 1866 2906 
Q 1506 2906 1245 2678 
Q 984 2450 984 1813 
L 984 0 
L 422 0 
z
" transform="scale(0.015625)"/>
       </defs>
       <use xlink:href="#ArialMT-25"/>
       <use xlink:href="#ArialMT-44" transform="translate(66.703125 0)"/>
       <use xlink:href="#ArialMT-56" transform="translate(122.3125 0)"/>
       <use xlink:href="#ArialMT-48" transform="translate(172.3125 0)"/>
       <use xlink:href="#ArialMT-4f" transform="translate(227.921875 0)"/>
       <use xlink:href="#ArialMT-4c" transform="translate(250.140625 0)"/>
       <use xlink:href="#ArialMT-51" transform="translate(272.359375 0)"/>
       <use xlink:href="#ArialMT-48" transform="translate(327.96875 0)"/>
      </g>
     </g>
    </g>
    <g id="xtick_2">
     <g id="line2d_3">
      <path d="M 223.613906 244.584135 
L 223.613906 15.989303 
" clip-path="url(#pa7b84c52b5)" style="fill: none; stroke: #b0b0b0; stroke-opacity: 0.25; stroke-width: 0.8; stroke-linecap: square"/>
     </g>
     <g id="line2d_4">
      <g>
       <use xlink:href="#ma017250b61" x="223.613906" y="244.584135" style="stroke: #000000; stroke-width: 0.8"/>
      </g>
     </g>
     <g id="text_2">
      <!-- Stim A -->
      <g transform="translate(212.055156 257.408354) scale(0.08 -0.08)">
       <defs>
        <path id="ArialMT-36" d="M 288 1472 
L 859 1522 
Q 900 1178 1048 958 
Q 1197 738 1509 602 
Q 1822 466 2213 466 
Q 2559 466 2825 569 
Q 3091 672 3220 851 
Q 3350 1031 3350 1244 
Q 3350 1459 3225 1620 
Q 3100 1781 2813 1891 
Q 2628 1963 1997 2114 
Q 1366 2266 1113 2400 
Q 784 2572 623 2826 
Q 463 3081 463 3397 
Q 463 3744 659 4045 
Q 856 4347 1234 4503 
Q 1613 4659 2075 4659 
Q 2584 4659 2973 4495 
Q 3363 4331 3572 4012 
Q 3781 3694 3797 3291 
L 3216 3247 
Q 3169 3681 2898 3903 
Q 2628 4125 2100 4125 
Q 1550 4125 1298 3923 
Q 1047 3722 1047 3438 
Q 1047 3191 1225 3031 
Q 1400 2872 2139 2705 
Q 2878 2538 3153 2413 
Q 3553 2228 3743 1945 
Q 3934 1663 3934 1294 
Q 3934 928 3725 604 
Q 3516 281 3123 101 
Q 2731 -78 2241 -78 
Q 1619 -78 1198 103 
Q 778 284 539 648 
Q 300 1013 288 1472 
z
" transform="scale(0.015625)"/>
        <path id="ArialMT-57" d="M 1650 503 
L 1731 6 
Q 1494 -44 1306 -44 
Q 1000 -44 831 53 
Q 663 150 594 308 
Q 525 466 525 972 
L 525 2881 
L 113 2881 
L 113 3319 
L 525 3319 
L 525 4141 
L 1084 4478 
L 1084 3319 
L 1650 3319 
L 1650 2881 
L 1084 2881 
L 1084 941 
Q 1084 700 1114 631 
Q 1144 563 1211 522 
Q 1278 481 1403 481 
Q 1497 481 1650 503 
z
" transform="scale(0.015625)"/>
        <path id="ArialMT-50" d="M 422 0 
L 422 3319 
L 925 3319 
L 925 2853 
Q 1081 3097 1340 3245 
Q 1600 3394 1931 3394 
Q 2300 3394 2536 3241 
Q 2772 3088 2869 2813 
Q 3263 3394 3894 3394 
Q 4388 3394 4653 3120 
Q 4919 2847 4919 2278 
L 4919 0 
L 4359 0 
L 4359 2091 
Q 4359 2428 4304 2576 
Q 4250 2725 4106 2815 
Q 3963 2906 3769 2906 
Q 3419 2906 3187 2673 
Q 2956 2441 2956 1928 
L 2956 0 
L 2394 0 
L 2394 2156 
Q 2394 2531 2256 2718 
Q 2119 2906 1806 2906 
Q 1569 2906 1367 2781 
Q 1166 2656 1075 2415 
Q 984 2175 984 1722 
L 984 0 
L 422 0 
z
" transform="scale(0.015625)"/>
        <path id="ArialMT-3" transform="scale(0.015625)"/>
        <path id="ArialMT-24" d="M -9 0 
L 1750 4581 
L 2403 4581 
L 4278 0 
L 3588 0 
L 3053 1388 
L 1138 1388 
L 634 0 
L -9 0 
z
M 1313 1881 
L 2866 1881 
L 2388 3150 
Q 2169 3728 2063 4100 
Q 1975 3659 1816 3225 
L 1313 1881 
z
" transform="scale(0.015625)"/>
       </defs>
       <use xlink:href="#ArialMT-36"/>
       <use xlink:href="#ArialMT-57" transform="translate(66.703125 0)"/>
       <use xlink:href="#ArialMT-4c" transform="translate(94.484375 0)"/>
       <use xlink:href="#ArialMT-50" transform="translate(116.703125 0)"/>
       <use xlink:href="#ArialMT-3" transform="translate(200 0)"/>
       <use xlink:href="#ArialMT-24" transform="translate(222.265625 0)"/>
      </g>
     </g>
    </g>
    <g id="xtick_3">
     <g id="line2d_5">
      <path d="M 355.107017 244.584135 
L 355.107017 15.989303 
" clip-path="url(#pa7b84c52b5)" style="fill: none; stroke: #b0b0b0; stroke-opacity: 0.25; stroke-width: 0.8; stroke-linecap: square"/>
     </g>
     <g id="line2d_6">
      <g>
       <use xlink:href="#ma017250b61" x="355.107017" y="244.584135" style="stroke: #000000; stroke-width: 0.8"/>
      </g>
     </g>
     <g id="text_3">
      <!-- Stim B -->
      <g transform="translate(343.327642 257.408354) scale(0.08 -0.08)">
       <use xlink:href="#ArialMT-36"/>
       <use xlink:href="#ArialMT-57" transform="translate(66.703125 0)"/>
       <use xlink:href="#ArialMT-4c" transform="translate(94.484375 0)"/>
       <use xlink:href="#ArialMT-50" transform="translate(116.703125 0)"/>
       <use xlink:href="#ArialMT-3" transform="translate(200 0)"/>
       <use xlink:href="#ArialMT-25" transform="translate(227.78125 0)"/>
      </g>
     </g>
    </g>
    <g id="text_4">
     <!-- Condition -->
     <g transform="translate(206.714531 268.916166) scale(0.08 -0.08)">
      <defs>
       <path id="ArialMT-26" d="M 3763 1606 
L 4369 1453 
Q 4178 706 3683 314 
Q 3188 -78 2472 -78 
Q 1731 -78 1267 223 
Q 803 525 561 1097 
Q 319 1669 319 2325 
Q 319 3041 592 3573 
Q 866 4106 1370 4382 
Q 1875 4659 2481 4659 
Q 3169 4659 3637 4309 
Q 4106 3959 4291 3325 
L 3694 3184 
Q 3534 3684 3231 3912 
Q 2928 4141 2469 4141 
Q 1941 4141 1586 3887 
Q 1231 3634 1087 3207 
Q 944 2781 944 2328 
Q 944 1744 1114 1308 
Q 1284 872 1643 656 
Q 2003 441 2422 441 
Q 2931 441 3284 734 
Q 3638 1028 3763 1606 
z
" transform="scale(0.015625)"/>
       <path id="ArialMT-52" d="M 213 1659 
Q 213 2581 725 3025 
Q 1153 3394 1769 3394 
Q 2453 3394 2887 2945 
Q 3322 2497 3322 1706 
Q 3322 1066 3130 698 
Q 2938 331 2570 128 
Q 2203 -75 1769 -75 
Q 1072 -75 642 372 
Q 213 819 213 1659 
z
M 791 1659 
Q 791 1022 1069 705 
Q 1347 388 1769 388 
Q 2188 388 2466 706 
Q 2744 1025 2744 1678 
Q 2744 2294 2464 2611 
Q 2184 2928 1769 2928 
Q 1347 2928 1069 2612 
Q 791 2297 791 1659 
z
" transform="scale(0.015625)"/>
       <path id="ArialMT-47" d="M 2575 0 
L 2575 419 
Q 2259 -75 1647 -75 
Q 1250 -75 917 144 
Q 584 363 401 755 
Q 219 1147 219 1656 
Q 219 2153 384 2558 
Q 550 2963 881 3178 
Q 1213 3394 1622 3394 
Q 1922 3394 2156 3267 
Q 2391 3141 2538 2938 
L 2538 4581 
L 3097 4581 
L 3097 0 
L 2575 0 
z
M 797 1656 
Q 797 1019 1065 703 
Q 1334 388 1700 388 
Q 2069 388 2326 689 
Q 2584 991 2584 1609 
Q 2584 2291 2321 2609 
Q 2059 2928 1675 2928 
Q 1300 2928 1048 2622 
Q 797 2316 797 1656 
z
" transform="scale(0.015625)"/>
      </defs>
      <use xlink:href="#ArialMT-26"/>
      <use xlink:href="#ArialMT-52" transform="translate(72.21875 0)"/>
      <use xlink:href="#ArialMT-51" transform="translate(127.828125 0)"/>
      <use xlink:href="#ArialMT-47" transform="translate(183.4375 0)"/>
      <use xlink:href="#ArialMT-4c" transform="translate(239.046875 0)"/>
      <use xlink:href="#ArialMT-57" transform="translate(261.265625 0)"/>
      <use xlink:href="#ArialMT-4c" transform="translate(289.046875 0)"/>
      <use xlink:href="#ArialMT-52" transform="translate(311.265625 0)"/>
      <use xlink:href="#ArialMT-51" transform="translate(366.875 0)"/>
     </g>
    </g>
   </g>
   <g id="matplotlib.axis_2">
    <g id="ytick_1">
     <g id="line2d_7">
      <path d="M 32.628053 244.584135 
L 414.59976 244.584135 
" clip-path="url(#pa7b84c52b5)" style="fill: none; stroke: #b0b0b0; stroke-opacity: 0.25; stroke-width: 0.8; stroke-linecap: square"/>
     </g>
     <g id="line2d_8">
      <defs>
       <path id="mfd0bad59ce" d="M 0 0 
L -3.5 0 
" style="stroke: #000000; stroke-width: 0.8"/>
      </defs>
      <g>
       <use xlink:href="#mfd0bad59ce" x="32.628053" y="244.584135" style="stroke: #000000; stroke-width: 0.8"/>
      </g>
     </g>
     <g id="text_5">
      <!-- 0.6 -->
      <g transform="translate(14.508053 247.496244) scale(0.08 -0.08)">
       <defs>
        <path id="ArialMT-13" d="M 266 2259 
Q 266 3072 433 3567 
Q 600 4063 929 4331 
Q 1259 4600 1759 4600 
Q 2128 4600 2406 4451 
Q 2684 4303 2865 4023 
Q 3047 3744 3150 3342 
Q 3253 2941 3253 2259 
Q 3253 1453 3087 958 
Q 2922 463 2592 192 
Q 2263 -78 1759 -78 
Q 1097 -78 719 397 
Q 266 969 266 2259 
z
M 844 2259 
Q 844 1131 1108 757 
Q 1372 384 1759 384 
Q 2147 384 2411 759 
Q 2675 1134 2675 2259 
Q 2675 3391 2411 3762 
Q 2147 4134 1753 4134 
Q 1366 4134 1134 3806 
Q 844 3388 844 2259 
z
" transform="scale(0.015625)"/>
        <path id="ArialMT-11" d="M 581 0 
L 581 641 
L 1222 641 
L 1222 0 
L 581 0 
z
" transform="scale(0.015625)"/>
        <path id="ArialMT-19" d="M 3184 3459 
L 2625 3416 
Q 2550 3747 2413 3897 
Q 2184 4138 1850 4138 
Q 1581 4138 1378 3988 
Q 1113 3794 959 3422 
Q 806 3050 800 2363 
Q 1003 2672 1297 2822 
Q 1591 2972 1913 2972 
Q 2475 2972 2870 2558 
Q 3266 2144 3266 1488 
Q 3266 1056 3080 686 
Q 2894 316 2569 119 
Q 2244 -78 1831 -78 
Q 1128 -78 684 439 
Q 241 956 241 2144 
Q 241 3472 731 4075 
Q 1159 4600 1884 4600 
Q 2425 4600 2770 4297 
Q 3116 3994 3184 3459 
z
M 888 1484 
Q 888 1194 1011 928 
Q 1134 663 1356 523 
Q 1578 384 1822 384 
Q 2178 384 2434 671 
Q 2691 959 2691 1453 
Q 2691 1928 2437 2201 
Q 2184 2475 1800 2475 
Q 1419 2475 1153 2201 
Q 888 1928 888 1484 
z
" transform="scale(0.015625)"/>
       </defs>
       <use xlink:href="#ArialMT-13"/>
       <use xlink:href="#ArialMT-11" transform="translate(55.609375 0)"/>
       <use xlink:href="#ArialMT-19" transform="translate(83.390625 0)"/>
      </g>
     </g>
    </g>
    <g id="ytick_2">
     <g id="line2d_9">
      <path d="M 32.628053 209.415699 
L 414.59976 209.415699 
" clip-path="url(#pa7b84c52b5)" style="fill: none; stroke: #b0b0b0; stroke-opacity: 0.25; stroke-width: 0.8; stroke-linecap: square"/>
     </g>
     <g id="line2d_10">
      <g>
       <use xlink:href="#mfd0bad59ce" x="32.628053" y="209.415699" style="stroke: #000000; stroke-width: 0.8"/>
      </g>
     </g>
     <g id="text_6">
      <!-- 0.8 -->
      <g transform="translate(14.508053 212.327809) scale(0.08 -0.08)">
       <defs>
        <path id="ArialMT-1b" d="M 1131 2484 
Q 781 2613 612 2850 
Q 444 3088 444 3419 
Q 444 3919 803 4259 
Q 1163 4600 1759 4600 
Q 2359 4600 2725 4251 
Q 3091 3903 3091 3403 
Q 3091 3084 2923 2848 
Q 2756 2613 2416 2484 
Q 2838 2347 3058 2040 
Q 3278 1734 3278 1309 
Q 3278 722 2862 322 
Q 2447 -78 1769 -78 
Q 1091 -78 675 323 
Q 259 725 259 1325 
Q 259 1772 486 2073 
Q 713 2375 1131 2484 
z
M 1019 3438 
Q 1019 3113 1228 2906 
Q 1438 2700 1772 2700 
Q 2097 2700 2305 2904 
Q 2513 3109 2513 3406 
Q 2513 3716 2298 3927 
Q 2084 4138 1766 4138 
Q 1444 4138 1231 3931 
Q 1019 3725 1019 3438 
z
M 838 1322 
Q 838 1081 952 856 
Q 1066 631 1291 507 
Q 1516 384 1775 384 
Q 2178 384 2440 643 
Q 2703 903 2703 1303 
Q 2703 1709 2433 1975 
Q 2163 2241 1756 2241 
Q 1359 2241 1098 1978 
Q 838 1716 838 1322 
z
" transform="scale(0.015625)"/>
       </defs>
       <use xlink:href="#ArialMT-13"/>
       <use xlink:href="#ArialMT-11" transform="translate(55.609375 0)"/>
       <use xlink:href="#ArialMT-1b" transform="translate(83.390625 0)"/>
      </g>
     </g>
    </g>
    <g id="ytick_3">
     <g id="line2d_11">
      <path d="M 32.628053 174.247263 
L 414.59976 174.247263 
" clip-path="url(#pa7b84c52b5)" style="fill: none; stroke: #b0b0b0; stroke-opacity: 0.25; stroke-width: 0.8; stroke-linecap: square"/>
     </g>
     <g id="line2d_12">
      <g>
       <use xlink:href="#mfd0bad59ce" x="32.628053" y="174.247263" style="stroke: #000000; stroke-width: 0.8"/>
      </g>
     </g>
     <g id="text_7">
      <!-- 1.0 -->
      <g transform="translate(14.508053 177.159373) scale(0.08 -0.08)">
       <defs>
        <path id="ArialMT-14" d="M 2384 0 
L 1822 0 
L 1822 3584 
Q 1619 3391 1289 3197 
Q 959 3003 697 2906 
L 697 3450 
Q 1169 3672 1522 3987 
Q 1875 4303 2022 4600 
L 2384 4600 
L 2384 0 
z
" transform="scale(0.015625)"/>
       </defs>
       <use xlink:href="#ArialMT-14"/>
       <use xlink:href="#ArialMT-11" transform="translate(55.609375 0)"/>
       <use xlink:href="#ArialMT-13" transform="translate(83.390625 0)"/>
      </g>
     </g>
    </g>
    <g id="ytick_4">
     <g id="line2d_13">
      <path d="M 32.628053 139.078828 
L 414.59976 139.078828 
" clip-path="url(#pa7b84c52b5)" style="fill: none; stroke: #b0b0b0; stroke-opacity: 0.25; stroke-width: 0.8; stroke-linecap: square"/>
     </g>
     <g id="line2d_14">
      <g>
       <use xlink:href="#mfd0bad59ce" x="32.628053" y="139.078828" style="stroke: #000000; stroke-width: 0.8"/>
      </g>
     </g>
     <g id="text_8">
      <!-- 1.2 -->
      <g transform="translate(14.508053 141.990937) scale(0.08 -0.08)">
       <defs>
        <path id="ArialMT-15" d="M 3222 541 
L 3222 0 
L 194 0 
Q 188 203 259 391 
Q 375 700 629 1000 
Q 884 1300 1366 1694 
Q 2113 2306 2375 2664 
Q 2638 3022 2638 3341 
Q 2638 3675 2398 3904 
Q 2159 4134 1775 4134 
Q 1369 4134 1125 3890 
Q 881 3647 878 3216 
L 300 3275 
Q 359 3922 746 4261 
Q 1134 4600 1788 4600 
Q 2447 4600 2831 4234 
Q 3216 3869 3216 3328 
Q 3216 3053 3103 2787 
Q 2991 2522 2730 2228 
Q 2469 1934 1863 1422 
Q 1356 997 1212 845 
Q 1069 694 975 541 
L 3222 541 
z
" transform="scale(0.015625)"/>
       </defs>
       <use xlink:href="#ArialMT-14"/>
       <use xlink:href="#ArialMT-11" transform="translate(55.609375 0)"/>
       <use xlink:href="#ArialMT-15" transform="translate(83.390625 0)"/>
      </g>
     </g>
    </g>
    <g id="ytick_5">
     <g id="line2d_15">
      <path d="M 32.628053 103.910392 
L 414.59976 103.910392 
" clip-path="url(#pa7b84c52b5)" style="fill: none; stroke: #b0b0b0; stroke-opacity: 0.25; stroke-width: 0.8; stroke-linecap: square"/>
     </g>
     <g id="line2d_16">
      <g>
       <use xlink:href="#mfd0bad59ce" x="32.628053" y="103.910392" style="stroke: #000000; stroke-width: 0.8"/>
      </g>
     </g>
     <g id="text_9">
      <!-- 1.4 -->
      <g transform="translate(14.508053 106.822501) scale(0.08 -0.08)">
       <defs>
        <path id="ArialMT-17" d="M 2069 0 
L 2069 1097 
L 81 1097 
L 81 1613 
L 2172 4581 
L 2631 4581 
L 2631 1613 
L 3250 1613 
L 3250 1097 
L 2631 1097 
L 2631 0 
L 2069 0 
z
M 2069 1613 
L 2069 3678 
L 634 1613 
L 2069 1613 
z
" transform="scale(0.015625)"/>
       </defs>
       <use xlink:href="#ArialMT-14"/>
       <use xlink:href="#ArialMT-11" transform="translate(55.609375 0)"/>
       <use xlink:href="#ArialMT-17" transform="translate(83.390625 0)"/>
      </g>
     </g>
    </g>
    <g id="ytick_6">
     <g id="line2d_17">
      <path d="M 32.628053 68.741956 
L 414.59976 68.741956 
" clip-path="url(#pa7b84c52b5)" style="fill: none; stroke: #b0b0b0; stroke-opacity: 0.25; stroke-width: 0.8; stroke-linecap: square"/>
     </g>
     <g id="line2d_18">
      <g>
       <use xlink:href="#mfd0bad59ce" x="32.628053" y="68.741956" style="stroke: #000000; stroke-width: 0.8"/>
      </g>
     </g>
     <g id="text_10">
      <!-- 1.6 -->
      <g transform="translate(14.508053 71.654066) scale(0.08 -0.08)">
       <use xlink:href="#ArialMT-14"/>
       <use xlink:href="#ArialMT-11" transform="translate(55.609375 0)"/>
       <use xlink:href="#ArialMT-19" transform="translate(83.390625 0)"/>
      </g>
     </g>
    </g>
    <g id="ytick_7">
     <g id="line2d_19">
      <path d="M 32.628053 33.57352 
L 414.59976 33.57352 
" clip-path="url(#pa7b84c52b5)" style="fill: none; stroke: #b0b0b0; stroke-opacity: 0.25; stroke-width: 0.8; stroke-linecap: square"/>
     </g>
     <g id="line2d_20">
      <g>
       <use xlink:href="#mfd0bad59ce" x="32.628053" y="33.57352" style="stroke: #000000; stroke-width: 0.8"/>
      </g>
     </g>
     <g id="text_11">
      <!-- 1.8 -->
      <g transform="translate(14.508053 36.48563) scale(0.08 -0.08)">
       <use xlink:href="#ArialMT-14"/>
       <use xlink:href="#ArialMT-11" transform="translate(55.609375 0)"/>
       <use xlink:href="#ArialMT-1b" transform="translate(83.390625 0)"/>
      </g>
     </g>
    </g>
    <g id="text_12">
     <!-- Normalized response -->
     <g transform="translate(8.824459 168.079219) rotate(-90) scale(0.08 -0.08)">
      <defs>
       <path id="ArialMT-31" d="M 488 0 
L 488 4581 
L 1109 4581 
L 3516 984 
L 3516 4581 
L 4097 4581 
L 4097 0 
L 3475 0 
L 1069 3600 
L 1069 0 
L 488 0 
z
" transform="scale(0.015625)"/>
       <path id="ArialMT-55" d="M 416 0 
L 416 3319 
L 922 3319 
L 922 2816 
Q 1116 3169 1280 3281 
Q 1444 3394 1641 3394 
Q 1925 3394 2219 3213 
L 2025 2691 
Q 1819 2813 1613 2813 
Q 1428 2813 1281 2702 
Q 1134 2591 1072 2394 
Q 978 2094 978 1738 
L 978 0 
L 416 0 
z
" transform="scale(0.015625)"/>
       <path id="ArialMT-5d" d="M 125 0 
L 125 456 
L 2238 2881 
Q 1878 2863 1603 2863 
L 250 2863 
L 250 3319 
L 2963 3319 
L 2963 2947 
L 1166 841 
L 819 456 
Q 1197 484 1528 484 
L 3063 484 
L 3063 0 
L 125 0 
z
" transform="scale(0.015625)"/>
       <path id="ArialMT-53" d="M 422 -1272 
L 422 3319 
L 934 3319 
L 934 2888 
Q 1116 3141 1344 3267 
Q 1572 3394 1897 3394 
Q 2322 3394 2647 3175 
Q 2972 2956 3137 2557 
Q 3303 2159 3303 1684 
Q 3303 1175 3120 767 
Q 2938 359 2589 142 
Q 2241 -75 1856 -75 
Q 1575 -75 1351 44 
Q 1128 163 984 344 
L 984 -1272 
L 422 -1272 
z
M 931 1641 
Q 931 1000 1190 694 
Q 1450 388 1819 388 
Q 2194 388 2461 705 
Q 2728 1022 2728 1688 
Q 2728 2322 2467 2637 
Q 2206 2953 1844 2953 
Q 1484 2953 1207 2617 
Q 931 2281 931 1641 
z
" transform="scale(0.015625)"/>
      </defs>
      <use xlink:href="#ArialMT-31"/>
      <use xlink:href="#ArialMT-52" transform="translate(72.21875 0)"/>
      <use xlink:href="#ArialMT-55" transform="translate(127.828125 0)"/>
      <use xlink:href="#ArialMT-50" transform="translate(161.125 0)"/>
      <use xlink:href="#ArialMT-44" transform="translate(244.421875 0)"/>
      <use xlink:href="#ArialMT-4f" transform="translate(300.03125 0)"/>
      <use xlink:href="#ArialMT-4c" transform="translate(322.25 0)"/>
      <use xlink:href="#ArialMT-5d" transform="translate(344.46875 0)"/>
      <use xlink:href="#ArialMT-48" transform="translate(394.46875 0)"/>
      <use xlink:href="#ArialMT-47" transform="translate(450.078125 0)"/>
      <use xlink:href="#ArialMT-3" transform="translate(505.6875 0)"/>
      <use xlink:href="#ArialMT-55" transform="translate(533.46875 0)"/>
      <use xlink:href="#ArialMT-48" transform="translate(566.765625 0)"/>
      <use xlink:href="#ArialMT-56" transform="translate(622.375 0)"/>
      <use xlink:href="#ArialMT-53" transform="translate(672.375 0)"/>
      <use xlink:href="#ArialMT-52" transform="translate(727.984375 0)"/>
      <use xlink:href="#ArialMT-51" transform="translate(783.59375 0)"/>
      <use xlink:href="#ArialMT-56" transform="translate(839.203125 0)"/>
      <use xlink:href="#ArialMT-48" transform="translate(889.203125 0)"/>
     </g>
    </g>
   </g>
   <g id="LineCollection_1">
    <path d="M 59.221219 173.368053 
L 77.682852 173.368053 
" clip-path="url(#pa7b84c52b5)" style="fill: none; stroke: #0f766e; stroke-width: 1.1"/>
    <path d="M 190.71433 112.702501 
L 209.175963 112.702501 
" clip-path="url(#pa7b84c52b5)" style="fill: none; stroke: #0f766e; stroke-width: 1.1"/>
    <path d="M 322.207441 59.730044 
L 340.669073 59.730044 
" clip-path="url(#pa7b84c52b5)" style="fill: none; stroke: #0f766e; stroke-width: 1.1"/>
   </g>
   <g id="LineCollection_2">
    <path d="M 59.221219 153.146202 
L 77.682852 153.146202 
" clip-path="url(#pa7b84c52b5)" style="fill: none; stroke: #0f766e; stroke-width: 1.1"/>
    <path d="M 190.71433 91.601439 
L 209.175963 91.601439 
" clip-path="url(#pa7b84c52b5)" style="fill: none; stroke: #0f766e; stroke-width: 1.1"/>
    <path d="M 322.207441 38.848786 
L 340.669073 38.848786 
" clip-path="url(#pa7b84c52b5)" style="fill: none; stroke: #0f766e; stroke-width: 1.1"/>
   </g>
   <g id="LineCollection_3">
    <path d="M 59.221219 190.07306 
L 77.682852 190.07306 
" clip-path="url(#pa7b84c52b5)" style="fill: none; stroke: #0f766e; stroke-width: 1.1"/>
    <path d="M 190.71433 132.045141 
L 209.175963 132.045141 
" clip-path="url(#pa7b84c52b5)" style="fill: none; stroke: #0f766e; stroke-width: 1.1"/>
    <path d="M 322.207441 81.050909 
L 340.669073 81.050909 
" clip-path="url(#pa7b84c52b5)" style="fill: none; stroke: #0f766e; stroke-width: 1.1"/>
   </g>
   <g id="LineCollection_4">
    <path d="M 68.452036 190.07306 
L 68.452036 153.146202 
" clip-path="url(#pa7b84c52b5)" style="fill: none; stroke: #0f766e; stroke-width: 1.1"/>
    <path d="M 199.945146 132.045141 
L 199.945146 91.601439 
" clip-path="url(#pa7b84c52b5)" style="fill: none; stroke: #0f766e; stroke-width: 1.1"/>
    <path d="M 331.438257 81.050909 
L 331.438257 38.848786 
" clip-path="url(#pa7b84c52b5)" style="fill: none; stroke: #0f766e; stroke-width: 1.1"/>
   </g>
   <g id="LineCollection_5">
    <path d="M 59.221219 174.247263 
L 77.682852 174.247263 
" clip-path="url(#pa7b84c52b5)" style="fill: none; stroke: #0f766e; stroke-width: 1.1"/>
    <path d="M 190.71433 113.581712 
L 209.175963 113.581712 
" clip-path="url(#pa7b84c52b5)" style="fill: none; stroke: #0f766e; stroke-width: 1.1"/>
    <path d="M 322.207441 59.070636 
L 340.669073 59.070636 
" clip-path="url(#pa7b84c52b5)" style="fill: none; stroke: #0f766e; stroke-width: 1.1"/>
   </g>
   <g id="line2d_21"/>
   <g id="LineCollection_6">
    <path d="M 106.558739 205.239447 
L 125.020372 205.239447 
" clip-path="url(#pa7b84c52b5)" style="fill: none; stroke: #0f766e; stroke-width: 1.1"/>
    <path d="M 238.05185 153.146202 
L 256.513483 153.146202 
" clip-path="url(#pa7b84c52b5)" style="fill: none; stroke: #0f766e; stroke-width: 1.1"/>
    <path d="M 369.544961 106.328222 
L 388.006593 106.328222 
" clip-path="url(#pa7b84c52b5)" style="fill: none; stroke: #0f766e; stroke-width: 1.1"/>
   </g>
   <g id="LineCollection_7">
    <path d="M 106.558739 191.831481 
L 125.020372 191.831481 
" clip-path="url(#pa7b84c52b5)" style="fill: none; stroke: #0f766e; stroke-width: 1.1"/>
    <path d="M 238.05185 137.320406 
L 256.513483 137.320406 
" clip-path="url(#pa7b84c52b5)" style="fill: none; stroke: #0f766e; stroke-width: 1.1"/>
    <path d="M 369.544961 88.084596 
L 388.006593 88.084596 
" clip-path="url(#pa7b84c52b5)" style="fill: none; stroke: #0f766e; stroke-width: 1.1"/>
   </g>
   <g id="LineCollection_8">
    <path d="M 106.558739 219.96623 
L 125.020372 219.96623 
" clip-path="url(#pa7b84c52b5)" style="fill: none; stroke: #0f766e; stroke-width: 1.1"/>
    <path d="M 238.05185 168.971998 
L 256.513483 168.971998 
" clip-path="url(#pa7b84c52b5)" style="fill: none; stroke: #0f766e; stroke-width: 1.1"/>
    <path d="M 369.544961 125.011453 
L 388.006593 125.011453 
" clip-path="url(#pa7b84c52b5)" style="fill: none; stroke: #0f766e; stroke-width: 1.1"/>
   </g>
   <g id="LineCollection_9">
    <path d="M 115.789555 219.96623 
L 115.789555 191.831481 
" clip-path="url(#pa7b84c52b5)" style="fill: none; stroke: #0f766e; stroke-width: 1.1"/>
    <path d="M 247.282666 168.971998 
L 247.282666 137.320406 
" clip-path="url(#pa7b84c52b5)" style="fill: none; stroke: #0f766e; stroke-width: 1.1"/>
    <path d="M 378.775777 125.011453 
L 378.775777 88.084596 
" clip-path="url(#pa7b84c52b5)" style="fill: none; stroke: #0f766e; stroke-width: 1.1"/>
   </g>
   <g id="LineCollection_10">
    <path d="M 106.558739 205.019645 
L 125.020372 205.019645 
" clip-path="url(#pa7b84c52b5)" style="fill: none; stroke: #0f766e; stroke-width: 1.1"/>
    <path d="M 238.05185 153.146202 
L 256.513483 153.146202 
" clip-path="url(#pa7b84c52b5)" style="fill: none; stroke: #0f766e; stroke-width: 1.1"/>
    <path d="M 369.544961 105.668814 
L 388.006593 105.668814 
" clip-path="url(#pa7b84c52b5)" style="fill: none; stroke: #0f766e; stroke-width: 1.1"/>
   </g>
   <g id="line2d_22"/>
   <g id="patch_3">
    <path d="M 32.628053 244.584135 
L 32.628053 15.989302 
" style="fill: none; stroke: #000000; stroke-width: 0.8; stroke-linejoin: miter; stroke-linecap: square"/>
   </g>
   <g id="patch_4">
    <path d="M 414.59976 244.584135 
L 414.59976 15.989302 
" style="fill: none; stroke: #000000; stroke-width: 0.8; stroke-linejoin: miter; stroke-linecap: square"/>
   </g>
   <g id="patch_5">
    <path d="M 32.628053 244.584135 
L 414.59976 244.584135 
" style="fill: none; stroke: #000000; stroke-width: 0.8; stroke-linejoin: miter; stroke-linecap: square"/>
   </g>
   <g id="patch_6">
    <path d="M 32.628053 15.989303 
L 414.59976 15.989303 
" style="fill: none; stroke: #000000; stroke-width: 0.8; stroke-linejoin: miter; stroke-linecap: square"/>
   </g>
   <g id="text_13">
    <!-- Response distributions by condition and genotype -->
    <g transform="translate(117.683906 9.989303) scale(0.096 -0.096)">
     <defs>
      <path id="ArialMT-35" d="M 503 0 
L 503 4581 
L 2534 4581 
Q 3147 4581 3465 4457 
Q 3784 4334 3975 4021 
Q 4166 3709 4166 3331 
Q 4166 2844 3850 2509 
Q 3534 2175 2875 2084 
Q 3116 1969 3241 1856 
Q 3506 1613 3744 1247 
L 4541 0 
L 3778 0 
L 3172 953 
Q 2906 1366 2734 1584 
Q 2563 1803 2427 1890 
Q 2291 1978 2150 2013 
Q 2047 2034 1813 2034 
L 1109 2034 
L 1109 0 
L 503 0 
z
M 1109 2559 
L 2413 2559 
Q 2828 2559 3062 2645 
Q 3297 2731 3419 2920 
Q 3541 3109 3541 3331 
Q 3541 3656 3305 3865 
Q 3069 4075 2559 4075 
L 1109 4075 
L 1109 2559 
z
" transform="scale(0.015625)"/>
      <path id="ArialMT-45" d="M 941 0 
L 419 0 
L 419 4581 
L 981 4581 
L 981 2947 
Q 1338 3394 1891 3394 
Q 2197 3394 2470 3270 
Q 2744 3147 2920 2923 
Q 3097 2700 3197 2384 
Q 3297 2069 3297 1709 
Q 3297 856 2875 390 
Q 2453 -75 1863 -75 
Q 1275 -75 941 416 
L 941 0 
z
M 934 1684 
Q 934 1088 1097 822 
Q 1363 388 1816 388 
Q 2184 388 2453 708 
Q 2722 1028 2722 1663 
Q 2722 2313 2464 2622 
Q 2206 2931 1841 2931 
Q 1472 2931 1203 2611 
Q 934 2291 934 1684 
z
" transform="scale(0.015625)"/>
      <path id="ArialMT-58" d="M 2597 0 
L 2597 488 
Q 2209 -75 1544 -75 
Q 1250 -75 995 37 
Q 741 150 617 320 
Q 494 491 444 738 
Q 409 903 409 1263 
L 409 3319 
L 972 3319 
L 972 1478 
Q 972 1038 1006 884 
Q 1059 663 1231 536 
Q 1403 409 1656 409 
Q 1909 409 2131 539 
Q 2353 669 2445 892 
Q 2538 1116 2538 1541 
L 2538 3319 
L 3100 3319 
L 3100 0 
L 2597 0 
z
" transform="scale(0.015625)"/>
      <path id="ArialMT-5c" d="M 397 -1278 
L 334 -750 
Q 519 -800 656 -800 
Q 844 -800 956 -737 
Q 1069 -675 1141 -563 
Q 1194 -478 1313 -144 
Q 1328 -97 1363 -6 
L 103 3319 
L 709 3319 
L 1400 1397 
Q 1534 1031 1641 628 
Q 1738 1016 1872 1384 
L 2581 3319 
L 3144 3319 
L 1881 -56 
Q 1678 -603 1566 -809 
Q 1416 -1088 1222 -1217 
Q 1028 -1347 759 -1347 
Q 597 -1347 397 -1278 
z
" transform="scale(0.015625)"/>
      <path id="ArialMT-46" d="M 2588 1216 
L 3141 1144 
Q 3050 572 2676 248 
Q 2303 -75 1759 -75 
Q 1078 -75 664 370 
Q 250 816 250 1647 
Q 250 2184 428 2587 
Q 606 2991 970 3192 
Q 1334 3394 1763 3394 
Q 2303 3394 2647 3120 
Q 2991 2847 3088 2344 
L 2541 2259 
Q 2463 2594 2264 2762 
Q 2066 2931 1784 2931 
Q 1359 2931 1093 2626 
Q 828 2322 828 1663 
Q 828 994 1084 691 
Q 1341 388 1753 388 
Q 2084 388 2306 591 
Q 2528 794 2588 1216 
z
" transform="scale(0.015625)"/>
      <path id="ArialMT-4a" d="M 319 -275 
L 866 -356 
Q 900 -609 1056 -725 
Q 1266 -881 1628 -881 
Q 2019 -881 2231 -725 
Q 2444 -569 2519 -288 
Q 2563 -116 2559 434 
Q 2191 0 1641 0 
Q 956 0 581 494 
Q 206 988 206 1678 
Q 206 2153 378 2554 
Q 550 2956 876 3175 
Q 1203 3394 1644 3394 
Q 2231 3394 2613 2919 
L 2613 3319 
L 3131 3319 
L 3131 450 
Q 3131 -325 2973 -648 
Q 2816 -972 2473 -1159 
Q 2131 -1347 1631 -1347 
Q 1038 -1347 672 -1080 
Q 306 -813 319 -275 
z
M 784 1719 
Q 784 1066 1043 766 
Q 1303 466 1694 466 
Q 2081 466 2343 764 
Q 2606 1063 2606 1700 
Q 2606 2309 2336 2618 
Q 2066 2928 1684 2928 
Q 1309 2928 1046 2623 
Q 784 2319 784 1719 
z
" transform="scale(0.015625)"/>
     </defs>
     <use xlink:href="#ArialMT-35"/>
     <use xlink:href="#ArialMT-48" transform="translate(72.21875 0)"/>
     <use xlink:href="#ArialMT-56" transform="translate(127.828125 0)"/>
     <use xlink:href="#ArialMT-53" transform="translate(177.828125 0)"/>
     <use xlink:href="#ArialMT-52" transform="translate(233.4375 0)"/>
     <use xlink:href="#ArialMT-51" transform="translate(289.046875 0)"/>
     <use xlink:href="#ArialMT-56" transform="translate(344.65625 0)"/>
     <use xlink:href="#ArialMT-48" transform="translate(394.65625 0)"/>
     <use xlink:href="#ArialMT-3" transform="translate(450.265625 0)"/>
     <use xlink:href="#ArialMT-47" transform="translate(478.046875 0)"/>
     <use xlink:href="#ArialMT-4c" transform="translate(533.65625 0)"/>
     <use xlink:href="#ArialMT-56" transform="translate(555.875 0)"/>
     <use xlink:href="#ArialMT-57" transform="translate(605.875 0)"/>
     <use xlink:href="#ArialMT-55" transform="translate(633.65625 0)"/>
     <use xlink:href="#ArialMT-4c" transform="translate(666.953125 0)"/>
     <use xlink:href="#ArialMT-45" transform="translate(689.171875 0)"/>
     <use xlink:href="#ArialMT-58" transform="translate(744.78125 0)"/>
     <use xlink:href="#ArialMT-57" transform="translate(800.390625 0)"/>
     <use xlink:href="#ArialMT-4c" transform="translate(828.171875 0)"/>
     <use xlink:href="#ArialMT-52" transform="translate(850.390625 0)"/>
     <use xlink:href="#ArialMT-51" transform="translate(906 0)"/>
     <use xlink:href="#ArialMT-56" transform="translate(961.609375 0)"/>
     <use xlink:href="#ArialMT-3" transform="translate(1011.609375 0)"/>
     <use xlink:href="#ArialMT-45" transform="translate(1039.390625 0)"/>
     <use xlink:href="#ArialMT-5c" transform="translate(1095 0)"/>
     <use xlink:href="#ArialMT-3" transform="translate(1145 0)"/>
     <use xlink:href="#ArialMT-46" transform="translate(1172.78125 0)"/>
     <use xlink:href="#ArialMT-52" transform="translate(1222.78125 0)"/>
     <use xlink:href="#ArialMT-51" transform="translate(1278.390625 0)"/>
     <use xlink:href="#ArialMT-47" transform="translate(1334 0)"/>
     <use xlink:href="#ArialMT-4c" transform="translate(1389.609375 0)"/>
     <use xlink:href="#ArialMT-57" transform="translate(1411.828125 0)"/>
     <use xlink:href="#ArialMT-4c" transform="translate(1439.609375 0)"/>
     <use xlink:href="#ArialMT-52" transform="translate(1461.828125 0)"/>
     <use xlink:href="#ArialMT-51" transform="translate(1517.4375 0)"/>
     <use xlink:href="#ArialMT-3" transform="translate(1573.046875 0)"/>
     <use xlink:href="#ArialMT-44" transform="translate(1600.828125 0)"/>
     <use xlink:href="#ArialMT-51" transform="translate(1656.4375 0)"/>
     <use xlink:href="#ArialMT-47" transform="translate(1712.046875 0)"/>
     <use xlink:href="#ArialMT-3" transform="translate(1767.65625 0)"/>
     <use xlink:href="#ArialMT-4a" transform="translate(1795.4375 0)"/>
     <use xlink:href="#ArialMT-48" transform="translate(1851.046875 0)"/>
     <use xlink:href="#ArialMT-51" transform="translate(1906.65625 0)"/>
     <use xlink:href="#ArialMT-52" transform="translate(1962.265625 0)"/>
     <use xlink:href="#ArialMT-57" transform="translate(2017.875 0)"/>
     <use xlink:href="#ArialMT-5c" transform="translate(2045.65625 0)"/>
     <use xlink:href="#ArialMT-53" transform="translate(2095.65625 0)"/>
     <use xlink:href="#ArialMT-48" transform="translate(2151.265625 0)"/>
    </g>
   </g>
   <g id="legend_1">
    <g id="patch_7">
     <path d="M 38.228053 45.404928 
L 126.526803 45.404928 
Q 128.126802 45.404928 128.126802 43.804928 
L 128.126802 21.589303 
Q 128.126802 19.989303 126.526803 19.989303 
L 38.228053 19.989303 
Q 36.628053 19.989303 36.628053 21.589303 
L 36.628053 43.804928 
Q 36.628053 45.404928 38.228053 45.404928 
z
" style="fill: #ffffff; opacity: 0.8; stroke: #cccccc; stroke-linejoin: miter"/>
    </g>
    <g id="line2d_23">
     <path d="M 39.828053 26.213521 
L 47.828053 26.213521 
L 55.828053 26.213521 
" style="fill: none; stroke: #0f766e; stroke-width: 6; stroke-linecap: square"/>
    </g>
    <g id="text_14">
     <!-- Response WT -->
     <g transform="translate(62.228053 29.013521) scale(0.08 -0.08)">
      <defs>
       <path id="ArialMT-3a" d="M 1294 0 
L 78 4581 
L 700 4581 
L 1397 1578 
Q 1509 1106 1591 641 
Q 1766 1375 1797 1488 
L 2669 4581 
L 3400 4581 
L 4056 2263 
Q 4303 1400 4413 641 
Q 4500 1075 4641 1638 
L 5359 4581 
L 5969 4581 
L 4713 0 
L 4128 0 
L 3163 3491 
Q 3041 3928 3019 4028 
Q 2947 3713 2884 3491 
L 1913 0 
L 1294 0 
z
" transform="scale(0.015625)"/>
       <path id="ArialMT-37" d="M 1659 0 
L 1659 4041 
L 150 4041 
L 150 4581 
L 3781 4581 
L 3781 4041 
L 2266 4041 
L 2266 0 
L 1659 0 
z
" transform="scale(0.015625)"/>
      </defs>
      <use xlink:href="#ArialMT-35"/>
      <use xlink:href="#ArialMT-48" transform="translate(72.21875 0)"/>
      <use xlink:href="#ArialMT-56" transform="translate(127.828125 0)"/>
      <use xlink:href="#ArialMT-53" transform="translate(177.828125 0)"/>
      <use xlink:href="#ArialMT-52" transform="translate(233.4375 0)"/>
      <use xlink:href="#ArialMT-51" transform="translate(289.046875 0)"/>
      <use xlink:href="#ArialMT-56" transform="translate(344.65625 0)"/>
      <use xlink:href="#ArialMT-48" transform="translate(394.65625 0)"/>
      <use xlink:href="#ArialMT-3" transform="translate(450.265625 0)"/>
      <use xlink:href="#ArialMT-3a" transform="translate(478.046875 0)"/>
      <use xlink:href="#ArialMT-37" transform="translate(572.4375 0)"/>
     </g>
    </g>
    <g id="line2d_24">
     <path d="M 39.828053 37.721334 
L 47.828053 37.721334 
L 55.828053 37.721334 
" style="fill: none; stroke: #0f766e; stroke-width: 6; stroke-linecap: square"/>
    </g>
    <g id="text_15">
     <!-- Response Mutant -->
     <g transform="translate(62.228053 40.521334) scale(0.08 -0.08)">
      <defs>
       <path id="ArialMT-30" d="M 475 0 
L 475 4581 
L 1388 4581 
L 2472 1338 
Q 2622 884 2691 659 
Q 2769 909 2934 1394 
L 4031 4581 
L 4847 4581 
L 4847 0 
L 4263 0 
L 4263 3834 
L 2931 0 
L 2384 0 
L 1059 3900 
L 1059 0 
L 475 0 
z
" transform="scale(0.015625)"/>
      </defs>
      <use xlink:href="#ArialMT-35"/>
      <use xlink:href="#ArialMT-48" transform="translate(72.21875 0)"/>
      <use xlink:href="#ArialMT-56" transform="translate(127.828125 0)"/>
      <use xlink:href="#ArialMT-53" transform="translate(177.828125 0)"/>
      <use xlink:href="#ArialMT-52" transform="translate(233.4375 0)"/>
      <use xlink:href="#ArialMT-51" transform="translate(289.046875 0)"/>
      <use xlink:href="#ArialMT-56" transform="translate(344.65625 0)"/>
      <use xlink:href="#ArialMT-48" transform="translate(394.65625 0)"/>
      <use xlink:href="#ArialMT-3" transform="translate(450.265625 0)"/>
      <use xlink:href="#ArialMT-30" transform="translate(478.046875 0)"/>
      <use xlink:href="#ArialMT-58" transform="translate(561.34375 0)"/>
      <use xlink:href="#ArialMT-57" transform="translate(616.953125 0)"/>
      <use xlink:href="#ArialMT-44" transform="translate(644.734375 0)"/>
      <use xlink:href="#ArialMT-51" transform="translate(700.34375 0)"/>
      <use xlink:href="#ArialMT-57" transform="translate(755.953125 0)"/>
     </g>
    </g>
   </g>
  </g>
 </g>
 <defs>
  <clipPath id="pa7b84c52b5">
   <rect x="32.628053" y="15.989303" width="381.971707" height="228.594832"/>
  </clipPath>
 </defs>
</svg>
