<?xml version="1.0" encoding="utf-8" standalone="no"?>
<!DOCTYPE svg PUBLIC "-//W3C//DTD SVG 1.1//EN"
  "http://www.w3.org/Graphics/SVG/1.1/DTD/svg11.dtd">
<svg xmlns:xlink="http://www.w3.org/1999/xlink" width="526.79952pt" height="195.59952pt" viewBox="0 0 526.79952 195.59952" xmlns="http://www.w3.org/2000/svg" version="1.1">
 <metadata>
  <rdf:RDF xmlns:dc="http://purl.org/dc/elements/1.1/" xmlns:cc="http://creativecommons.org/ns#" xmlns:rdf="http://www.w3.org/1999/02/22-rdf-syntax-ns#">
   <cc:Work>
    <dc:type rdf:resource="http://purl.org/dc/dcmitype/StillImage"/>
    <dc:date>2026-06-20T18:30:44.614934</dc:date>
    <dc:format>image/svg+xml</dc:format>
    <dc:creator>
     <cc:Agent>
      <dc:title>Matplotlib v3.11.0, https://matplotlib.org/</dc:title>
     </cc:Agent>
    </dc:creator>
   </cc:Work>
  </rdf:RDF>
 </metadata>
 <defs>
  <style type="text/css">*{stroke-linejoin: round; stroke-linecap: butt}</style>
 </defs>
 <g id="figure_1">
  <g id="patch_1">
   <path d="M 0 195.59952 
L 526.79952 195.59952 
L 526.79952 0 
L 0 0 
z
" style="fill: #ffffff"/>
  </g>
  <g id="axes_1">
   <g id="patch_2">
    <path d="M 41.276719 162.383739 
L 194.383999 162.383739 
L 194.383999 35.199105 
L 41.276719 35.199105 
z
" style="fill: #ffffff"/>
   </g>
   <g id="matplotlib.axis_1">
    <g id="xtick_1">
     <g id="line2d_1">
      <path d="M 48.236141 162.383739 
L 48.236141 35.199105 
" clip-path="url(#p0e51e74c72)" style="fill: none; stroke: #b0b0b0; stroke-opacity: 0.25; stroke-width: 0.8; stroke-linecap: square"/>
     </g>
     <g id="line2d_2">
      <defs>
       <path id="m96f71dc0ba" d="M 0 0 
L 0 3.5 
" style="stroke: #000000; stroke-width: 0.8"/>
      </defs>
      <g>
       <use xlink:href="#m96f71dc0ba" x="48.236141" y="162.383739" style="stroke: #000000; stroke-width: 0.8"/>
      </g>
     </g>
     <g id="text_1">
      <!-- 0 -->
      <g transform="translate(46.011766 175.207957) scale(0.08 -0.08)">
       <defs>
        <path id="ArialMT-13" d="M 266 2259 
Q 266 3072 433 3567 
Q 600 4063 929 4331 
Q 1259 4600 1759 4600 
Q 2128 4600 2406 4451 
Q 2684 4303 2865 4023 
Q 3047 3744 3150 3342 
Q 3253 2941 3253 2259 
Q 3253 1453 3087 958 
Q 2922 463 2592 192 
Q 2263 -78 1759 -78 
Q 1097 -78 719 397 
Q 266 969 266 2259 
z
M 844 2259 
Q 844 1131 1108 757 
Q 1372 384 1759 384 
Q 2147 384 2411 759 
Q 2675 1134 2675 2259 
Q 2675 3391 2411 3762 
Q 2147 4134 1753 4134 
Q 1366 4134 1134 3806 
Q 844 3388 844 2259 
z
" transform="scale(0.015625)"/>
       </defs>
       <use xlink:href="#ArialMT-13"/>
      </g>
     </g>
    </g>
    <g id="xtick_2">
     <g id="line2d_3">
      <path d="M 94.632286 162.383739 
L 94.632286 35.199105 
" clip-path="url(#p0e51e74c72)" style="fill: none; stroke: #b0b0b0; stroke-opacity: 0.25; stroke-width: 0.8; stroke-linecap: square"/>
     </g>
     <g id="line2d_4">
      <g>
       <use xlink:href="#m96f71dc0ba" x="94.632286" y="162.383739" style="stroke: #000000; stroke-width: 0.8"/>
      </g>
     </g>
     <g id="text_2">
      <!-- 2 -->
      <g transform="translate(92.407911 175.207957) scale(0.08 -0.08)">
       <defs>
        <path id="ArialMT-15" d="M 3222 541 
L 3222 0 
L 194 0 
Q 188 203 259 391 
Q 375 700 629 1000 
Q 884 1300 1366 1694 
Q 2113 2306 2375 2664 
Q 2638 3022 2638 3341 
Q 2638 3675 2398 3904 
Q 2159 4134 1775 4134 
Q 1369 4134 1125 3890 
Q 881 3647 878 3216 
L 300 3275 
Q 359 3922 746 4261 
Q 1134 4600 1788 4600 
Q 2447 4600 2831 4234 
Q 3216 3869 3216 3328 
Q 3216 3053 3103 2787 
Q 2991 2522 2730 2228 
Q 2469 1934 1863 1422 
Q 1356 997 1212 845 
Q 1069 694 975 541 
L 3222 541 
z
" transform="scale(0.015625)"/>
       </defs>
       <use xlink:href="#ArialMT-15"/>
      </g>
     </g>
    </g>
    <g id="xtick_3">
     <g id="line2d_5">
      <path d="M 141.028432 162.383739 
L 141.028432 35.199105 
" clip-path="url(#p0e51e74c72)" style="fill: none; stroke: #b0b0b0; stroke-opacity: 0.25; stroke-width: 0.8; stroke-linecap: square"/>
     </g>
     <g id="line2d_6">
      <g>
       <use xlink:href="#m96f71dc0ba" x="141.028432" y="162.383739" style="stroke: #000000; stroke-width: 0.8"/>
      </g>
     </g>
     <g id="text_3">
      <!-- 4 -->
      <g transform="translate(138.804057 175.207957) scale(0.08 -0.08)">
       <defs>
        <path id="ArialMT-17" d="M 2069 0 
L 2069 1097 
L 81 1097 
L 81 1613 
L 2172 4581 
L 2631 4581 
L 2631 1613 
L 3250 1613 
L 3250 1097 
L 2631 1097 
L 2631 0 
L 2069 0 
z
M 2069 1613 
L 2069 3678 
L 634 1613 
L 2069 1613 
z
" transform="scale(0.015625)"/>
       </defs>
       <use xlink:href="#ArialMT-17"/>
      </g>
     </g>
    </g>
    <g id="xtick_4">
     <g id="line2d_7">
      <path d="M 187.424577 162.383739 
L 187.424577 35.199105 
" clip-path="url(#p0e51e74c72)" style="fill: none; stroke: #b0b0b0; stroke-opacity: 0.25; stroke-width: 0.8; stroke-linecap: square"/>
     </g>
     <g id="line2d_8">
      <g>
       <use xlink:href="#m96f71dc0ba" x="187.424577" y="162.383739" style="stroke: #000000; stroke-width: 0.8"/>
      </g>
     </g>
     <g id="text_4">
      <!-- 6 -->
      <g transform="translate(185.200202 175.207957) scale(0.08 -0.08)">
       <defs>
        <path id="ArialMT-19" d="M 3184 3459 
L 2625 3416 
Q 2550 3747 2413 3897 
Q 2184 4138 1850 4138 
Q 1581 4138 1378 3988 
Q 1113 3794 959 3422 
Q 806 3050 800 2363 
Q 1003 2672 1297 2822 
Q 1591 2972 1913 2972 
Q 2475 2972 2870 2558 
Q 3266 2144 3266 1488 
Q 3266 1056 3080 686 
Q 2894 316 2569 119 
Q 2244 -78 1831 -78 
Q 1128 -78 684 439 
Q 241 956 241 2144 
Q 241 3472 731 4075 
Q 1159 4600 1884 4600 
Q 2425 4600 2770 4297 
Q 3116 3994 3184 3459 
z
M 888 1484 
Q 888 1194 1011 928 
Q 1134 663 1356 523 
Q 1578 384 1822 384 
Q 2178 384 2434 671 
Q 2691 959 2691 1453 
Q 2691 1928 2437 2201 
Q 2184 2475 1800 2475 
Q 1419 2475 1153 2201 
Q 888 1928 888 1484 
z
" transform="scale(0.015625)"/>
       </defs>
       <use xlink:href="#ArialMT-19"/>
      </g>
     </g>
    </g>
    <g id="text_5">
     <!-- Time (h) -->
     <g transform="translate(103.090984 186.71577) scale(0.08 -0.08)">
      <defs>
       <path id="ArialMT-37" d="M 1659 0 
L 1659 4041 
L 150 4041 
L 150 4581 
L 3781 4581 
L 3781 4041 
L 2266 4041 
L 2266 0 
L 1659 0 
z
" transform="scale(0.015625)"/>
       <path id="ArialMT-4c" d="M 425 3934 
L 425 4581 
L 988 4581 
L 988 3934 
L 425 3934 
z
M 425 0 
L 425 3319 
L 988 3319 
L 988 0 
L 425 0 
z
" transform="scale(0.015625)"/>
       <path id="ArialMT-50" d="M 422 0 
L 422 3319 
L 925 3319 
L 925 2853 
Q 1081 3097 1340 3245 
Q 1600 3394 1931 3394 
Q 2300 3394 2536 3241 
Q 2772 3088 2869 2813 
Q 3263 3394 3894 3394 
Q 4388 3394 4653 3120 
Q 4919 2847 4919 2278 
L 4919 0 
L 4359 0 
L 4359 2091 
Q 4359 2428 4304 2576 
Q 4250 2725 4106 2815 
Q 3963 2906 3769 2906 
Q 3419 2906 3187 2673 
Q 2956 2441 2956 1928 
L 2956 0 
L 2394 0 
L 2394 2156 
Q 2394 2531 2256 2718 
Q 2119 2906 1806 2906 
Q 1569 2906 1367 2781 
Q 1166 2656 1075 2415 
Q 984 2175 984 1722 
L 984 0 
L 422 0 
z
" transform="scale(0.015625)"/>
       <path id="ArialMT-48" d="M 2694 1069 
L 3275 997 
Q 3138 488 2766 206 
Q 2394 -75 1816 -75 
Q 1088 -75 661 373 
Q 234 822 234 1631 
Q 234 2469 665 2931 
Q 1097 3394 1784 3394 
Q 2450 3394 2872 2941 
Q 3294 2488 3294 1666 
Q 3294 1616 3291 1516 
L 816 1516 
Q 847 969 1125 678 
Q 1403 388 1819 388 
Q 2128 388 2347 550 
Q 2566 713 2694 1069 
z
M 847 1978 
L 2700 1978 
Q 2663 2397 2488 2606 
Q 2219 2931 1791 2931 
Q 1403 2931 1139 2672 
Q 875 2413 847 1978 
z
" transform="scale(0.015625)"/>
       <path id="ArialMT-3" transform="scale(0.015625)"/>
       <path id="ArialMT-b" d="M 1497 -1347 
Q 1031 -759 709 28 
Q 388 816 388 1659 
Q 388 2403 628 3084 
Q 909 3875 1497 4659 
L 1900 4659 
Q 1522 4009 1400 3731 
Q 1209 3300 1100 2831 
Q 966 2247 966 1656 
Q 966 153 1900 -1347 
L 1497 -1347 
z
" transform="scale(0.015625)"/>
       <path id="ArialMT-4b" d="M 422 0 
L 422 4581 
L 984 4581 
L 984 2938 
Q 1378 3394 1978 3394 
Q 2347 3394 2619 3248 
Q 2891 3103 3008 2847 
Q 3125 2591 3125 2103 
L 3125 0 
L 2563 0 
L 2563 2103 
Q 2563 2525 2380 2717 
Q 2197 2909 1863 2909 
Q 1613 2909 1392 2779 
Q 1172 2650 1078 2428 
Q 984 2206 984 1816 
L 984 0 
L 422 0 
z
" transform="scale(0.015625)"/>
       <path id="ArialMT-c" d="M 791 -1347 
L 388 -1347 
Q 1322 153 1322 1656 
Q 1322 2244 1188 2822 
Q 1081 3291 891 3722 
Q 769 4003 388 4659 
L 791 4659 
Q 1378 3875 1659 3084 
Q 1900 2403 1900 1659 
Q 1900 816 1576 28 
Q 1253 -759 791 -1347 
z
" transform="scale(0.015625)"/>
      </defs>
      <use xlink:href="#ArialMT-37"/>
      <use xlink:href="#ArialMT-4c" transform="translate(57.375 0)"/>
      <use xlink:href="#ArialMT-50" transform="translate(79.59375 0)"/>
      <use xlink:href="#ArialMT-48" transform="translate(162.890625 0)"/>
      <use xlink:href="#ArialMT-3" transform="translate(218.5 0)"/>
      <use xlink:href="#ArialMT-b" transform="translate(246.28125 0)"/>
      <use xlink:href="#ArialMT-4b" transform="translate(279.578125 0)"/>
      <use xlink:href="#ArialMT-c" transform="translate(335.1875 0)"/>
     </g>
    </g>
   </g>
   <g id="matplotlib.axis_2">
    <g id="ytick_1">
     <g id="line2d_9">
      <path d="M 41.276719 150.708064 
L 194.383999 150.708064 
" clip-path="url(#p0e51e74c72)" style="fill: none; stroke: #b0b0b0; stroke-opacity: 0.25; stroke-width: 0.8; stroke-linecap: square"/>
     </g>
     <g id="line2d_10">
      <defs>
       <path id="mbf113cc1a5" d="M 0 0 
L -3.5 0 
" style="stroke: #000000; stroke-width: 0.8"/>
      </defs>
      <g>
       <use xlink:href="#mbf113cc1a5" x="41.276719" y="150.708064" style="stroke: #000000; stroke-width: 0.8"/>
      </g>
     </g>
     <g id="text_6">
      <!-- 1.00 -->
      <g transform="translate(18.707969 153.620173) scale(0.08 -0.08)">
       <defs>
        <path id="ArialMT-14" d="M 2384 0 
L 1822 0 
L 1822 3584 
Q 1619 3391 1289 3197 
Q 959 3003 697 2906 
L 697 3450 
Q 1169 3672 1522 3987 
Q 1875 4303 2022 4600 
L 2384 4600 
L 2384 0 
z
" transform="scale(0.015625)"/>
        <path id="ArialMT-11" d="M 581 0 
L 581 641 
L 1222 641 
L 1222 0 
L 581 0 
z
" transform="scale(0.015625)"/>
       </defs>
       <use xlink:href="#ArialMT-14"/>
       <use xlink:href="#ArialMT-11" transform="translate(55.609375 0)"/>
       <use xlink:href="#ArialMT-13" transform="translate(83.390625 0)"/>
       <use xlink:href="#ArialMT-13" transform="translate(139 0)"/>
      </g>
     </g>
    </g>
    <g id="ytick_2">
     <g id="line2d_11">
      <path d="M 41.276719 125.63212 
L 194.383999 125.63212 
" clip-path="url(#p0e51e74c72)" style="fill: none; stroke: #b0b0b0; stroke-opacity: 0.25; stroke-width: 0.8; stroke-linecap: square"/>
     </g>
     <g id="line2d_12">
      <g>
       <use xlink:href="#mbf113cc1a5" x="41.276719" y="125.63212" style="stroke: #000000; stroke-width: 0.8"/>
      </g>
     </g>
     <g id="text_7">
      <!-- 1.25 -->
      <g transform="translate(18.707969 128.544229) scale(0.08 -0.08)">
       <defs>
        <path id="ArialMT-18" d="M 266 1200 
L 856 1250 
Q 922 819 1161 601 
Q 1400 384 1738 384 
Q 2144 384 2425 690 
Q 2706 997 2706 1503 
Q 2706 1984 2436 2262 
Q 2166 2541 1728 2541 
Q 1456 2541 1237 2417 
Q 1019 2294 894 2097 
L 366 2166 
L 809 4519 
L 3088 4519 
L 3088 3981 
L 1259 3981 
L 1013 2750 
Q 1425 3038 1878 3038 
Q 2478 3038 2890 2622 
Q 3303 2206 3303 1553 
Q 3303 931 2941 478 
Q 2500 -78 1738 -78 
Q 1113 -78 717 272 
Q 322 622 266 1200 
z
" transform="scale(0.015625)"/>
       </defs>
       <use xlink:href="#ArialMT-14"/>
       <use xlink:href="#ArialMT-11" transform="translate(55.609375 0)"/>
       <use xlink:href="#ArialMT-15" transform="translate(83.390625 0)"/>
       <use xlink:href="#ArialMT-18" transform="translate(139 0)"/>
      </g>
     </g>
    </g>
    <g id="ytick_3">
     <g id="line2d_13">
      <path d="M 41.276719 100.556176 
L 194.383999 100.556176 
" clip-path="url(#p0e51e74c72)" style="fill: none; stroke: #b0b0b0; stroke-opacity: 0.25; stroke-width: 0.8; stroke-linecap: square"/>
     </g>
     <g id="line2d_14">
      <g>
       <use xlink:href="#mbf113cc1a5" x="41.276719" y="100.556176" style="stroke: #000000; stroke-width: 0.8"/>
      </g>
     </g>
     <g id="text_8">
      <!-- 1.50 -->
      <g transform="translate(18.707969 103.468285) scale(0.08 -0.08)">
       <use xlink:href="#ArialMT-14"/>
       <use xlink:href="#ArialMT-11" transform="translate(55.609375 0)"/>
       <use xlink:href="#ArialMT-18" transform="translate(83.390625 0)"/>
       <use xlink:href="#ArialMT-13" transform="translate(139 0)"/>
      </g>
     </g>
    </g>
    <g id="ytick_4">
     <g id="line2d_15">
      <path d="M 41.276719 75.480232 
L 194.383999 75.480232 
" clip-path="url(#p0e51e74c72)" style="fill: none; stroke: #b0b0b0; stroke-opacity: 0.25; stroke-width: 0.8; stroke-linecap: square"/>
     </g>
     <g id="line2d_16">
      <g>
       <use xlink:href="#mbf113cc1a5" x="41.276719" y="75.480232" style="stroke: #000000; stroke-width: 0.8"/>
      </g>
     </g>
     <g id="text_9">
      <!-- 1.75 -->
      <g transform="translate(18.707969 78.392341) scale(0.08 -0.08)">
       <defs>
        <path id="ArialMT-1a" d="M 303 3981 
L 303 4522 
L 3269 4522 
L 3269 4084 
Q 2831 3619 2401 2847 
Q 1972 2075 1738 1259 
Q 1569 684 1522 0 
L 944 0 
Q 953 541 1156 1306 
Q 1359 2072 1739 2783 
Q 2119 3494 2547 3981 
L 303 3981 
z
" transform="scale(0.015625)"/>
       </defs>
       <use xlink:href="#ArialMT-14"/>
       <use xlink:href="#ArialMT-11" transform="translate(55.609375 0)"/>
       <use xlink:href="#ArialMT-1a" transform="translate(83.390625 0)"/>
       <use xlink:href="#ArialMT-18" transform="translate(139 0)"/>
      </g>
     </g>
    </g>
    <g id="ytick_5">
     <g id="line2d_17">
      <path d="M 41.276719 50.404288 
L 194.383999 50.404288 
" clip-path="url(#p0e51e74c72)" style="fill: none; stroke: #b0b0b0; stroke-opacity: 0.25; stroke-width: 0.8; stroke-linecap: square"/>
     </g>
     <g id="line2d_18">
      <g>
       <use xlink:href="#mbf113cc1a5" x="41.276719" y="50.404288" style="stroke: #000000; stroke-width: 0.8"/>
      </g>
     </g>
     <g id="text_10">
      <!-- 2.00 -->
      <g transform="translate(18.707969 53.316397) scale(0.08 -0.08)">
       <use xlink:href="#ArialMT-15"/>
       <use xlink:href="#ArialMT-11" transform="translate(55.609375 0)"/>
       <use xlink:href="#ArialMT-13" transform="translate(83.390625 0)"/>
       <use xlink:href="#ArialMT-13" transform="translate(139 0)"/>
      </g>
     </g>
    </g>
    <g id="text_11">
     <!-- Response (a.u.) -->
     <g transform="translate(13.024219 127.248297) rotate(-90) scale(0.08 -0.08)">
      <defs>
       <path id="ArialMT-35" d="M 503 0 
L 503 4581 
L 2534 4581 
Q 3147 4581 3465 4457 
Q 3784 4334 3975 4021 
Q 4166 3709 4166 3331 
Q 4166 2844 3850 2509 
Q 3534 2175 2875 2084 
Q 3116 1969 3241 1856 
Q 3506 1613 3744 1247 
L 4541 0 
L 3778 0 
L 3172 953 
Q 2906 1366 2734 1584 
Q 2563 1803 2427 1890 
Q 2291 1978 2150 2013 
Q 2047 2034 1813 2034 
L 1109 2034 
L 1109 0 
L 503 0 
z
M 1109 2559 
L 2413 2559 
Q 2828 2559 3062 2645 
Q 3297 2731 3419 2920 
Q 3541 3109 3541 3331 
Q 3541 3656 3305 3865 
Q 3069 4075 2559 4075 
L 1109 4075 
L 1109 2559 
z
" transform="scale(0.015625)"/>
       <path id="ArialMT-56" d="M 197 991 
L 753 1078 
Q 800 744 1014 566 
Q 1228 388 1613 388 
Q 2000 388 2187 545 
Q 2375 703 2375 916 
Q 2375 1106 2209 1216 
Q 2094 1291 1634 1406 
Q 1016 1563 777 1677 
Q 538 1791 414 1992 
Q 291 2194 291 2438 
Q 291 2659 392 2848 
Q 494 3038 669 3163 
Q 800 3259 1026 3326 
Q 1253 3394 1513 3394 
Q 1903 3394 2198 3281 
Q 2494 3169 2634 2976 
Q 2775 2784 2828 2463 
L 2278 2388 
Q 2241 2644 2061 2787 
Q 1881 2931 1553 2931 
Q 1166 2931 1000 2803 
Q 834 2675 834 2503 
Q 834 2394 903 2306 
Q 972 2216 1119 2156 
Q 1203 2125 1616 2013 
Q 2213 1853 2448 1751 
Q 2684 1650 2818 1456 
Q 2953 1263 2953 975 
Q 2953 694 2789 445 
Q 2625 197 2315 61 
Q 2006 -75 1616 -75 
Q 969 -75 630 194 
Q 291 463 197 991 
z
" transform="scale(0.015625)"/>
       <path id="ArialMT-53" d="M 422 -1272 
L 422 3319 
L 934 3319 
L 934 2888 
Q 1116 3141 1344 3267 
Q 1572 3394 1897 3394 
Q 2322 3394 2647 3175 
Q 2972 2956 3137 2557 
Q 3303 2159 3303 1684 
Q 3303 1175 3120 767 
Q 2938 359 2589 142 
Q 2241 -75 1856 -75 
Q 1575 -75 1351 44 
Q 1128 163 984 344 
L 984 -1272 
L 422 -1272 
z
M 931 1641 
Q 931 1000 1190 694 
Q 1450 388 1819 388 
Q 2194 388 2461 705 
Q 2728 1022 2728 1688 
Q 2728 2322 2467 2637 
Q 2206 2953 1844 2953 
Q 1484 2953 1207 2617 
Q 931 2281 931 1641 
z
" transform="scale(0.015625)"/>
       <path id="ArialMT-52" d="M 213 1659 
Q 213 2581 725 3025 
Q 1153 3394 1769 3394 
Q 2453 3394 2887 2945 
Q 3322 2497 3322 1706 
Q 3322 1066 3130 698 
Q 2938 331 2570 128 
Q 2203 -75 1769 -75 
Q 1072 -75 642 372 
Q 213 819 213 1659 
z
M 791 1659 
Q 791 1022 1069 705 
Q 1347 388 1769 388 
Q 2188 388 2466 706 
Q 2744 1025 2744 1678 
Q 2744 2294 2464 2611 
Q 2184 2928 1769 2928 
Q 1347 2928 1069 2612 
Q 791 2297 791 1659 
z
" transform="scale(0.015625)"/>
       <path id="ArialMT-51" d="M 422 0 
L 422 3319 
L 928 3319 
L 928 2847 
Q 1294 3394 1984 3394 
Q 2284 3394 2536 3286 
Q 2788 3178 2913 3003 
Q 3038 2828 3088 2588 
Q 3119 2431 3119 2041 
L 3119 0 
L 2556 0 
L 2556 2019 
Q 2556 2363 2490 2533 
Q 2425 2703 2258 2804 
Q 2091 2906 1866 2906 
Q 1506 2906 1245 2678 
Q 984 2450 984 1813 
L 984 0 
L 422 0 
z
" transform="scale(0.015625)"/>
       <path id="ArialMT-44" d="M 2588 409 
Q 2275 144 1986 34 
Q 1697 -75 1366 -75 
Q 819 -75 525 192 
Q 231 459 231 875 
Q 231 1119 342 1320 
Q 453 1522 633 1644 
Q 813 1766 1038 1828 
Q 1203 1872 1538 1913 
Q 2219 1994 2541 2106 
Q 2544 2222 2544 2253 
Q 2544 2597 2384 2738 
Q 2169 2928 1744 2928 
Q 1347 2928 1158 2789 
Q 969 2650 878 2297 
L 328 2372 
Q 403 2725 575 2942 
Q 747 3159 1072 3276 
Q 1397 3394 1825 3394 
Q 2250 3394 2515 3294 
Q 2781 3194 2906 3042 
Q 3031 2891 3081 2659 
Q 3109 2516 3109 2141 
L 3109 1391 
Q 3109 606 3145 398 
Q 3181 191 3288 0 
L 2700 0 
Q 2613 175 2588 409 
z
M 2541 1666 
Q 2234 1541 1622 1453 
Q 1275 1403 1131 1340 
Q 988 1278 909 1158 
Q 831 1038 831 891 
Q 831 666 1001 516 
Q 1172 366 1500 366 
Q 1825 366 2078 508 
Q 2331 650 2450 897 
Q 2541 1088 2541 1459 
L 2541 1666 
z
" transform="scale(0.015625)"/>
       <path id="ArialMT-58" d="M 2597 0 
L 2597 488 
Q 2209 -75 1544 -75 
Q 1250 -75 995 37 
Q 741 150 617 320 
Q 494 491 444 738 
Q 409 903 409 1263 
L 409 3319 
L 972 3319 
L 972 1478 
Q 972 1038 1006 884 
Q 1059 663 1231 536 
Q 1403 409 1656 409 
Q 1909 409 2131 539 
Q 2353 669 2445 892 
Q 2538 1116 2538 1541 
L 2538 3319 
L 3100 3319 
L 3100 0 
L 2597 0 
z
" transform="scale(0.015625)"/>
      </defs>
      <use xlink:href="#ArialMT-35"/>
      <use xlink:href="#ArialMT-48" transform="translate(72.21875 0)"/>
      <use xlink:href="#ArialMT-56" transform="translate(127.828125 0)"/>
      <use xlink:href="#ArialMT-53" transform="translate(177.828125 0)"/>
      <use xlink:href="#ArialMT-52" transform="translate(233.4375 0)"/>
      <use xlink:href="#ArialMT-51" transform="translate(289.046875 0)"/>
      <use xlink:href="#ArialMT-56" transform="translate(344.65625 0)"/>
      <use xlink:href="#ArialMT-48" transform="translate(394.65625 0)"/>
      <use xlink:href="#ArialMT-3" transform="translate(450.265625 0)"/>
      <use xlink:href="#ArialMT-b" transform="translate(478.046875 0)"/>
      <use xlink:href="#ArialMT-44" transform="translate(511.34375 0)"/>
      <use xlink:href="#ArialMT-11" transform="translate(566.953125 0)"/>
      <use xlink:href="#ArialMT-58" transform="translate(594.734375 0)"/>
      <use xlink:href="#ArialMT-11" transform="translate(650.34375 0)"/>
      <use xlink:href="#ArialMT-c" transform="translate(678.125 0)"/>
     </g>
    </g>
   </g>
   <g id="LineCollection_1">
    <path d="M 48.236141 152.343877 
L 48.236141 149.170265 
" clip-path="url(#p0e51e74c72)" style="fill: none; stroke: #2563eb; stroke-width: 1.8"/>
    <path d="M 71.434213 146.474862 
L 71.434213 144.176681 
" clip-path="url(#p0e51e74c72)" style="fill: none; stroke: #2563eb; stroke-width: 1.8"/>
    <path d="M 94.632286 140.530079 
L 94.632286 139.073363 
" clip-path="url(#p0e51e74c72)" style="fill: none; stroke: #2563eb; stroke-width: 1.8"/>
    <path d="M 117.830359 142.276197 
L 117.830359 138.918471 
" clip-path="url(#p0e51e74c72)" style="fill: none; stroke: #2563eb; stroke-width: 1.8"/>
    <path d="M 141.028432 136.497956 
L 141.028432 134.034558 
" clip-path="url(#p0e51e74c72)" style="fill: none; stroke: #2563eb; stroke-width: 1.8"/>
    <path d="M 164.226505 130.423755 
L 164.226505 127.287322 
" clip-path="url(#p0e51e74c72)" style="fill: none; stroke: #2563eb; stroke-width: 1.8"/>
    <path d="M 187.424577 128.51401 
L 187.424577 126.595539 
" clip-path="url(#p0e51e74c72)" style="fill: none; stroke: #2563eb; stroke-width: 1.8"/>
   </g>
   <g id="line2d_19">
    <path d="M 41.276719 150.708064 
L 194.383999 150.708064 
" clip-path="url(#p0e51e74c72)" style="fill: none; stroke-dasharray: 3.7,1.6; stroke-dashoffset: 0; stroke: #6b7280; stroke-opacity: 0.75"/>
   </g>
   <g id="line2d_20">
    <path d="M 48.236141 150.757071 
L 71.434213 145.325771 
L 94.632286 139.801721 
L 117.830359 140.597334 
L 141.028432 135.266257 
L 164.226505 128.855539 
L 187.424577 127.554775 
" clip-path="url(#p0e51e74c72)" style="fill: none; stroke: #2563eb; stroke-width: 1.8; stroke-linecap: square"/>
    <defs>
     <path id="mc3423f67a5" d="M 0 3 
C 0.795609 3 1.55874 2.683901 2.12132 2.12132 
C 2.683901 1.55874 3 0.795609 3 0 
C 3 -0.795609 2.683901 -1.55874 2.12132 -2.12132 
C 1.55874 -2.683901 0.795609 -3 0 -3 
C -0.795609 -3 -1.55874 -2.683901 -2.12132 -2.12132 
C -2.683901 -1.55874 -3 -0.795609 -3 0 
C -3 0.795609 -2.683901 1.55874 -2.12132 2.12132 
C -1.55874 2.683901 -0.795609 3 0 3 
z
" style="stroke: #2563eb"/>
    </defs>
    <g clip-path="url(#p0e51e74c72)">
     <use xlink:href="#mc3423f67a5" x="48.236141" y="150.757071" style="fill: #2563eb; stroke: #2563eb"/>
     <use xlink:href="#mc3423f67a5" x="71.434213" y="145.325771" style="fill: #2563eb; stroke: #2563eb"/>
     <use xlink:href="#mc3423f67a5" x="94.632286" y="139.801721" style="fill: #2563eb; stroke: #2563eb"/>
     <use xlink:href="#mc3423f67a5" x="117.830359" y="140.597334" style="fill: #2563eb; stroke: #2563eb"/>
     <use xlink:href="#mc3423f67a5" x="141.028432" y="135.266257" style="fill: #2563eb; stroke: #2563eb"/>
     <use xlink:href="#mc3423f67a5" x="164.226505" y="128.855539" style="fill: #2563eb; stroke: #2563eb"/>
     <use xlink:href="#mc3423f67a5" x="187.424577" y="127.554775" style="fill: #2563eb; stroke: #2563eb"/>
    </g>
   </g>
   <g id="patch_3">
    <path d="M 41.276719 162.383739 
L 41.276719 35.199105 
" style="fill: none; stroke: #000000; stroke-width: 0.8; stroke-linejoin: miter; stroke-linecap: square"/>
   </g>
   <g id="patch_4">
    <path d="M 194.383999 162.383739 
L 194.383999 35.199105 
" style="fill: none; stroke: #000000; stroke-width: 0.8; stroke-linejoin: miter; stroke-linecap: square"/>
   </g>
   <g id="patch_5">
    <path d="M 41.276719 162.383739 
L 194.383999 162.383739 
" style="fill: none; stroke: #000000; stroke-width: 0.8; stroke-linejoin: miter; stroke-linecap: square"/>
   </g>
   <g id="patch_6">
    <path d="M 41.276719 35.199105 
L 194.383999 35.199105 
" style="fill: none; stroke: #000000; stroke-width: 0.8; stroke-linejoin: miter; stroke-linecap: square"/>
   </g>
   <g id="text_12">
    <!-- Control -->
    <g transform="translate(102.357859 29.199105) scale(0.096 -0.096)">
     <defs>
      <path id="ArialMT-26" d="M 3763 1606 
L 4369 1453 
Q 4178 706 3683 314 
Q 3188 -78 2472 -78 
Q 1731 -78 1267 223 
Q 803 525 561 1097 
Q 319 1669 319 2325 
Q 319 3041 592 3573 
Q 866 4106 1370 4382 
Q 1875 4659 2481 4659 
Q 3169 4659 3637 4309 
Q 4106 3959 4291 3325 
L 3694 3184 
Q 3534 3684 3231 3912 
Q 2928 4141 2469 4141 
Q 1941 4141 1586 3887 
Q 1231 3634 1087 3207 
Q 944 2781 944 2328 
Q 944 1744 1114 1308 
Q 1284 872 1643 656 
Q 2003 441 2422 441 
Q 2931 441 3284 734 
Q 3638 1028 3763 1606 
z
" transform="scale(0.015625)"/>
      <path id="ArialMT-57" d="M 1650 503 
L 1731 6 
Q 1494 -44 1306 -44 
Q 1000 -44 831 53 
Q 663 150 594 308 
Q 525 466 525 972 
L 525 2881 
L 113 2881 
L 113 3319 
L 525 3319 
L 525 4141 
L 1084 4478 
L 1084 3319 
L 1650 3319 
L 1650 2881 
L 1084 2881 
L 1084 941 
Q 1084 700 1114 631 
Q 1144 563 1211 522 
Q 1278 481 1403 481 
Q 1497 481 1650 503 
z
" transform="scale(0.015625)"/>
      <path id="ArialMT-55" d="M 416 0 
L 416 3319 
L 922 3319 
L 922 2816 
Q 1116 3169 1280 3281 
Q 1444 3394 1641 3394 
Q 1925 3394 2219 3213 
L 2025 2691 
Q 1819 2813 1613 2813 
Q 1428 2813 1281 2702 
Q 1134 2591 1072 2394 
Q 978 2094 978 1738 
L 978 0 
L 416 0 
z
" transform="scale(0.015625)"/>
      <path id="ArialMT-4f" d="M 409 0 
L 409 4581 
L 972 4581 
L 972 0 
L 409 0 
z
" transform="scale(0.015625)"/>
     </defs>
     <use xlink:href="#ArialMT-26"/>
     <use xlink:href="#ArialMT-52" transform="translate(72.21875 0)"/>
     <use xlink:href="#ArialMT-51" transform="translate(127.828125 0)"/>
     <use xlink:href="#ArialMT-57" transform="translate(183.4375 0)"/>
     <use xlink:href="#ArialMT-55" transform="translate(211.21875 0)"/>
     <use xlink:href="#ArialMT-52" transform="translate(244.515625 0)"/>
     <use xlink:href="#ArialMT-4f" transform="translate(300.125 0)"/>
    </g>
   </g>
   <g id="legend_1">
    <g id="patch_7">
     <path d="M 111.833999 64.61473 
L 188.783999 64.61473 
Q 190.383999 64.61473 190.383999 63.01473 
L 190.383999 40.799105 
Q 190.383999 39.199105 188.783999 39.199105 
L 111.833999 39.199105 
Q 110.233999 39.199105 110.233999 40.799105 
L 110.233999 63.01473 
Q 110.233999 64.61473 111.833999 64.61473 
z
" style="fill: #ffffff; opacity: 0.8; stroke: #cccccc; stroke-linejoin: miter"/>
    </g>
    <g id="line2d_21">
     <path d="M 113.433999 45.423324 
L 121.433999 45.423324 
L 129.433999 45.423324 
" style="fill: none; stroke-dasharray: 3.7,1.6; stroke-dashoffset: 0; stroke: #6b7280; stroke-opacity: 0.75"/>
    </g>
    <g id="text_13">
     <!-- Baseline -->
     <g transform="translate(135.833999 48.223324) scale(0.08 -0.08)">
      <defs>
       <path id="ArialMT-25" d="M 469 0 
L 469 4581 
L 2188 4581 
Q 2713 4581 3030 4442 
Q 3347 4303 3526 4014 
Q 3706 3725 3706 3409 
Q 3706 3116 3547 2856 
Q 3388 2597 3066 2438 
Q 3481 2316 3704 2022 
Q 3928 1728 3928 1328 
Q 3928 1006 3792 729 
Q 3656 453 3456 303 
Q 3256 153 2954 76 
Q 2653 0 2216 0 
L 469 0 
z
M 1075 2656 
L 2066 2656 
Q 2469 2656 2644 2709 
Q 2875 2778 2992 2937 
Q 3109 3097 3109 3338 
Q 3109 3566 3000 3739 
Q 2891 3913 2687 3977 
Q 2484 4041 1991 4041 
L 1075 4041 
L 1075 2656 
z
M 1075 541 
L 2216 541 
Q 2509 541 2628 563 
Q 2838 600 2978 687 
Q 3119 775 3209 942 
Q 3300 1109 3300 1328 
Q 3300 1584 3169 1773 
Q 3038 1963 2805 2039 
Q 2572 2116 2134 2116 
L 1075 2116 
L 1075 541 
z
" transform="scale(0.015625)"/>
      </defs>
      <use xlink:href="#ArialMT-25"/>
      <use xlink:href="#ArialMT-44" transform="translate(66.703125 0)"/>
      <use xlink:href="#ArialMT-56" transform="translate(122.3125 0)"/>
      <use xlink:href="#ArialMT-48" transform="translate(172.3125 0)"/>
      <use xlink:href="#ArialMT-4f" transform="translate(227.921875 0)"/>
      <use xlink:href="#ArialMT-4c" transform="translate(250.140625 0)"/>
      <use xlink:href="#ArialMT-51" transform="translate(272.359375 0)"/>
      <use xlink:href="#ArialMT-48" transform="translate(327.96875 0)"/>
     </g>
    </g>
    <g id="LineCollection_2">
     <path d="M 121.433999 60.931136 
L 121.433999 52.931136 
" style="fill: none; stroke: #2563eb; stroke-width: 1.8"/>
    </g>
    <g id="line2d_22">
     <path d="M 113.433999 56.931136 
L 129.433999 56.931136 
" style="fill: none; stroke: #2563eb; stroke-width: 1.8; stroke-linecap: square"/>
    </g>
    <g id="line2d_23">
     <g>
      <use xlink:href="#mc3423f67a5" x="121.433999" y="56.931136" style="fill: #2563eb; stroke: #2563eb"/>
     </g>
    </g>
    <g id="text_14">
     <!-- Mean +/- SEM -->
     <g transform="translate(135.833999 59.731136) scale(0.08 -0.08)">
      <defs>
       <path id="ArialMT-30" d="M 475 0 
L 475 4581 
L 1388 4581 
L 2472 1338 
Q 2622 884 2691 659 
Q 2769 909 2934 1394 
L 4031 4581 
L 4847 4581 
L 4847 0 
L 4263 0 
L 4263 3834 
L 2931 0 
L 2384 0 
L 1059 3900 
L 1059 0 
L 475 0 
z
" transform="scale(0.015625)"/>
       <path id="ArialMT-e" d="M 1603 741 
L 1603 1997 
L 356 1997 
L 356 2522 
L 1603 2522 
L 1603 3769 
L 2134 3769 
L 2134 2522 
L 3381 2522 
L 3381 1997 
L 2134 1997 
L 2134 741 
L 1603 741 
z
" transform="scale(0.015625)"/>
       <path id="ArialMT-12" d="M 0 -78 
L 1328 4659 
L 1778 4659 
L 453 -78 
L 0 -78 
z
" transform="scale(0.015625)"/>
       <path id="ArialMT-10" d="M 203 1375 
L 203 1941 
L 1931 1941 
L 1931 1375 
L 203 1375 
z
" transform="scale(0.015625)"/>
       <path id="ArialMT-36" d="M 288 1472 
L 859 1522 
Q 900 1178 1048 958 
Q 1197 738 1509 602 
Q 1822 466 2213 466 
Q 2559 466 2825 569 
Q 3091 672 3220 851 
Q 3350 1031 3350 1244 
Q 3350 1459 3225 1620 
Q 3100 1781 2813 1891 
Q 2628 1963 1997 2114 
Q 1366 2266 1113 2400 
Q 784 2572 623 2826 
Q 463 3081 463 3397 
Q 463 3744 659 4045 
Q 856 4347 1234 4503 
Q 1613 4659 2075 4659 
Q 2584 4659 2973 4495 
Q 3363 4331 3572 4012 
Q 3781 3694 3797 3291 
L 3216 3247 
Q 3169 3681 2898 3903 
Q 2628 4125 2100 4125 
Q 1550 4125 1298 3923 
Q 1047 3722 1047 3438 
Q 1047 3191 1225 3031 
Q 1400 2872 2139 2705 
Q 2878 2538 3153 2413 
Q 3553 2228 3743 1945 
Q 3934 1663 3934 1294 
Q 3934 928 3725 604 
Q 3516 281 3123 101 
Q 2731 -78 2241 -78 
Q 1619 -78 1198 103 
Q 778 284 539 648 
Q 300 1013 288 1472 
z
" transform="scale(0.015625)"/>
       <path id="ArialMT-28" d="M 506 0 
L 506 4581 
L 3819 4581 
L 3819 4041 
L 1113 4041 
L 1113 2638 
L 3647 2638 
L 3647 2100 
L 1113 2100 
L 1113 541 
L 3925 541 
L 3925 0 
L 506 0 
z
" transform="scale(0.015625)"/>
      </defs>
      <use xlink:href="#ArialMT-30"/>
      <use xlink:href="#ArialMT-48" transform="translate(83.296875 0)"/>
      <use xlink:href="#ArialMT-44" transform="translate(138.90625 0)"/>
      <use xlink:href="#ArialMT-51" transform="translate(194.515625 0)"/>
      <use xlink:href="#ArialMT-3" transform="translate(250.125 0)"/>
      <use xlink:href="#ArialMT-e" transform="translate(277.90625 0)"/>
      <use xlink:href="#ArialMT-12" transform="translate(336.3125 0)"/>
      <use xlink:href="#ArialMT-10" transform="translate(364.09375 0)"/>
      <use xlink:href="#ArialMT-3" transform="translate(397.390625 0)"/>
      <use xlink:href="#ArialMT-36" transform="translate(425.171875 0)"/>
      <use xlink:href="#ArialMT-28" transform="translate(491.875 0)"/>
      <use xlink:href="#ArialMT-30" transform="translate(558.578125 0)"/>
     </g>
    </g>
   </g>
  </g>
  <g id="axes_2">
   <g id="patch_8">
    <path d="M 203.884479 162.383739 
L 356.99176 162.383739 
L 356.99176 35.199105 
L 203.884479 35.199105 
z
" style="fill: #ffffff"/>
   </g>
   <g id="matplotlib.axis_3">
    <g id="xtick_5">
     <g id="line2d_24">
      <path d="M 210.843901 162.383739 
L 210.843901 35.199105 
" clip-path="url(#p9ce231e07f)" style="fill: none; stroke: #b0b0b0; stroke-opacity: 0.25; stroke-width: 0.8; stroke-linecap: square"/>
     </g>
     <g id="line2d_25">
      <g>
       <use xlink:href="#m96f71dc0ba" x="210.843901" y="162.383739" style="stroke: #000000; stroke-width: 0.8"/>
      </g>
     </g>
     <g id="text_15">
      <!-- 0 -->
      <g transform="translate(208.619526 175.207957) scale(0.08 -0.08)">
       <use xlink:href="#ArialMT-13"/>
      </g>
     </g>
    </g>
    <g id="xtick_6">
     <g id="line2d_26">
      <path d="M 257.240047 162.383739 
L 257.240047 35.199105 
" clip-path="url(#p9ce231e07f)" style="fill: none; stroke: #b0b0b0; stroke-opacity: 0.25; stroke-width: 0.8; stroke-linecap: square"/>
     </g>
     <g id="line2d_27">
      <g>
       <use xlink:href="#m96f71dc0ba" x="257.240047" y="162.383739" style="stroke: #000000; stroke-width: 0.8"/>
      </g>
     </g>
     <g id="text_16">
      <!-- 2 -->
      <g transform="translate(255.015672 175.207957) scale(0.08 -0.08)">
       <use xlink:href="#ArialMT-15"/>
      </g>
     </g>
    </g>
    <g id="xtick_7">
     <g id="line2d_28">
      <path d="M 303.636192 162.383739 
L 303.636192 35.199105 
" clip-path="url(#p9ce231e07f)" style="fill: none; stroke: #b0b0b0; stroke-opacity: 0.25; stroke-width: 0.8; stroke-linecap: square"/>
     </g>
     <g id="line2d_29">
      <g>
       <use xlink:href="#m96f71dc0ba" x="303.636192" y="162.383739" style="stroke: #000000; stroke-width: 0.8"/>
      </g>
     </g>
     <g id="text_17">
      <!-- 4 -->
      <g transform="translate(301.411817 175.207957) scale(0.08 -0.08)">
       <use xlink:href="#ArialMT-17"/>
      </g>
     </g>
    </g>
    <g id="xtick_8">
     <g id="line2d_30">
      <path d="M 350.032338 162.383739 
L 350.032338 35.199105 
" clip-path="url(#p9ce231e07f)" style="fill: none; stroke: #b0b0b0; stroke-opacity: 0.25; stroke-width: 0.8; stroke-linecap: square"/>
     </g>
     <g id="line2d_31">
      <g>
       <use xlink:href="#m96f71dc0ba" x="350.032338" y="162.383739" style="stroke: #000000; stroke-width: 0.8"/>
      </g>
     </g>
     <g id="text_18">
      <!-- 6 -->
      <g transform="translate(347.807963 175.207957) scale(0.08 -0.08)">
       <use xlink:href="#ArialMT-19"/>
      </g>
     </g>
    </g>
    <g id="text_19">
     <!-- Time (h) -->
     <g transform="translate(265.698744 186.71577) scale(0.08 -0.08)">
      <use xlink:href="#ArialMT-37"/>
      <use xlink:href="#ArialMT-4c" transform="translate(57.375 0)"/>
      <use xlink:href="#ArialMT-50" transform="translate(79.59375 0)"/>
      <use xlink:href="#ArialMT-48" transform="translate(162.890625 0)"/>
      <use xlink:href="#ArialMT-3" transform="translate(218.5 0)"/>
      <use xlink:href="#ArialMT-b" transform="translate(246.28125 0)"/>
      <use xlink:href="#ArialMT-4b" transform="translate(279.578125 0)"/>
      <use xlink:href="#ArialMT-c" transform="translate(335.1875 0)"/>
     </g>
    </g>
   </g>
   <g id="matplotlib.axis_4">
    <g id="ytick_6">
     <g id="line2d_32">
      <path d="M 203.884479 150.708064 
L 356.99176 150.708064 
" clip-path="url(#p9ce231e07f)" style="fill: none; stroke: #b0b0b0; stroke-opacity: 0.25; stroke-width: 0.8; stroke-linecap: square"/>
     </g>
     <g id="line2d_33">
      <g>
       <use xlink:href="#mbf113cc1a5" x="203.884479" y="150.708064" style="stroke: #000000; stroke-width: 0.8"/>
      </g>
     </g>
    </g>
    <g id="ytick_7">
     <g id="line2d_34">
      <path d="M 203.884479 125.63212 
L 356.99176 125.63212 
" clip-path="url(#p9ce231e07f)" style="fill: none; stroke: #b0b0b0; stroke-opacity: 0.25; stroke-width: 0.8; stroke-linecap: square"/>
     </g>
     <g id="line2d_35">
      <g>
       <use xlink:href="#mbf113cc1a5" x="203.884479" y="125.63212" style="stroke: #000000; stroke-width: 0.8"/>
      </g>
     </g>
    </g>
    <g id="ytick_8">
     <g id="line2d_36">
      <path d="M 203.884479 100.556176 
L 356.99176 100.556176 
" clip-path="url(#p9ce231e07f)" style="fill: none; stroke: #b0b0b0; stroke-opacity: 0.25; stroke-width: 0.8; stroke-linecap: square"/>
     </g>
     <g id="line2d_37">
      <g>
       <use xlink:href="#mbf113cc1a5" x="203.884479" y="100.556176" style="stroke: #000000; stroke-width: 0.8"/>
      </g>
     </g>
    </g>
    <g id="ytick_9">
     <g id="line2d_38">
      <path d="M 203.884479 75.480232 
L 356.99176 75.480232 
" clip-path="url(#p9ce231e07f)" style="fill: none; stroke: #b0b0b0; stroke-opacity: 0.25; stroke-width: 0.8; stroke-linecap: square"/>
     </g>
     <g id="line2d_39">
      <g>
       <use xlink:href="#mbf113cc1a5" x="203.884479" y="75.480232" style="stroke: #000000; stroke-width: 0.8"/>
      </g>
     </g>
    </g>
    <g id="ytick_10">
     <g id="line2d_40">
      <path d="M 203.884479 50.404288 
L 356.99176 50.404288 
" clip-path="url(#p9ce231e07f)" style="fill: none; stroke: #b0b0b0; stroke-opacity: 0.25; stroke-width: 0.8; stroke-linecap: square"/>
     </g>
     <g id="line2d_41">
      <g>
       <use xlink:href="#mbf113cc1a5" x="203.884479" y="50.404288" style="stroke: #000000; stroke-width: 0.8"/>
      </g>
     </g>
    </g>
   </g>
   <g id="LineCollection_3">
    <path d="M 210.843901 156.602619 
L 210.843901 153.113867 
" clip-path="url(#p9ce231e07f)" style="fill: none; stroke: #0f766e; stroke-width: 1.8"/>
    <path d="M 234.041974 133.930357 
L 234.041974 130.113857 
" clip-path="url(#p9ce231e07f)" style="fill: none; stroke: #0f766e; stroke-width: 1.8"/>
    <path d="M 257.240047 119.281101 
L 257.240047 114.521353 
" clip-path="url(#p9ce231e07f)" style="fill: none; stroke: #0f766e; stroke-width: 1.8"/>
    <path d="M 280.438119 107.401748 
L 280.438119 105.204672 
" clip-path="url(#p9ce231e07f)" style="fill: none; stroke: #0f766e; stroke-width: 1.8"/>
    <path d="M 303.636192 100.412999 
L 303.636192 97.613193 
" clip-path="url(#p9ce231e07f)" style="fill: none; stroke: #0f766e; stroke-width: 1.8"/>
    <path d="M 326.834265 95.84729 
L 326.834265 92.373313 
" clip-path="url(#p9ce231e07f)" style="fill: none; stroke: #0f766e; stroke-width: 1.8"/>
    <path d="M 350.032338 90.783201 
L 350.032338 87.602282 
" clip-path="url(#p9ce231e07f)" style="fill: none; stroke: #0f766e; stroke-width: 1.8"/>
   </g>
   <g id="line2d_42">
    <path d="M 203.884479 150.708064 
L 356.99176 150.708064 
" clip-path="url(#p9ce231e07f)" style="fill: none; stroke-dasharray: 3.7,1.6; stroke-dashoffset: 0; stroke: #6b7280; stroke-opacity: 0.75"/>
   </g>
   <g id="line2d_43">
    <path d="M 210.843901 154.858243 
L 234.041974 132.022107 
L 257.240047 116.901227 
L 280.438119 106.30321 
L 303.636192 99.013096 
L 326.834265 94.110301 
L 350.032338 89.192742 
" clip-path="url(#p9ce231e07f)" style="fill: none; stroke: #0f766e; stroke-width: 1.8; stroke-linecap: square"/>
    <defs>
     <path id="mbf9f289e2a" d="M 0 3 
C 0.795609 3 1.55874 2.683901 2.12132 2.12132 
C 2.683901 1.55874 3 0.795609 3 0 
C 3 -0.795609 2.683901 -1.55874 2.12132 -2.12132 
C 1.55874 -2.683901 0.795609 -3 0 -3 
C -0.795609 -3 -1.55874 -2.683901 -2.12132 -2.12132 
C -2.683901 -1.55874 -3 -0.795609 -3 0 
C -3 0.795609 -2.683901 1.55874 -2.12132 2.12132 
C -1.55874 2.683901 -0.795609 3 0 3 
z
" style="stroke: #0f766e"/>
    </defs>
    <g clip-path="url(#p9ce231e07f)">
     <use xlink:href="#mbf9f289e2a" x="210.843901" y="154.858243" style="fill: #0f766e; stroke: #0f766e"/>
     <use xlink:href="#mbf9f289e2a" x="234.041974" y="132.022107" style="fill: #0f766e; stroke: #0f766e"/>
     <use xlink:href="#mbf9f289e2a" x="257.240047" y="116.901227" style="fill: #0f766e; stroke: #0f766e"/>
     <use xlink:href="#mbf9f289e2a" x="280.438119" y="106.30321" style="fill: #0f766e; stroke: #0f766e"/>
     <use xlink:href="#mbf9f289e2a" x="303.636192" y="99.013096" style="fill: #0f766e; stroke: #0f766e"/>
     <use xlink:href="#mbf9f289e2a" x="326.834265" y="94.110301" style="fill: #0f766e; stroke: #0f766e"/>
     <use xlink:href="#mbf9f289e2a" x="350.032338" y="89.192742" style="fill: #0f766e; stroke: #0f766e"/>
    </g>
   </g>
   <g id="patch_9">
    <path d="M 203.884479 162.383739 
L 203.884479 35.199105 
" style="fill: none; stroke: #000000; stroke-width: 0.8; stroke-linejoin: miter; stroke-linecap: square"/>
   </g>
   <g id="patch_10">
    <path d="M 356.99176 162.383739 
L 356.99176 35.199105 
" style="fill: none; stroke: #000000; stroke-width: 0.8; stroke-linejoin: miter; stroke-linecap: square"/>
   </g>
   <g id="patch_11">
    <path d="M 203.884479 162.383739 
L 356.99176 162.383739 
" style="fill: none; stroke: #000000; stroke-width: 0.8; stroke-linejoin: miter; stroke-linecap: square"/>
   </g>
   <g id="patch_12">
    <path d="M 203.884479 35.199105 
L 356.99176 35.199105 
" style="fill: none; stroke: #000000; stroke-width: 0.8; stroke-linejoin: miter; stroke-linecap: square"/>
   </g>
   <g id="text_20">
    <!-- Low dose -->
    <g transform="translate(259.891869 29.199105) scale(0.096 -0.096)">
     <defs>
      <path id="ArialMT-2f" d="M 469 0 
L 469 4581 
L 1075 4581 
L 1075 541 
L 3331 541 
L 3331 0 
L 469 0 
z
" transform="scale(0.015625)"/>
      <path id="ArialMT-5a" d="M 1034 0 
L 19 3319 
L 600 3319 
L 1128 1403 
L 1325 691 
Q 1338 744 1497 1375 
L 2025 3319 
L 2603 3319 
L 3100 1394 
L 3266 759 
L 3456 1400 
L 4025 3319 
L 4572 3319 
L 3534 0 
L 2950 0 
L 2422 1988 
L 2294 2553 
L 1622 0 
L 1034 0 
z
" transform="scale(0.015625)"/>
      <path id="ArialMT-47" d="M 2575 0 
L 2575 419 
Q 2259 -75 1647 -75 
Q 1250 -75 917 144 
Q 584 363 401 755 
Q 219 1147 219 1656 
Q 219 2153 384 2558 
Q 550 2963 881 3178 
Q 1213 3394 1622 3394 
Q 1922 3394 2156 3267 
Q 2391 3141 2538 2938 
L 2538 4581 
L 3097 4581 
L 3097 0 
L 2575 0 
z
M 797 1656 
Q 797 1019 1065 703 
Q 1334 388 1700 388 
Q 2069 388 2326 689 
Q 2584 991 2584 1609 
Q 2584 2291 2321 2609 
Q 2059 2928 1675 2928 
Q 1300 2928 1048 2622 
Q 797 2316 797 1656 
z
" transform="scale(0.015625)"/>
     </defs>
     <use xlink:href="#ArialMT-2f"/>
     <use xlink:href="#ArialMT-52" transform="translate(55.609375 0)"/>
     <use xlink:href="#ArialMT-5a" transform="translate(111.21875 0)"/>
     <use xlink:href="#ArialMT-3" transform="translate(183.4375 0)"/>
     <use xlink:href="#ArialMT-47" transform="translate(211.21875 0)"/>
     <use xlink:href="#ArialMT-52" transform="translate(266.828125 0)"/>
     <use xlink:href="#ArialMT-56" transform="translate(322.4375 0)"/>
     <use xlink:href="#ArialMT-48" transform="translate(372.4375 0)"/>
    </g>
   </g>
   <g id="legend_2">
    <g id="patch_13">
     <path d="M 274.44176 64.61473 
L 351.39176 64.61473 
Q 352.99176 64.61473 352.99176 63.01473 
L 352.99176 40.799105 
Q 352.99176 39.199105 351.39176 39.199105 
L 274.44176 39.199105 
Q 272.84176 39.199105 272.84176 40.799105 
L 272.84176 63.01473 
Q 272.84176 64.61473 274.44176 64.61473 
z
" style="fill: #ffffff; opacity: 0.8; stroke: #cccccc; stroke-linejoin: miter"/>
    </g>
    <g id="line2d_44">
     <path d="M 276.04176 45.423324 
L 284.04176 45.423324 
L 292.04176 45.423324 
" style="fill: none; stroke-dasharray: 3.7,1.6; stroke-dashoffset: 0; stroke: #6b7280; stroke-opacity: 0.75"/>
    </g>
    <g id="text_21">
     <!-- Baseline -->
     <g transform="translate(298.44176 48.223324) scale(0.08 -0.08)">
      <use xlink:href="#ArialMT-25"/>
      <use xlink:href="#ArialMT-44" transform="translate(66.703125 0)"/>
      <use xlink:href="#ArialMT-56" transform="translate(122.3125 0)"/>
      <use xlink:href="#ArialMT-48" transform="translate(172.3125 0)"/>
      <use xlink:href="#ArialMT-4f" transform="translate(227.921875 0)"/>
      <use xlink:href="#ArialMT-4c" transform="translate(250.140625 0)"/>
      <use xlink:href="#ArialMT-51" transform="translate(272.359375 0)"/>
      <use xlink:href="#ArialMT-48" transform="translate(327.96875 0)"/>
     </g>
    </g>
    <g id="LineCollection_4">
     <path d="M 284.04176 60.931136 
L 284.04176 52.931136 
" style="fill: none; stroke: #0f766e; stroke-width: 1.8"/>
    </g>
    <g id="line2d_45">
     <path d="M 276.04176 56.931136 
L 292.04176 56.931136 
" style="fill: none; stroke: #0f766e; stroke-width: 1.8; stroke-linecap: square"/>
    </g>
    <g id="line2d_46">
     <g>
      <use xlink:href="#mbf9f289e2a" x="284.04176" y="56.931136" style="fill: #0f766e; stroke: #0f766e"/>
     </g>
    </g>
    <g id="text_22">
     <!-- Mean +/- SEM -->
     <g transform="translate(298.44176 59.731136) scale(0.08 -0.08)">
      <use xlink:href="#ArialMT-30"/>
      <use xlink:href="#ArialMT-48" transform="translate(83.296875 0)"/>
      <use xlink:href="#ArialMT-44" transform="translate(138.90625 0)"/>
      <use xlink:href="#ArialMT-51" transform="translate(194.515625 0)"/>
      <use xlink:href="#ArialMT-3" transform="translate(250.125 0)"/>
      <use xlink:href="#ArialMT-e" transform="translate(277.90625 0)"/>
      <use xlink:href="#ArialMT-12" transform="translate(336.3125 0)"/>
      <use xlink:href="#ArialMT-10" transform="translate(364.09375 0)"/>
      <use xlink:href="#ArialMT-3" transform="translate(397.390625 0)"/>
      <use xlink:href="#ArialMT-36" transform="translate(425.171875 0)"/>
      <use xlink:href="#ArialMT-28" transform="translate(491.875 0)"/>
      <use xlink:href="#ArialMT-30" transform="translate(558.578125 0)"/>
     </g>
    </g>
   </g>
  </g>
  <g id="axes_3">
   <g id="patch_14">
    <path d="M 366.49224 162.383739 
L 519.59952 162.383739 
L 519.59952 35.199105 
L 366.49224 35.199105 
z
" style="fill: #ffffff"/>
   </g>
   <g id="matplotlib.axis_5">
    <g id="xtick_9">
     <g id="line2d_47">
      <path d="M 373.451661 162.383739 
L 373.451661 35.199105 
" clip-path="url(#pef58f3b61e)" style="fill: none; stroke: #b0b0b0; stroke-opacity: 0.25; stroke-width: 0.8; stroke-linecap: square"/>
     </g>
     <g id="line2d_48">
      <g>
       <use xlink:href="#m96f71dc0ba" x="373.451661" y="162.383739" style="stroke: #000000; stroke-width: 0.8"/>
      </g>
     </g>
     <g id="text_23">
      <!-- 0 -->
      <g transform="translate(371.227286 175.207957) scale(0.08 -0.08)">
       <use xlink:href="#ArialMT-13"/>
      </g>
     </g>
    </g>
    <g id="xtick_10">
     <g id="line2d_49">
      <path d="M 419.847807 162.383739 
L 419.847807 35.199105 
" clip-path="url(#pef58f3b61e)" style="fill: none; stroke: #b0b0b0; stroke-opacity: 0.25; stroke-width: 0.8; stroke-linecap: square"/>
     </g>
     <g id="line2d_50">
      <g>
       <use xlink:href="#m96f71dc0ba" x="419.847807" y="162.383739" style="stroke: #000000; stroke-width: 0.8"/>
      </g>
     </g>
     <g id="text_24">
      <!-- 2 -->
      <g transform="translate(417.623432 175.207957) scale(0.08 -0.08)">
       <use xlink:href="#ArialMT-15"/>
      </g>
     </g>
    </g>
    <g id="xtick_11">
     <g id="line2d_51">
      <path d="M 466.243953 162.383739 
L 466.243953 35.199105 
" clip-path="url(#pef58f3b61e)" style="fill: none; stroke: #b0b0b0; stroke-opacity: 0.25; stroke-width: 0.8; stroke-linecap: square"/>
     </g>
     <g id="line2d_52">
      <g>
       <use xlink:href="#m96f71dc0ba" x="466.243953" y="162.383739" style="stroke: #000000; stroke-width: 0.8"/>
      </g>
     </g>
     <g id="text_25">
      <!-- 4 -->
      <g transform="translate(464.019578 175.207957) scale(0.08 -0.08)">
       <use xlink:href="#ArialMT-17"/>
      </g>
     </g>
    </g>
    <g id="xtick_12">
     <g id="line2d_53">
      <path d="M 512.640098 162.383739 
L 512.640098 35.199105 
" clip-path="url(#pef58f3b61e)" style="fill: none; stroke: #b0b0b0; stroke-opacity: 0.25; stroke-width: 0.8; stroke-linecap: square"/>
     </g>
     <g id="line2d_54">
      <g>
       <use xlink:href="#m96f71dc0ba" x="512.640098" y="162.383739" style="stroke: #000000; stroke-width: 0.8"/>
      </g>
     </g>
     <g id="text_26">
      <!-- 6 -->
      <g transform="translate(510.415723 175.207957) scale(0.08 -0.08)">
       <use xlink:href="#ArialMT-19"/>
      </g>
     </g>
    </g>
    <g id="text_27">
     <!-- Time (h) -->
     <g transform="translate(428.306505 186.71577) scale(0.08 -0.08)">
      <use xlink:href="#ArialMT-37"/>
      <use xlink:href="#ArialMT-4c" transform="translate(57.375 0)"/>
      <use xlink:href="#ArialMT-50" transform="translate(79.59375 0)"/>
      <use xlink:href="#ArialMT-48" transform="translate(162.890625 0)"/>
      <use xlink:href="#ArialMT-3" transform="translate(218.5 0)"/>
      <use xlink:href="#ArialMT-b" transform="translate(246.28125 0)"/>
      <use xlink:href="#ArialMT-4b" transform="translate(279.578125 0)"/>
      <use xlink:href="#ArialMT-c" transform="translate(335.1875 0)"/>
     </g>
    </g>
   </g>
   <g id="matplotlib.axis_6">
    <g id="ytick_11">
     <g id="line2d_55">
      <path d="M 366.49224 150.708064 
L 519.59952 150.708064 
" clip-path="url(#pef58f3b61e)" style="fill: none; stroke: #b0b0b0; stroke-opacity: 0.25; stroke-width: 0.8; stroke-linecap: square"/>
     </g>
     <g id="line2d_56">
      <g>
       <use xlink:href="#mbf113cc1a5" x="366.49224" y="150.708064" style="stroke: #000000; stroke-width: 0.8"/>
      </g>
     </g>
    </g>
    <g id="ytick_12">
     <g id="line2d_57">
      <path d="M 366.49224 125.63212 
L 519.59952 125.63212 
" clip-path="url(#pef58f3b61e)" style="fill: none; stroke: #b0b0b0; stroke-opacity: 0.25; stroke-width: 0.8; stroke-linecap: square"/>
     </g>
     <g id="line2d_58">
      <g>
       <use xlink:href="#mbf113cc1a5" x="366.49224" y="125.63212" style="stroke: #000000; stroke-width: 0.8"/>
      </g>
     </g>
    </g>
    <g id="ytick_13">
     <g id="line2d_59">
      <path d="M 366.49224 100.556176 
L 519.59952 100.556176 
" clip-path="url(#pef58f3b61e)" style="fill: none; stroke: #b0b0b0; stroke-opacity: 0.25; stroke-width: 0.8; stroke-linecap: square"/>
     </g>
     <g id="line2d_60">
      <g>
       <use xlink:href="#mbf113cc1a5" x="366.49224" y="100.556176" style="stroke: #000000; stroke-width: 0.8"/>
      </g>
     </g>
    </g>
    <g id="ytick_14">
     <g id="line2d_61">
      <path d="M 366.49224 75.480232 
L 519.59952 75.480232 
" clip-path="url(#pef58f3b61e)" style="fill: none; stroke: #b0b0b0; stroke-opacity: 0.25; stroke-width: 0.8; stroke-linecap: square"/>
     </g>
     <g id="line2d_62">
      <g>
       <use xlink:href="#mbf113cc1a5" x="366.49224" y="75.480232" style="stroke: #000000; stroke-width: 0.8"/>
      </g>
     </g>
    </g>
    <g id="ytick_15">
     <g id="line2d_63">
      <path d="M 366.49224 50.404288 
L 519.59952 50.404288 
" clip-path="url(#pef58f3b61e)" style="fill: none; stroke: #b0b0b0; stroke-opacity: 0.25; stroke-width: 0.8; stroke-linecap: square"/>
     </g>
     <g id="line2d_64">
      <g>
       <use xlink:href="#mbf113cc1a5" x="366.49224" y="50.404288" style="stroke: #000000; stroke-width: 0.8"/>
      </g>
     </g>
    </g>
   </g>
   <g id="LineCollection_5">
    <path d="M 373.451661 149.162403 
L 373.451661 145.271306 
" clip-path="url(#pef58f3b61e)" style="fill: none; stroke: #dc2626; stroke-width: 1.8"/>
    <path d="M 396.649734 113.632444 
L 396.649734 110.003843 
" clip-path="url(#pef58f3b61e)" style="fill: none; stroke: #dc2626; stroke-width: 1.8"/>
    <path d="M 419.847807 91.715733 
L 419.847807 87.489682 
" clip-path="url(#pef58f3b61e)" style="fill: none; stroke: #dc2626; stroke-width: 1.8"/>
    <path d="M 443.04588 75.293478 
L 443.04588 71.23885 
" clip-path="url(#pef58f3b61e)" style="fill: none; stroke: #dc2626; stroke-width: 1.8"/>
    <path d="M 466.243953 61.296172 
L 466.243953 57.452484 
" clip-path="url(#pef58f3b61e)" style="fill: none; stroke: #dc2626; stroke-width: 1.8"/>
    <path d="M 489.442025 52.355956 
L 489.442025 48.83302 
" clip-path="url(#pef58f3b61e)" style="fill: none; stroke: #dc2626; stroke-width: 1.8"/>
    <path d="M 512.640098 43.926217 
L 512.640098 40.980225 
" clip-path="url(#pef58f3b61e)" style="fill: none; stroke: #dc2626; stroke-width: 1.8"/>
   </g>
   <g id="line2d_65">
    <path d="M 366.49224 150.708064 
L 519.59952 150.708064 
" clip-path="url(#pef58f3b61e)" style="fill: none; stroke-dasharray: 3.7,1.6; stroke-dashoffset: 0; stroke: #6b7280; stroke-opacity: 0.75"/>
   </g>
   <g id="line2d_66">
    <path d="M 373.451661 147.216854 
L 396.649734 111.818144 
L 419.847807 89.602708 
L 443.04588 73.266164 
L 466.243953 59.374328 
L 489.442025 50.594488 
L 512.640098 42.453221 
" clip-path="url(#pef58f3b61e)" style="fill: none; stroke: #dc2626; stroke-width: 1.8; stroke-linecap: square"/>
    <defs>
     <path id="m71112d347f" d="M 0 3 
C 0.795609 3 1.55874 2.683901 2.12132 2.12132 
C 2.683901 1.55874 3 0.795609 3 0 
C 3 -0.795609 2.683901 -1.55874 2.12132 -2.12132 
C 1.55874 -2.683901 0.795609 -3 0 -3 
C -0.795609 -3 -1.55874 -2.683901 -2.12132 -2.12132 
C -2.683901 -1.55874 -3 -0.795609 -3 0 
C -3 0.795609 -2.683901 1.55874 -2.12132 2.12132 
C -1.55874 2.683901 -0.795609 3 0 3 
z
" style="stroke: #dc2626"/>
    </defs>
    <g clip-path="url(#pef58f3b61e)">
     <use xlink:href="#m71112d347f" x="373.451661" y="147.216854" style="fill: #dc2626; stroke: #dc2626"/>
     <use xlink:href="#m71112d347f" x="396.649734" y="111.818144" style="fill: #dc2626; stroke: #dc2626"/>
     <use xlink:href="#m71112d347f" x="419.847807" y="89.602708" style="fill: #dc2626; stroke: #dc2626"/>
     <use xlink:href="#m71112d347f" x="443.04588" y="73.266164" style="fill: #dc2626; stroke: #dc2626"/>
     <use xlink:href="#m71112d347f" x="466.243953" y="59.374328" style="fill: #dc2626; stroke: #dc2626"/>
     <use xlink:href="#m71112d347f" x="489.442025" y="50.594488" style="fill: #dc2626; stroke: #dc2626"/>
     <use xlink:href="#m71112d347f" x="512.640098" y="42.453221" style="fill: #dc2626; stroke: #dc2626"/>
    </g>
   </g>
   <g id="patch_15">
    <path d="M 366.49224 162.383739 
L 366.49224 35.199105 
" style="fill: none; stroke: #000000; stroke-width: 0.8; stroke-linejoin: miter; stroke-linecap: square"/>
   </g>
   <g id="patch_16">
    <path d="M 519.59952 162.383739 
L 519.59952 35.199105 
" style="fill: none; stroke: #000000; stroke-width: 0.8; stroke-linejoin: miter; stroke-linecap: square"/>
   </g>
   <g id="patch_17">
    <path d="M 366.49224 162.383739 
L 519.59952 162.383739 
" style="fill: none; stroke: #000000; stroke-width: 0.8; stroke-linejoin: miter; stroke-linecap: square"/>
   </g>
   <g id="patch_18">
    <path d="M 366.49224 35.199105 
L 519.59952 35.199105 
" style="fill: none; stroke: #000000; stroke-width: 0.8; stroke-linejoin: miter; stroke-linecap: square"/>
   </g>
   <g id="text_28">
    <!-- High dose -->
    <g transform="translate(421.43313 29.199105) scale(0.096 -0.096)">
     <defs>
      <path id="ArialMT-2b" d="M 513 0 
L 513 4581 
L 1119 4581 
L 1119 2700 
L 3500 2700 
L 3500 4581 
L 4106 4581 
L 4106 0 
L 3500 0 
L 3500 2159 
L 1119 2159 
L 1119 0 
L 513 0 
z
" transform="scale(0.015625)"/>
      <path id="ArialMT-4a" d="M 319 -275 
L 866 -356 
Q 900 -609 1056 -725 
Q 1266 -881 1628 -881 
Q 2019 -881 2231 -725 
Q 2444 -569 2519 -288 
Q 2563 -116 2559 434 
Q 2191 0 1641 0 
Q 956 0 581 494 
Q 206 988 206 1678 
Q 206 2153 378 2554 
Q 550 2956 876 3175 
Q 1203 3394 1644 3394 
Q 2231 3394 2613 2919 
L 2613 3319 
L 3131 3319 
L 3131 450 
Q 3131 -325 2973 -648 
Q 2816 -972 2473 -1159 
Q 2131 -1347 1631 -1347 
Q 1038 -1347 672 -1080 
Q 306 -813 319 -275 
z
M 784 1719 
Q 784 1066 1043 766 
Q 1303 466 1694 466 
Q 2081 466 2343 764 
Q 2606 1063 2606 1700 
Q 2606 2309 2336 2618 
Q 2066 2928 1684 2928 
Q 1309 2928 1046 2623 
Q 784 2319 784 1719 
z
" transform="scale(0.015625)"/>
     </defs>
     <use xlink:href="#ArialMT-2b"/>
     <use xlink:href="#ArialMT-4c" transform="translate(72.21875 0)"/>
     <use xlink:href="#ArialMT-4a" transform="translate(94.4375 0)"/>
     <use xlink:href="#ArialMT-4b" transform="translate(150.046875 0)"/>
     <use xlink:href="#ArialMT-3" transform="translate(205.65625 0)"/>
     <use xlink:href="#ArialMT-47" transform="translate(233.4375 0)"/>
     <use xlink:href="#ArialMT-52" transform="translate(289.046875 0)"/>
     <use xlink:href="#ArialMT-56" transform="translate(344.65625 0)"/>
     <use xlink:href="#ArialMT-48" transform="translate(394.65625 0)"/>
    </g>
   </g>
   <g id="legend_3">
    <g id="patch_19">
     <path d="M 372.09224 64.61473 
L 449.04224 64.61473 
Q 450.64224 64.61473 450.64224 63.01473 
L 450.64224 40.799105 
Q 450.64224 39.199105 449.04224 39.199105 
L 372.09224 39.199105 
Q 370.49224 39.199105 370.49224 40.799105 
L 370.49224 63.01473 
Q 370.49224 64.61473 372.09224 64.61473 
z
" style="fill: #ffffff; opacity: 0.8; stroke: #cccccc; stroke-linejoin: miter"/>
    </g>
    <g id="line2d_67">
     <path d="M 373.69224 45.423324 
L 381.69224 45.423324 
L 389.69224 45.423324 
" style="fill: none; stroke-dasharray: 3.7,1.6; stroke-dashoffset: 0; stroke: #6b7280; stroke-opacity: 0.75"/>
    </g>
    <g id="text_29">
     <!-- Baseline -->
     <g transform="translate(396.09224 48.223324) scale(0.08 -0.08)">
      <use xlink:href="#ArialMT-25"/>
      <use xlink:href="#ArialMT-44" transform="translate(66.703125 0)"/>
      <use xlink:href="#ArialMT-56" transform="translate(122.3125 0)"/>
      <use xlink:href="#ArialMT-48" transform="translate(172.3125 0)"/>
      <use xlink:href="#ArialMT-4f" transform="translate(227.921875 0)"/>
      <use xlink:href="#ArialMT-4c" transform="translate(250.140625 0)"/>
      <use xlink:href="#ArialMT-51" transform="translate(272.359375 0)"/>
      <use xlink:href="#ArialMT-48" transform="translate(327.96875 0)"/>
     </g>
    </g>
    <g id="LineCollection_6">
     <path d="M 381.69224 60.931136 
L 381.69224 52.931136 
" style="fill: none; stroke: #dc2626; stroke-width: 1.8"/>
    </g>
    <g id="line2d_68">
     <path d="M 373.69224 56.931136 
L 389.69224 56.931136 
" style="fill: none; stroke: #dc2626; stroke-width: 1.8; stroke-linecap: square"/>
    </g>
    <g id="line2d_69">
     <g>
      <use xlink:href="#m71112d347f" x="381.69224" y="56.931136" style="fill: #dc2626; stroke: #dc2626"/>
     </g>
    </g>
    <g id="text_30">
     <!-- Mean +/- SEM -->
     <g transform="translate(396.09224 59.731136) scale(0.08 -0.08)">
      <use xlink:href="#ArialMT-30"/>
      <use xlink:href="#ArialMT-48" transform="translate(83.296875 0)"/>
      <use xlink:href="#ArialMT-44" transform="translate(138.90625 0)"/>
      <use xlink:href="#ArialMT-51" transform="translate(194.515625 0)"/>
      <use xlink:href="#ArialMT-3" transform="translate(250.125 0)"/>
      <use xlink:href="#ArialMT-e" transform="translate(277.90625 0)"/>
      <use xlink:href="#ArialMT-12" transform="translate(336.3125 0)"/>
      <use xlink:href="#ArialMT-10" transform="translate(364.09375 0)"/>
      <use xlink:href="#ArialMT-3" transform="translate(397.390625 0)"/>
      <use xlink:href="#ArialMT-36" transform="translate(425.171875 0)"/>
      <use xlink:href="#ArialMT-28" transform="translate(491.875 0)"/>
      <use xlink:href="#ArialMT-30" transform="translate(558.578125 0)"/>
     </g>
    </g>
   </g>
  </g>
  <g id="text_31">
   <!-- Dose-response trend by condition -->
   <g transform="translate(191.63001 14.189062) scale(0.096 -0.096)">
    <defs>
     <path id="ArialMT-27" d="M 494 0 
L 494 4581 
L 2072 4581 
Q 2606 4581 2888 4516 
Q 3281 4425 3559 4188 
Q 3922 3881 4101 3404 
Q 4281 2928 4281 2316 
Q 4281 1794 4159 1391 
Q 4038 988 3847 723 
Q 3656 459 3429 307 
Q 3203 156 2883 78 
Q 2563 0 2147 0 
L 494 0 
z
M 1100 541 
L 2078 541 
Q 2531 541 2789 625 
Q 3047 709 3200 863 
Q 3416 1078 3536 1442 
Q 3656 1806 3656 2325 
Q 3656 3044 3420 3430 
Q 3184 3816 2847 3947 
Q 2603 4041 2063 4041 
L 1100 4041 
L 1100 541 
z
" transform="scale(0.015625)"/>
     <path id="ArialMT-45" d="M 941 0 
L 419 0 
L 419 4581 
L 981 4581 
L 981 2947 
Q 1338 3394 1891 3394 
Q 2197 3394 2470 3270 
Q 2744 3147 2920 2923 
Q 3097 2700 3197 2384 
Q 3297 2069 3297 1709 
Q 3297 856 2875 390 
Q 2453 -75 1863 -75 
Q 1275 -75 941 416 
L 941 0 
z
M 934 1684 
Q 934 1088 1097 822 
Q 1363 388 1816 388 
Q 2184 388 2453 708 
Q 2722 1028 2722 1663 
Q 2722 2313 2464 2622 
Q 2206 2931 1841 2931 
Q 1472 2931 1203 2611 
Q 934 2291 934 1684 
z
" transform="scale(0.015625)"/>
     <path id="ArialMT-5c" d="M 397 -1278 
L 334 -750 
Q 519 -800 656 -800 
Q 844 -800 956 -737 
Q 1069 -675 1141 -563 
Q 1194 -478 1313 -144 
Q 1328 -97 1363 -6 
L 103 3319 
L 709 3319 
L 1400 1397 
Q 1534 1031 1641 628 
Q 1738 1016 1872 1384 
L 2581 3319 
L 3144 3319 
L 1881 -56 
Q 1678 -603 1566 -809 
Q 1416 -1088 1222 -1217 
Q 1028 -1347 759 -1347 
Q 597 -1347 397 -1278 
z
" transform="scale(0.015625)"/>
     <path id="ArialMT-46" d="M 2588 1216 
L 3141 1144 
Q 3050 572 2676 248 
Q 2303 -75 1759 -75 
Q 1078 -75 664 370 
Q 250 816 250 1647 
Q 250 2184 428 2587 
Q 606 2991 970 3192 
Q 1334 3394 1763 3394 
Q 2303 3394 2647 3120 
Q 2991 2847 3088 2344 
L 2541 2259 
Q 2463 2594 2264 2762 
Q 2066 2931 1784 2931 
Q 1359 2931 1093 2626 
Q 828 2322 828 1663 
Q 828 994 1084 691 
Q 1341 388 1753 388 
Q 2084 388 2306 591 
Q 2528 794 2588 1216 
z
" transform="scale(0.015625)"/>
    </defs>
    <use xlink:href="#ArialMT-27"/>
    <use xlink:href="#ArialMT-52" transform="translate(72.21875 0)"/>
    <use xlink:href="#ArialMT-56" transform="translate(127.828125 0)"/>
    <use xlink:href="#ArialMT-48" transform="translate(177.828125 0)"/>
    <use xlink:href="#ArialMT-10" transform="translate(233.4375 0)"/>
    <use xlink:href="#ArialMT-55" transform="translate(266.734375 0)"/>
    <use xlink:href="#ArialMT-48" transform="translate(300.03125 0)"/>
    <use xlink:href="#ArialMT-56" transform="translate(355.640625 0)"/>
    <use xlink:href="#ArialMT-53" transform="translate(405.640625 0)"/>
    <use xlink:href="#ArialMT-52" transform="translate(461.25 0)"/>
    <use xlink:href="#ArialMT-51" transform="translate(516.859375 0)"/>
    <use xlink:href="#ArialMT-56" transform="translate(572.46875 0)"/>
    <use xlink:href="#ArialMT-48" transform="translate(622.46875 0)"/>
    <use xlink:href="#ArialMT-3" transform="translate(678.078125 0)"/>
    <use xlink:href="#ArialMT-57" transform="translate(705.859375 0)"/>
    <use xlink:href="#ArialMT-55" transform="translate(733.640625 0)"/>
    <use xlink:href="#ArialMT-48" transform="translate(766.9375 0)"/>
    <use xlink:href="#ArialMT-51" transform="translate(822.546875 0)"/>
    <use xlink:href="#ArialMT-47" transform="translate(878.15625 0)"/>
    <use xlink:href="#ArialMT-3" transform="translate(933.765625 0)"/>
    <use xlink:href="#ArialMT-45" transform="translate(961.546875 0)"/>
    <use xlink:href="#ArialMT-5c" transform="translate(1017.15625 0)"/>
    <use xlink:href="#ArialMT-3" transform="translate(1067.15625 0)"/>
    <use xlink:href="#ArialMT-46" transform="translate(1094.9375 0)"/>
    <use xlink:href="#ArialMT-52" transform="translate(1144.9375 0)"/>
    <use xlink:href="#ArialMT-51" transform="translate(1200.546875 0)"/>
    <use xlink:href="#ArialMT-47" transform="translate(1256.15625 0)"/>
    <use xlink:href="#ArialMT-4c" transform="translate(1311.765625 0)"/>
    <use xlink:href="#ArialMT-57" transform="translate(1333.984375 0)"/>
    <use xlink:href="#ArialMT-4c" transform="translate(1361.765625 0)"/>
    <use xlink:href="#ArialMT-52" transform="translate(1383.984375 0)"/>
    <use xlink:href="#ArialMT-51" transform="translate(1439.59375 0)"/>
   </g>
  </g>
 </g>
 <defs>
  <clipPath id="p0e51e74c72">
   <rect x="41.276719" y="35.199105" width="153.10728" height="127.184634"/>
  </clipPath>
  <clipPath id="p9ce231e07f">
   <rect x="203.884479" y="35.199105" width="153.10728" height="127.184634"/>
  </clipPath>
  <clipPath id="pef58f3b61e">
   <rect x="366.49224" y="35.199105" width="153.10728" height="127.184634"/>
  </clipPath>
 </defs>
</svg>
