<?xml version="1.0" encoding="utf-8" standalone="no"?>
<!DOCTYPE svg PUBLIC "-//W3C//DTD SVG 1.1//EN"
  "http://www.w3.org/Graphics/SVG/1.1/DTD/svg11.dtd">
<svg xmlns:xlink="http://www.w3.org/1999/xlink" width="388.8pt" height="230.4pt" viewBox="0 0 388.8 230.4" xmlns="http://www.w3.org/2000/svg" version="1.1">
 <metadata>
  <rdf:RDF xmlns:dc="http://purl.org/dc/elements/1.1/" xmlns:cc="http://creativecommons.org/ns#" xmlns:rdf="http://www.w3.org/1999/02/22-rdf-syntax-ns#">
   <cc:Work>
    <dc:type rdf:resource="http://purl.org/dc/dcmitype/StillImage"/>
    <dc:date>2026-07-03T17:42:48.418094</dc:date>
    <dc:format>image/svg+xml</dc:format>
    <dc:creator>
     <cc:Agent>
      <dc:title>Matplotlib v3.11.0, https://matplotlib.org/</dc:title>
     </cc:Agent>
    </dc:creator>
   </cc:Work>
  </rdf:RDF>
 </metadata>
 <defs>
  <style type="text/css">*{stroke-linejoin: round; stroke-linecap: butt}</style>
 </defs>
 <g id="figure_1">
  <g id="patch_1">
   <path d="M 0 230.4
L 388.8 230.4
L 388.8 0
L 0 0
z
" style="fill: #ffffff"/>
  </g>
  <g id="axes_1">
   <g id="patch_2">
    <path d="M 32.628209 201.383979
L 379.126635 201.383979
L 379.126635 15.989303
L 32.628209 15.989303
z
" style="fill: #ffffff"/>
   </g>
   <g id="matplotlib.axis_1">
    <g id="xtick_1">
     <g id="line2d_1">
      <path d="M 32.628209 201.383979
L 32.628209 15.989303
" clip-path="url(#p4a344e52d2)" style="fill: none; stroke: #b0b0b0; stroke-opacity: 0.25; stroke-width: 0.8; stroke-linecap: square"/>
     </g>
     <g id="line2d_2">
      <defs>
       <path id="m1dfff2d9a4" d="M 0 0
L 0 3.5
" style="stroke: #000000; stroke-width: 0.8"/>
      </defs>
      <g>
       <use xlink:href="#m1dfff2d9a4" x="32.628209" y="201.383979" style="stroke: #000000; stroke-width: 0.8"/>
      </g>
     </g>
     <g id="text_1">
      <!-- −100 -->
      <g transform="translate(23.618834 214.208198) scale(0.08 -0.08)">
       <defs>
        <path id="ArialMT-ed" d="M 3381 1997
L 356 1997
L 356 2522
L 3381 2522
L 3381 1997
z
" transform="scale(0.015625)"/>
        <path id="ArialMT-14" d="M 2384 0
L 1822 0
L 1822 3584
Q 1619 3391 1289 3197
Q 959 3003 697 2906
L 697 3450
Q 1169 3672 1522 3987
Q 1875 4303 2022 4600
L 2384 4600
L 2384 0
z
" transform="scale(0.015625)"/>
        <path id="ArialMT-13" d="M 266 2259
Q 266 3072 433 3567
Q 600 4063 929 4331
Q 1259 4600 1759 4600
Q 2128 4600 2406 4451
Q 2684 4303 2865 4023
Q 3047 3744 3150 3342
Q 3253 2941 3253 2259
Q 3253 1453 3087 958
Q 2922 463 2592 192
Q 2263 -78 1759 -78
Q 1097 -78 719 397
Q 266 969 266 2259
z
M 844 2259
Q 844 1131 1108 757
Q 1372 384 1759 384
Q 2147 384 2411 759
Q 2675 1134 2675 2259
Q 2675 3391 2411 3762
Q 2147 4134 1753 4134
Q 1366 4134 1134 3806
Q 844 3388 844 2259
z
" transform="scale(0.015625)"/>
       </defs>
       <use xlink:href="#ArialMT-ed"/>
       <use xlink:href="#ArialMT-14" transform="translate(58.40625 0)"/>
       <use xlink:href="#ArialMT-13" transform="translate(114.015625 0)"/>
       <use xlink:href="#ArialMT-13" transform="translate(169.625 0)"/>
      </g>
     </g>
    </g>
    <g id="xtick_2">
     <g id="line2d_3">
      <path d="M 101.927894 201.383979
L 101.927894 15.989303
" clip-path="url(#p4a344e52d2)" style="fill: none; stroke: #b0b0b0; stroke-opacity: 0.25; stroke-width: 0.8; stroke-linecap: square"/>
     </g>
     <g id="line2d_4">
      <g>
       <use xlink:href="#m1dfff2d9a4" x="101.927894" y="201.383979" style="stroke: #000000; stroke-width: 0.8"/>
      </g>
     </g>
     <g id="text_2">
      <!-- 0 -->
      <g transform="translate(99.703519 214.208198) scale(0.08 -0.08)">
       <use xlink:href="#ArialMT-13"/>
      </g>
     </g>
    </g>
    <g id="xtick_3">
     <g id="line2d_5">
      <path d="M 171.227579 201.383979
L 171.227579 15.989303
" clip-path="url(#p4a344e52d2)" style="fill: none; stroke: #b0b0b0; stroke-opacity: 0.25; stroke-width: 0.8; stroke-linecap: square"/>
     </g>
     <g id="line2d_6">
      <g>
       <use xlink:href="#m1dfff2d9a4" x="171.227579" y="201.383979" style="stroke: #000000; stroke-width: 0.8"/>
      </g>
     </g>
     <g id="text_3">
      <!-- 100 -->
      <g transform="translate(164.554454 214.208198) scale(0.08 -0.08)">
       <use xlink:href="#ArialMT-14"/>
       <use xlink:href="#ArialMT-13" transform="translate(55.609375 0)"/>
       <use xlink:href="#ArialMT-13" transform="translate(111.21875 0)"/>
      </g>
     </g>
    </g>
    <g id="xtick_4">
     <g id="line2d_7">
      <path d="M 240.527264 201.383979
L 240.527264 15.989303
" clip-path="url(#p4a344e52d2)" style="fill: none; stroke: #b0b0b0; stroke-opacity: 0.25; stroke-width: 0.8; stroke-linecap: square"/>
     </g>
     <g id="line2d_8">
      <g>
       <use xlink:href="#m1dfff2d9a4" x="240.527264" y="201.383979" style="stroke: #000000; stroke-width: 0.8"/>
      </g>
     </g>
     <g id="text_4">
      <!-- 200 -->
      <g transform="translate(233.854139 214.208198) scale(0.08 -0.08)">
       <defs>
        <path id="ArialMT-15" d="M 3222 541
L 3222 0
L 194 0
Q 188 203 259 391
Q 375 700 629 1000
Q 884 1300 1366 1694
Q 2113 2306 2375 2664
Q 2638 3022 2638 3341
Q 2638 3675 2398 3904
Q 2159 4134 1775 4134
Q 1369 4134 1125 3890
Q 881 3647 878 3216
L 300 3275
Q 359 3922 746 4261
Q 1134 4600 1788 4600
Q 2447 4600 2831 4234
Q 3216 3869 3216 3328
Q 3216 3053 3103 2787
Q 2991 2522 2730 2228
Q 2469 1934 1863 1422
Q 1356 997 1212 845
Q 1069 694 975 541
L 3222 541
z
" transform="scale(0.015625)"/>
       </defs>
       <use xlink:href="#ArialMT-15"/>
       <use xlink:href="#ArialMT-13" transform="translate(55.609375 0)"/>
       <use xlink:href="#ArialMT-13" transform="translate(111.21875 0)"/>
      </g>
     </g>
    </g>
    <g id="xtick_5">
     <g id="line2d_9">
      <path d="M 309.82695 201.383979
L 309.82695 15.989303
" clip-path="url(#p4a344e52d2)" style="fill: none; stroke: #b0b0b0; stroke-opacity: 0.25; stroke-width: 0.8; stroke-linecap: square"/>
     </g>
     <g id="line2d_10">
      <g>
       <use xlink:href="#m1dfff2d9a4" x="309.82695" y="201.383979" style="stroke: #000000; stroke-width: 0.8"/>
      </g>
     </g>
     <g id="text_5">
      <!-- 300 -->
      <g transform="translate(303.153825 214.208198) scale(0.08 -0.08)">
       <defs>
        <path id="ArialMT-16" d="M 269 1209
L 831 1284
Q 928 806 1161 595
Q 1394 384 1728 384
Q 2125 384 2398 659
Q 2672 934 2672 1341
Q 2672 1728 2419 1979
Q 2166 2231 1775 2231
Q 1616 2231 1378 2169
L 1441 2663
Q 1497 2656 1531 2656
Q 1891 2656 2178 2843
Q 2466 3031 2466 3422
Q 2466 3731 2256 3934
Q 2047 4138 1716 4138
Q 1388 4138 1169 3931
Q 950 3725 888 3313
L 325 3413
Q 428 3978 793 4289
Q 1159 4600 1703 4600
Q 2078 4600 2393 4439
Q 2709 4278 2876 4000
Q 3044 3722 3044 3409
Q 3044 3113 2884 2869
Q 2725 2625 2413 2481
Q 2819 2388 3044 2092
Q 3269 1797 3269 1353
Q 3269 753 2831 336
Q 2394 -81 1725 -81
Q 1122 -81 723 278
Q 325 638 269 1209
z
" transform="scale(0.015625)"/>
       </defs>
       <use xlink:href="#ArialMT-16"/>
       <use xlink:href="#ArialMT-13" transform="translate(55.609375 0)"/>
       <use xlink:href="#ArialMT-13" transform="translate(111.21875 0)"/>
      </g>
     </g>
    </g>
    <g id="xtick_6">
     <g id="line2d_11">
      <path d="M 379.126635 201.383979
L 379.126635 15.989303
" clip-path="url(#p4a344e52d2)" style="fill: none; stroke: #b0b0b0; stroke-opacity: 0.25; stroke-width: 0.8; stroke-linecap: square"/>
     </g>
     <g id="line2d_12">
      <g>
       <use xlink:href="#m1dfff2d9a4" x="379.126635" y="201.383979" style="stroke: #000000; stroke-width: 0.8"/>
      </g>
     </g>
     <g id="text_6">
      <!-- 400 -->
      <g transform="translate(372.45351 214.208198) scale(0.08 -0.08)">
       <defs>
        <path id="ArialMT-17" d="M 2069 0
L 2069 1097
L 81 1097
L 81 1613
L 2172 4581
L 2631 4581
L 2631 1613
L 3250 1613
L 3250 1097
L 2631 1097
L 2631 0
L 2069 0
z
M 2069 1613
L 2069 3678
L 634 1613
L 2069 1613
z
" transform="scale(0.015625)"/>
       </defs>
       <use xlink:href="#ArialMT-17"/>
       <use xlink:href="#ArialMT-13" transform="translate(55.609375 0)"/>
       <use xlink:href="#ArialMT-13" transform="translate(111.21875 0)"/>
      </g>
     </g>
    </g>
    <g id="text_7">
     <!-- Time from stimulus (ms) -->
     <g transform="translate(163.139297 225.71601) scale(0.08 -0.08)">
      <defs>
       <path id="ArialMT-37" d="M 1659 0
L 1659 4041
L 150 4041
L 150 4581
L 3781 4581
L 3781 4041
L 2266 4041
L 2266 0
L 1659 0
z
" transform="scale(0.015625)"/>
       <path id="ArialMT-4c" d="M 425 3934
L 425 4581
L 988 4581
L 988 3934
L 425 3934
z
M 425 0
L 425 3319
L 988 3319
L 988 0
L 425 0
z
" transform="scale(0.015625)"/>
       <path id="ArialMT-50" d="M 422 0
L 422 3319
L 925 3319
L 925 2853
Q 1081 3097 1340 3245
Q 1600 3394 1931 3394
Q 2300 3394 2536 3241
Q 2772 3088 2869 2813
Q 3263 3394 3894 3394
Q 4388 3394 4653 3120
Q 4919 2847 4919 2278
L 4919 0
L 4359 0
L 4359 2091
Q 4359 2428 4304 2576
Q 4250 2725 4106 2815
Q 3963 2906 3769 2906
Q 3419 2906 3187 2673
Q 2956 2441 2956 1928
L 2956 0
L 2394 0
L 2394 2156
Q 2394 2531 2256 2718
Q 2119 2906 1806 2906
Q 1569 2906 1367 2781
Q 1166 2656 1075 2415
Q 984 2175 984 1722
L 984 0
L 422 0
z
" transform="scale(0.015625)"/>
       <path id="ArialMT-48" d="M 2694 1069
L 3275 997
Q 3138 488 2766 206
Q 2394 -75 1816 -75
Q 1088 -75 661 373
Q 234 822 234 1631
Q 234 2469 665 2931
Q 1097 3394 1784 3394
Q 2450 3394 2872 2941
Q 3294 2488 3294 1666
Q 3294 1616 3291 1516
L 816 1516
Q 847 969 1125 678
Q 1403 388 1819 388
Q 2128 388 2347 550
Q 2566 713 2694 1069
z
M 847 1978
L 2700 1978
Q 2663 2397 2488 2606
Q 2219 2931 1791 2931
Q 1403 2931 1139 2672
Q 875 2413 847 1978
z
" transform="scale(0.015625)"/>
       <path id="ArialMT-3" transform="scale(0.015625)"/>
       <path id="ArialMT-49" d="M 556 0
L 556 2881
L 59 2881
L 59 3319
L 556 3319
L 556 3672
Q 556 4006 616 4169
Q 697 4388 901 4523
Q 1106 4659 1475 4659
Q 1713 4659 2000 4603
L 1916 4113
Q 1741 4144 1584 4144
Q 1328 4144 1222 4034
Q 1116 3925 1116 3625
L 1116 3319
L 1763 3319
L 1763 2881
L 1116 2881
L 1116 0
L 556 0
z
" transform="scale(0.015625)"/>
       <path id="ArialMT-55" d="M 416 0
L 416 3319
L 922 3319
L 922 2816
Q 1116 3169 1280 3281
Q 1444 3394 1641 3394
Q 1925 3394 2219 3213
L 2025 2691
Q 1819 2813 1613 2813
Q 1428 2813 1281 2702
Q 1134 2591 1072 2394
Q 978 2094 978 1738
L 978 0
L 416 0
z
" transform="scale(0.015625)"/>
       <path id="ArialMT-52" d="M 213 1659
Q 213 2581 725 3025
Q 1153 3394 1769 3394
Q 2453 3394 2887 2945
Q 3322 2497 3322 1706
Q 3322 1066 3130 698
Q 2938 331 2570 128
Q 2203 -75 1769 -75
Q 1072 -75 642 372
Q 213 819 213 1659
z
M 791 1659
Q 791 1022 1069 705
Q 1347 388 1769 388
Q 2188 388 2466 706
Q 2744 1025 2744 1678
Q 2744 2294 2464 2611
Q 2184 2928 1769 2928
Q 1347 2928 1069 2612
Q 791 2297 791 1659
z
" transform="scale(0.015625)"/>
       <path id="ArialMT-56" d="M 197 991
L 753 1078
Q 800 744 1014 566
Q 1228 388 1613 388
Q 2000 388 2187 545
Q 2375 703 2375 916
Q 2375 1106 2209 1216
Q 2094 1291 1634 1406
Q 1016 1563 777 1677
Q 538 1791 414 1992
Q 291 2194 291 2438
Q 291 2659 392 2848
Q 494 3038 669 3163
Q 800 3259 1026 3326
Q 1253 3394 1513 3394
Q 1903 3394 2198 3281
Q 2494 3169 2634 2976
Q 2775 2784 2828 2463
L 2278 2388
Q 2241 2644 2061 2787
Q 1881 2931 1553 2931
Q 1166 2931 1000 2803
Q 834 2675 834 2503
Q 834 2394 903 2306
Q 972 2216 1119 2156
Q 1203 2125 1616 2013
Q 2213 1853 2448 1751
Q 2684 1650 2818 1456
Q 2953 1263 2953 975
Q 2953 694 2789 445
Q 2625 197 2315 61
Q 2006 -75 1616 -75
Q 969 -75 630 194
Q 291 463 197 991
z
" transform="scale(0.015625)"/>
       <path id="ArialMT-57" d="M 1650 503
L 1731 6
Q 1494 -44 1306 -44
Q 1000 -44 831 53
Q 663 150 594 308
Q 525 466 525 972
L 525 2881
L 113 2881
L 113 3319
L 525 3319
L 525 4141
L 1084 4478
L 1084 3319
L 1650 3319
L 1650 2881
L 1084 2881
L 1084 941
Q 1084 700 1114 631
Q 1144 563 1211 522
Q 1278 481 1403 481
Q 1497 481 1650 503
z
" transform="scale(0.015625)"/>
       <path id="ArialMT-58" d="M 2597 0
L 2597 488
Q 2209 -75 1544 -75
Q 1250 -75 995 37
Q 741 150 617 320
Q 494 491 444 738
Q 409 903 409 1263
L 409 3319
L 972 3319
L 972 1478
Q 972 1038 1006 884
Q 1059 663 1231 536
Q 1403 409 1656 409
Q 1909 409 2131 539
Q 2353 669 2445 892
Q 2538 1116 2538 1541
L 2538 3319
L 3100 3319
L 3100 0
L 2597 0
z
" transform="scale(0.015625)"/>
       <path id="ArialMT-4f" d="M 409 0
L 409 4581
L 972 4581
L 972 0
L 409 0
z
" transform="scale(0.015625)"/>
       <path id="ArialMT-b" d="M 1497 -1347
Q 1031 -759 709 28
Q 388 816 388 1659
Q 388 2403 628 3084
Q 909 3875 1497 4659
L 1900 4659
Q 1522 4009 1400 3731
Q 1209 3300 1100 2831
Q 966 2247 966 1656
Q 966 153 1900 -1347
L 1497 -1347
z
" transform="scale(0.015625)"/>
       <path id="ArialMT-c" d="M 791 -1347
L 388 -1347
Q 1322 153 1322 1656
Q 1322 2244 1188 2822
Q 1081 3291 891 3722
Q 769 4003 388 4659
L 791 4659
Q 1378 3875 1659 3084
Q 1900 2403 1900 1659
Q 1900 816 1576 28
Q 1253 -759 791 -1347
z
" transform="scale(0.015625)"/>
      </defs>
      <use xlink:href="#ArialMT-37"/>
      <use xlink:href="#ArialMT-4c" transform="translate(57.375 0)"/>
      <use xlink:href="#ArialMT-50" transform="translate(79.59375 0)"/>
      <use xlink:href="#ArialMT-48" transform="translate(162.890625 0)"/>
      <use xlink:href="#ArialMT-3" transform="translate(218.5 0)"/>
      <use xlink:href="#ArialMT-49" transform="translate(246.28125 0)"/>
      <use xlink:href="#ArialMT-55" transform="translate(274.0625 0)"/>
      <use xlink:href="#ArialMT-52" transform="translate(307.359375 0)"/>
      <use xlink:href="#ArialMT-50" transform="translate(362.96875 0)"/>
      <use xlink:href="#ArialMT-3" transform="translate(446.265625 0)"/>
      <use xlink:href="#ArialMT-56" transform="translate(474.046875 0)"/>
      <use xlink:href="#ArialMT-57" transform="translate(524.046875 0)"/>
      <use xlink:href="#ArialMT-4c" transform="translate(551.828125 0)"/>
      <use xlink:href="#ArialMT-50" transform="translate(574.046875 0)"/>
      <use xlink:href="#ArialMT-58" transform="translate(657.34375 0)"/>
      <use xlink:href="#ArialMT-4f" transform="translate(712.953125 0)"/>
      <use xlink:href="#ArialMT-58" transform="translate(735.171875 0)"/>
      <use xlink:href="#ArialMT-56" transform="translate(790.78125 0)"/>
      <use xlink:href="#ArialMT-3" transform="translate(840.78125 0)"/>
      <use xlink:href="#ArialMT-b" transform="translate(868.5625 0)"/>
      <use xlink:href="#ArialMT-50" transform="translate(901.859375 0)"/>
      <use xlink:href="#ArialMT-56" transform="translate(985.15625 0)"/>
      <use xlink:href="#ArialMT-c" transform="translate(1035.15625 0)"/>
     </g>
    </g>
   </g>
   <g id="matplotlib.axis_2">
    <g id="ytick_1">
     <g id="line2d_13">
      <path d="M 32.628209 174.899025
L 379.126635 174.899025
" clip-path="url(#p4a344e52d2)" style="fill: none; stroke: #b0b0b0; stroke-opacity: 0.25; stroke-width: 0.8; stroke-linecap: square"/>
     </g>
     <g id="line2d_14">
      <defs>
       <path id="m1097d476f9" d="M 0 0
L -3.5 0
" style="stroke: #000000; stroke-width: 0.8"/>
      </defs>
      <g>
       <use xlink:href="#m1097d476f9" x="32.628209" y="174.899025" style="stroke: #000000; stroke-width: 0.8"/>
      </g>
     </g>
     <g id="text_8">
      <!-- 0.0 -->
      <g transform="translate(14.508209 177.811134) scale(0.08 -0.08)">
       <defs>
        <path id="ArialMT-11" d="M 581 0
L 581 641
L 1222 641
L 1222 0
L 581 0
z
" transform="scale(0.015625)"/>
       </defs>
       <use xlink:href="#ArialMT-13"/>
       <use xlink:href="#ArialMT-11" transform="translate(55.609375 0)"/>
       <use xlink:href="#ArialMT-13" transform="translate(83.390625 0)"/>
      </g>
     </g>
    </g>
    <g id="ytick_2">
     <g id="line2d_15">
      <path d="M 32.628209 141.792833
L 379.126635 141.792833
" clip-path="url(#p4a344e52d2)" style="fill: none; stroke: #b0b0b0; stroke-opacity: 0.25; stroke-width: 0.8; stroke-linecap: square"/>
     </g>
     <g id="line2d_16">
      <g>
       <use xlink:href="#m1097d476f9" x="32.628209" y="141.792833" style="stroke: #000000; stroke-width: 0.8"/>
      </g>
     </g>
     <g id="text_9">
      <!-- 0.5 -->
      <g transform="translate(14.508209 144.704942) scale(0.08 -0.08)">
       <defs>
        <path id="ArialMT-18" d="M 266 1200
L 856 1250
Q 922 819 1161 601
Q 1400 384 1738 384
Q 2144 384 2425 690
Q 2706 997 2706 1503
Q 2706 1984 2436 2262
Q 2166 2541 1728 2541
Q 1456 2541 1237 2417
Q 1019 2294 894 2097
L 366 2166
L 809 4519
L 3088 4519
L 3088 3981
L 1259 3981
L 1013 2750
Q 1425 3038 1878 3038
Q 2478 3038 2890 2622
Q 3303 2206 3303 1553
Q 3303 931 2941 478
Q 2500 -78 1738 -78
Q 1113 -78 717 272
Q 322 622 266 1200
z
" transform="scale(0.015625)"/>
       </defs>
       <use xlink:href="#ArialMT-13"/>
       <use xlink:href="#ArialMT-11" transform="translate(55.609375 0)"/>
       <use xlink:href="#ArialMT-18" transform="translate(83.390625 0)"/>
      </g>
     </g>
    </g>
    <g id="ytick_3">
     <g id="line2d_17">
      <path d="M 32.628209 108.686641
L 379.126635 108.686641
" clip-path="url(#p4a344e52d2)" style="fill: none; stroke: #b0b0b0; stroke-opacity: 0.25; stroke-width: 0.8; stroke-linecap: square"/>
     </g>
     <g id="line2d_18">
      <g>
       <use xlink:href="#m1097d476f9" x="32.628209" y="108.686641" style="stroke: #000000; stroke-width: 0.8"/>
      </g>
     </g>
     <g id="text_10">
      <!-- 1.0 -->
      <g transform="translate(14.508209 111.59875) scale(0.08 -0.08)">
       <use xlink:href="#ArialMT-14"/>
       <use xlink:href="#ArialMT-11" transform="translate(55.609375 0)"/>
       <use xlink:href="#ArialMT-13" transform="translate(83.390625 0)"/>
      </g>
     </g>
    </g>
    <g id="ytick_4">
     <g id="line2d_19">
      <path d="M 32.628209 75.580448
L 379.126635 75.580448
" clip-path="url(#p4a344e52d2)" style="fill: none; stroke: #b0b0b0; stroke-opacity: 0.25; stroke-width: 0.8; stroke-linecap: square"/>
     </g>
     <g id="line2d_20">
      <g>
       <use xlink:href="#m1097d476f9" x="32.628209" y="75.580448" style="stroke: #000000; stroke-width: 0.8"/>
      </g>
     </g>
     <g id="text_11">
      <!-- 1.5 -->
      <g transform="translate(14.508209 78.492558) scale(0.08 -0.08)">
       <use xlink:href="#ArialMT-14"/>
       <use xlink:href="#ArialMT-11" transform="translate(55.609375 0)"/>
       <use xlink:href="#ArialMT-18" transform="translate(83.390625 0)"/>
      </g>
     </g>
    </g>
    <g id="ytick_5">
     <g id="line2d_21">
      <path d="M 32.628209 42.474256
L 379.126635 42.474256
" clip-path="url(#p4a344e52d2)" style="fill: none; stroke: #b0b0b0; stroke-opacity: 0.25; stroke-width: 0.8; stroke-linecap: square"/>
     </g>
     <g id="line2d_22">
      <g>
       <use xlink:href="#m1097d476f9" x="32.628209" y="42.474256" style="stroke: #000000; stroke-width: 0.8"/>
      </g>
     </g>
     <g id="text_12">
      <!-- 2.0 -->
      <g transform="translate(14.508209 45.386366) scale(0.08 -0.08)">
       <use xlink:href="#ArialMT-15"/>
       <use xlink:href="#ArialMT-11" transform="translate(55.609375 0)"/>
       <use xlink:href="#ArialMT-13" transform="translate(83.390625 0)"/>
      </g>
     </g>
    </g>
    <g id="text_13">
     <!-- Response (z) -->
     <g transform="translate(8.824459 132.472266) rotate(-90) scale(0.08 -0.08)">
      <defs>
       <path id="ArialMT-35" d="M 503 0
L 503 4581
L 2534 4581
Q 3147 4581 3465 4457
Q 3784 4334 3975 4021
Q 4166 3709 4166 3331
Q 4166 2844 3850 2509
Q 3534 2175 2875 2084
Q 3116 1969 3241 1856
Q 3506 1613 3744 1247
L 4541 0
L 3778 0
L 3172 953
Q 2906 1366 2734 1584
Q 2563 1803 2427 1890
Q 2291 1978 2150 2013
Q 2047 2034 1813 2034
L 1109 2034
L 1109 0
L 503 0
z
M 1109 2559
L 2413 2559
Q 2828 2559 3062 2645
Q 3297 2731 3419 2920
Q 3541 3109 3541 3331
Q 3541 3656 3305 3865
Q 3069 4075 2559 4075
L 1109 4075
L 1109 2559
z
" transform="scale(0.015625)"/>
       <path id="ArialMT-53" d="M 422 -1272
L 422 3319
L 934 3319
L 934 2888
Q 1116 3141 1344 3267
Q 1572 3394 1897 3394
Q 2322 3394 2647 3175
Q 2972 2956 3137 2557
Q 3303 2159 3303 1684
Q 3303 1175 3120 767
Q 2938 359 2589 142
Q 2241 -75 1856 -75
Q 1575 -75 1351 44
Q 1128 163 984 344
L 984 -1272
L 422 -1272
z
M 931 1641
Q 931 1000 1190 694
Q 1450 388 1819 388
Q 2194 388 2461 705
Q 2728 1022 2728 1688
Q 2728 2322 2467 2637
Q 2206 2953 1844 2953
Q 1484 2953 1207 2617
Q 931 2281 931 1641
z
" transform="scale(0.015625)"/>
       <path id="ArialMT-51" d="M 422 0
L 422 3319
L 928 3319
L 928 2847
Q 1294 3394 1984 3394
Q 2284 3394 2536 3286
Q 2788 3178 2913 3003
Q 3038 2828 3088 2588
Q 3119 2431 3119 2041
L 3119 0
L 2556 0
L 2556 2019
Q 2556 2363 2490 2533
Q 2425 2703 2258 2804
Q 2091 2906 1866 2906
Q 1506 2906 1245 2678
Q 984 2450 984 1813
L 984 0
L 422 0
z
" transform="scale(0.015625)"/>
       <path id="ArialMT-5d" d="M 125 0
L 125 456
L 2238 2881
Q 1878 2863 1603 2863
L 250 2863
L 250 3319
L 2963 3319
L 2963 2947
L 1166 841
L 819 456
Q 1197 484 1528 484
L 3063 484
L 3063 0
L 125 0
z
" transform="scale(0.015625)"/>
      </defs>
      <use xlink:href="#ArialMT-35"/>
      <use xlink:href="#ArialMT-48" transform="translate(72.21875 0)"/>
      <use xlink:href="#ArialMT-56" transform="translate(127.828125 0)"/>
      <use xlink:href="#ArialMT-53" transform="translate(177.828125 0)"/>
      <use xlink:href="#ArialMT-52" transform="translate(233.4375 0)"/>
      <use xlink:href="#ArialMT-51" transform="translate(289.046875 0)"/>
      <use xlink:href="#ArialMT-56" transform="translate(344.65625 0)"/>
      <use xlink:href="#ArialMT-48" transform="translate(394.65625 0)"/>
      <use xlink:href="#ArialMT-3" transform="translate(450.265625 0)"/>
      <use xlink:href="#ArialMT-b" transform="translate(478.046875 0)"/>
      <use xlink:href="#ArialMT-5d" transform="translate(511.34375 0)"/>
      <use xlink:href="#ArialMT-c" transform="translate(561.34375 0)"/>
     </g>
    </g>
   </g>
   <g id="LineCollection_1">
    <path d="M 32.628209 185.238848
L 32.628209 180.157492
" clip-path="url(#p4a344e52d2)" style="fill: none; stroke: #0f766e; stroke-width: 1.7"/>
    <path d="M 67.278051 180.174993
L 67.278051 175.397453
" clip-path="url(#p4a344e52d2)" style="fill: none; stroke: #0f766e; stroke-width: 1.7"/>
    <path d="M 101.927894 179.840852
L 101.927894 175.856154
" clip-path="url(#p4a344e52d2)" style="fill: none; stroke: #0f766e; stroke-width: 1.7"/>
    <path d="M 136.577737 181.258597
L 136.577737 176.149132
" clip-path="url(#p4a344e52d2)" style="fill: none; stroke: #0f766e; stroke-width: 1.7"/>
    <path d="M 171.227579 174.195706
L 171.227579 167.32366
" clip-path="url(#p4a344e52d2)" style="fill: none; stroke: #0f766e; stroke-width: 1.7"/>
    <path d="M 205.877422 171.854266
L 205.877422 166.987216
" clip-path="url(#p4a344e52d2)" style="fill: none; stroke: #0f766e; stroke-width: 1.7"/>
    <path d="M 240.527264 177.304964
L 240.527264 172.420925
" clip-path="url(#p4a344e52d2)" style="fill: none; stroke: #0f766e; stroke-width: 1.7"/>
    <path d="M 275.177107 177.463249
L 275.177107 169.625574
" clip-path="url(#p4a344e52d2)" style="fill: none; stroke: #0f766e; stroke-width: 1.7"/>
    <path d="M 309.82695 180.684764
L 309.82695 174.799627
" clip-path="url(#p4a344e52d2)" style="fill: none; stroke: #0f766e; stroke-width: 1.7"/>
    <path d="M 344.476792 185.407343
L 344.476792 179.274902
" clip-path="url(#p4a344e52d2)" style="fill: none; stroke: #0f766e; stroke-width: 1.7"/>
    <path d="M 379.126635 184.461818
L 379.126635 178.915448
" clip-path="url(#p4a344e52d2)" style="fill: none; stroke: #0f766e; stroke-width: 1.7"/>
   </g>
   <g id="LineCollection_2">
    <path d="M 32.628209 175.710324
L 32.628209 170.170381
" clip-path="url(#p4a344e52d2)" style="fill: none; stroke: #0f766e; stroke-width: 1.7"/>
    <path d="M 67.278051 169.895372
L 67.278051 163.960294
" clip-path="url(#p4a344e52d2)" style="fill: none; stroke: #0f766e; stroke-width: 1.7"/>
    <path d="M 101.927894 152.590609
L 101.927894 146.980338
" clip-path="url(#p4a344e52d2)" style="fill: none; stroke: #0f766e; stroke-width: 1.7"/>
    <path d="M 136.577737 132.263496
L 136.577737 127.236702
" clip-path="url(#p4a344e52d2)" style="fill: none; stroke: #0f766e; stroke-width: 1.7"/>
    <path d="M 171.227579 99.930647
L 171.227579 94.588654
" clip-path="url(#p4a344e52d2)" style="fill: none; stroke: #0f766e; stroke-width: 1.7"/>
    <path d="M 205.877422 90.366664
L 205.877422 84.455401
" clip-path="url(#p4a344e52d2)" style="fill: none; stroke: #0f766e; stroke-width: 1.7"/>
    <path d="M 240.527264 99.586964
L 240.527264 94.374823
" clip-path="url(#p4a344e52d2)" style="fill: none; stroke: #0f766e; stroke-width: 1.7"/>
    <path d="M 275.177107 125.444384
L 275.177107 121.161913
" clip-path="url(#p4a344e52d2)" style="fill: none; stroke: #0f766e; stroke-width: 1.7"/>
    <path d="M 309.82695 153.363267
L 309.82695 148.821574
" clip-path="url(#p4a344e52d2)" style="fill: none; stroke: #0f766e; stroke-width: 1.7"/>
    <path d="M 344.476792 168.565252
L 344.476792 162.967579
" clip-path="url(#p4a344e52d2)" style="fill: none; stroke: #0f766e; stroke-width: 1.7"/>
    <path d="M 379.126635 173.584157
L 379.126635 168.024573
" clip-path="url(#p4a344e52d2)" style="fill: none; stroke: #0f766e; stroke-width: 1.7"/>
   </g>
   <g id="LineCollection_3">
    <path d="M 32.628209 172.399489
L 32.628209 167.037357
" clip-path="url(#p4a344e52d2)" style="fill: none; stroke: #0f766e; stroke-width: 1.7"/>
    <path d="M 67.278051 171.18848
L 67.278051 167.157292
" clip-path="url(#p4a344e52d2)" style="fill: none; stroke: #0f766e; stroke-width: 1.7"/>
    <path d="M 101.927894 157.291351
L 101.927894 153.605055
" clip-path="url(#p4a344e52d2)" style="fill: none; stroke: #0f766e; stroke-width: 1.7"/>
    <path d="M 136.577737 130.113682
L 136.577737 125.237049
" clip-path="url(#p4a344e52d2)" style="fill: none; stroke: #0f766e; stroke-width: 1.7"/>
    <path d="M 171.227579 94.5835
L 171.227579 90.346971
" clip-path="url(#p4a344e52d2)" style="fill: none; stroke: #0f766e; stroke-width: 1.7"/>
    <path d="M 205.877422 60.782502
L 205.877422 55.507743
" clip-path="url(#p4a344e52d2)" style="fill: none; stroke: #0f766e; stroke-width: 1.7"/>
    <path d="M 240.527264 48.369281
L 240.527264 43.446215
" clip-path="url(#p4a344e52d2)" style="fill: none; stroke: #0f766e; stroke-width: 1.7"/>
    <path d="M 275.177107 67.653248
L 275.177107 61.53136
" clip-path="url(#p4a344e52d2)" style="fill: none; stroke: #0f766e; stroke-width: 1.7"/>
    <path d="M 309.82695 109.773787
L 309.82695 103.801816
" clip-path="url(#p4a344e52d2)" style="fill: none; stroke: #0f766e; stroke-width: 1.7"/>
    <path d="M 344.476792 142.376937
L 344.476792 137.141992
" clip-path="url(#p4a344e52d2)" style="fill: none; stroke: #0f766e; stroke-width: 1.7"/>
    <path d="M 379.126635 165.928956
L 379.126635 159.351518
" clip-path="url(#p4a344e52d2)" style="fill: none; stroke: #0f766e; stroke-width: 1.7"/>
   </g>
   <g id="line2d_23">
    <path d="M 101.927894 201.383979
L 101.927894 15.989303
" clip-path="url(#p4a344e52d2)" style="fill: none; stroke-dasharray: 1.2,1.98; stroke-dashoffset: 0; stroke: #111827; stroke-opacity: 0.85; stroke-width: 1.2"/>
   </g>
   <g id="line2d_24">
    <path d="M 32.628209 182.69817
L 67.278051 177.786223
L 101.927894 177.848503
L 136.577737 178.703865
L 171.227579 170.759683
L 205.877422 169.420741
L 240.527264 174.862944
L 275.177107 173.544411
L 309.82695 177.742196
L 344.476792 182.341122
L 379.126635 181.688633
" clip-path="url(#p4a344e52d2)" style="fill: none; stroke: #0f766e; stroke-width: 1.7; stroke-linecap: square"/>
    <defs>
     <path id="m50eabf4d7f" d="M 0 3
C 0.795609 3 1.55874 2.683901 2.12132 2.12132
C 2.683901 1.55874 3 0.795609 3 0
C 3 -0.795609 2.683901 -1.55874 2.12132 -2.12132
C 1.55874 -2.683901 0.795609 -3 0 -3
C -0.795609 -3 -1.55874 -2.683901 -2.12132 -2.12132
C -2.683901 -1.55874 -3 -0.795609 -3 0
C -3 0.795609 -2.683901 1.55874 -2.12132 2.12132
C -1.55874 2.683901 -0.795609 3 0 3
z
" style="stroke: #0f766e"/>
    </defs>
    <g clip-path="url(#p4a344e52d2)">
     <use xlink:href="#m50eabf4d7f" x="32.628209" y="182.69817" style="fill: #0f766e; stroke: #0f766e"/>
     <use xlink:href="#m50eabf4d7f" x="67.278051" y="177.786223" style="fill: #0f766e; stroke: #0f766e"/>
     <use xlink:href="#m50eabf4d7f" x="101.927894" y="177.848503" style="fill: #0f766e; stroke: #0f766e"/>
     <use xlink:href="#m50eabf4d7f" x="136.577737" y="178.703865" style="fill: #0f766e; stroke: #0f766e"/>
     <use xlink:href="#m50eabf4d7f" x="171.227579" y="170.759683" style="fill: #0f766e; stroke: #0f766e"/>
     <use xlink:href="#m50eabf4d7f" x="205.877422" y="169.420741" style="fill: #0f766e; stroke: #0f766e"/>
     <use xlink:href="#m50eabf4d7f" x="240.527264" y="174.862944" style="fill: #0f766e; stroke: #0f766e"/>
     <use xlink:href="#m50eabf4d7f" x="275.177107" y="173.544411" style="fill: #0f766e; stroke: #0f766e"/>
     <use xlink:href="#m50eabf4d7f" x="309.82695" y="177.742196" style="fill: #0f766e; stroke: #0f766e"/>
     <use xlink:href="#m50eabf4d7f" x="344.476792" y="182.341122" style="fill: #0f766e; stroke: #0f766e"/>
     <use xlink:href="#m50eabf4d7f" x="379.126635" y="181.688633" style="fill: #0f766e; stroke: #0f766e"/>
    </g>
   </g>
   <g id="line2d_25">
    <path d="M 32.628209 172.940353
L 67.278051 166.927833
L 101.927894 149.785473
L 136.577737 129.750099
L 171.227579 97.25965
L 205.877422 87.411032
L 240.527264 96.980894
L 275.177107 123.303148
L 309.82695 151.09242
L 344.476792 165.766415
L 379.126635 170.804365
" clip-path="url(#p4a344e52d2)" style="fill: none; stroke: #0f766e; stroke-width: 1.7; stroke-linecap: square"/>
    <g clip-path="url(#p4a344e52d2)">
     <use xlink:href="#m50eabf4d7f" x="32.628209" y="172.940353" style="fill: #0f766e; stroke: #0f766e"/>
     <use xlink:href="#m50eabf4d7f" x="67.278051" y="166.927833" style="fill: #0f766e; stroke: #0f766e"/>
     <use xlink:href="#m50eabf4d7f" x="101.927894" y="149.785473" style="fill: #0f766e; stroke: #0f766e"/>
     <use xlink:href="#m50eabf4d7f" x="136.577737" y="129.750099" style="fill: #0f766e; stroke: #0f766e"/>
     <use xlink:href="#m50eabf4d7f" x="171.227579" y="97.25965" style="fill: #0f766e; stroke: #0f766e"/>
     <use xlink:href="#m50eabf4d7f" x="205.877422" y="87.411032" style="fill: #0f766e; stroke: #0f766e"/>
     <use xlink:href="#m50eabf4d7f" x="240.527264" y="96.980894" style="fill: #0f766e; stroke: #0f766e"/>
     <use xlink:href="#m50eabf4d7f" x="275.177107" y="123.303148" style="fill: #0f766e; stroke: #0f766e"/>
     <use xlink:href="#m50eabf4d7f" x="309.82695" y="151.09242" style="fill: #0f766e; stroke: #0f766e"/>
     <use xlink:href="#m50eabf4d7f" x="344.476792" y="165.766415" style="fill: #0f766e; stroke: #0f766e"/>
     <use xlink:href="#m50eabf4d7f" x="379.126635" y="170.804365" style="fill: #0f766e; stroke: #0f766e"/>
    </g>
   </g>
   <g id="line2d_26">
    <path d="M 32.628209 169.718423
L 67.278051 169.172886
L 101.927894 155.448203
L 136.577737 127.675366
L 171.227579 92.465235
L 205.877422 58.145122
L 240.527264 45.907748
L 275.177107 64.592304
L 309.82695 106.787802
L 344.476792 139.759465
L 379.126635 162.640237
" clip-path="url(#p4a344e52d2)" style="fill: none; stroke: #0f766e; stroke-width: 1.7; stroke-linecap: square"/>
    <g clip-path="url(#p4a344e52d2)">
     <use xlink:href="#m50eabf4d7f" x="32.628209" y="169.718423" style="fill: #0f766e; stroke: #0f766e"/>
     <use xlink:href="#m50eabf4d7f" x="67.278051" y="169.172886" style="fill: #0f766e; stroke: #0f766e"/>
     <use xlink:href="#m50eabf4d7f" x="101.927894" y="155.448203" style="fill: #0f766e; stroke: #0f766e"/>
     <use xlink:href="#m50eabf4d7f" x="136.577737" y="127.675366" style="fill: #0f766e; stroke: #0f766e"/>
     <use xlink:href="#m50eabf4d7f" x="171.227579" y="92.465235" style="fill: #0f766e; stroke: #0f766e"/>
     <use xlink:href="#m50eabf4d7f" x="205.877422" y="58.145122" style="fill: #0f766e; stroke: #0f766e"/>
     <use xlink:href="#m50eabf4d7f" x="240.527264" y="45.907748" style="fill: #0f766e; stroke: #0f766e"/>
     <use xlink:href="#m50eabf4d7f" x="275.177107" y="64.592304" style="fill: #0f766e; stroke: #0f766e"/>
     <use xlink:href="#m50eabf4d7f" x="309.82695" y="106.787802" style="fill: #0f766e; stroke: #0f766e"/>
     <use xlink:href="#m50eabf4d7f" x="344.476792" y="139.759465" style="fill: #0f766e; stroke: #0f766e"/>
     <use xlink:href="#m50eabf4d7f" x="379.126635" y="162.640237" style="fill: #0f766e; stroke: #0f766e"/>
    </g>
   </g>
   <g id="patch_3">
    <path d="M 32.628209 201.383979
L 32.628209 15.989303
" style="fill: none; stroke: #000000; stroke-width: 0.8; stroke-linejoin: miter; stroke-linecap: square"/>
   </g>
   <g id="patch_4">
    <path d="M 379.126635 201.383979
L 379.126635 15.989303
" style="fill: none; stroke: #000000; stroke-width: 0.8; stroke-linejoin: miter; stroke-linecap: square"/>
   </g>
   <g id="patch_5">
    <path d="M 32.628209 201.383979
L 379.126635 201.383979
" style="fill: none; stroke: #000000; stroke-width: 0.8; stroke-linejoin: miter; stroke-linecap: square"/>
   </g>
   <g id="patch_6">
    <path d="M 32.628209 15.989303
L 379.126635 15.989303
" style="fill: none; stroke: #000000; stroke-width: 0.8; stroke-linejoin: miter; stroke-linecap: square"/>
   </g>
   <g id="text_14">
    <!-- Bundled neuro core trial-response recipe -->
    <g transform="translate(119.167672 9.989303) scale(0.096 -0.096)">
     <defs>
      <path id="ArialMT-25" d="M 469 0
L 469 4581
L 2188 4581
Q 2713 4581 3030 4442
Q 3347 4303 3526 4014
Q 3706 3725 3706 3409
Q 3706 3116 3547 2856
Q 3388 2597 3066 2438
Q 3481 2316 3704 2022
Q 3928 1728 3928 1328
Q 3928 1006 3792 729
Q 3656 453 3456 303
Q 3256 153 2954 76
Q 2653 0 2216 0
L 469 0
z
M 1075 2656
L 2066 2656
Q 2469 2656 2644 2709
Q 2875 2778 2992 2937
Q 3109 3097 3109 3338
Q 3109 3566 3000 3739
Q 2891 3913 2687 3977
Q 2484 4041 1991 4041
L 1075 4041
L 1075 2656
z
M 1075 541
L 2216 541
Q 2509 541 2628 563
Q 2838 600 2978 687
Q 3119 775 3209 942
Q 3300 1109 3300 1328
Q 3300 1584 3169 1773
Q 3038 1963 2805 2039
Q 2572 2116 2134 2116
L 1075 2116
L 1075 541
z
" transform="scale(0.015625)"/>
      <path id="ArialMT-47" d="M 2575 0
L 2575 419
Q 2259 -75 1647 -75
Q 1250 -75 917 144
Q 584 363 401 755
Q 219 1147 219 1656
Q 219 2153 384 2558
Q 550 2963 881 3178
Q 1213 3394 1622 3394
Q 1922 3394 2156 3267
Q 2391 3141 2538 2938
L 2538 4581
L 3097 4581
L 3097 0
L 2575 0
z
M 797 1656
Q 797 1019 1065 703
Q 1334 388 1700 388
Q 2069 388 2326 689
Q 2584 991 2584 1609
Q 2584 2291 2321 2609
Q 2059 2928 1675 2928
Q 1300 2928 1048 2622
Q 797 2316 797 1656
z
" transform="scale(0.015625)"/>
      <path id="ArialMT-46" d="M 2588 1216
L 3141 1144
Q 3050 572 2676 248
Q 2303 -75 1759 -75
Q 1078 -75 664 370
Q 250 816 250 1647
Q 250 2184 428 2587
Q 606 2991 970 3192
Q 1334 3394 1763 3394
Q 2303 3394 2647 3120
Q 2991 2847 3088 2344
L 2541 2259
Q 2463 2594 2264 2762
Q 2066 2931 1784 2931
Q 1359 2931 1093 2626
Q 828 2322 828 1663
Q 828 994 1084 691
Q 1341 388 1753 388
Q 2084 388 2306 591
Q 2528 794 2588 1216
z
" transform="scale(0.015625)"/>
      <path id="ArialMT-44" d="M 2588 409
Q 2275 144 1986 34
Q 1697 -75 1366 -75
Q 819 -75 525 192
Q 231 459 231 875
Q 231 1119 342 1320
Q 453 1522 633 1644
Q 813 1766 1038 1828
Q 1203 1872 1538 1913
Q 2219 1994 2541 2106
Q 2544 2222 2544 2253
Q 2544 2597 2384 2738
Q 2169 2928 1744 2928
Q 1347 2928 1158 2789
Q 969 2650 878 2297
L 328 2372
Q 403 2725 575 2942
Q 747 3159 1072 3276
Q 1397 3394 1825 3394
Q 2250 3394 2515 3294
Q 2781 3194 2906 3042
Q 3031 2891 3081 2659
Q 3109 2516 3109 2141
L 3109 1391
Q 3109 606 3145 398
Q 3181 191 3288 0
L 2700 0
Q 2613 175 2588 409
z
M 2541 1666
Q 2234 1541 1622 1453
Q 1275 1403 1131 1340
Q 988 1278 909 1158
Q 831 1038 831 891
Q 831 666 1001 516
Q 1172 366 1500 366
Q 1825 366 2078 508
Q 2331 650 2450 897
Q 2541 1088 2541 1459
L 2541 1666
z
" transform="scale(0.015625)"/>
      <path id="ArialMT-10" d="M 203 1375
L 203 1941
L 1931 1941
L 1931 1375
L 203 1375
z
" transform="scale(0.015625)"/>
     </defs>
     <use xlink:href="#ArialMT-25"/>
     <use xlink:href="#ArialMT-58" transform="translate(66.703125 0)"/>
     <use xlink:href="#ArialMT-51" transform="translate(122.3125 0)"/>
     <use xlink:href="#ArialMT-47" transform="translate(177.921875 0)"/>
     <use xlink:href="#ArialMT-4f" transform="translate(233.53125 0)"/>
     <use xlink:href="#ArialMT-48" transform="translate(255.75 0)"/>
     <use xlink:href="#ArialMT-47" transform="translate(311.359375 0)"/>
     <use xlink:href="#ArialMT-3" transform="translate(366.96875 0)"/>
     <use xlink:href="#ArialMT-51" transform="translate(394.75 0)"/>
     <use xlink:href="#ArialMT-48" transform="translate(450.359375 0)"/>
     <use xlink:href="#ArialMT-58" transform="translate(505.96875 0)"/>
     <use xlink:href="#ArialMT-55" transform="translate(561.578125 0)"/>
     <use xlink:href="#ArialMT-52" transform="translate(594.875 0)"/>
     <use xlink:href="#ArialMT-3" transform="translate(650.484375 0)"/>
     <use xlink:href="#ArialMT-46" transform="translate(678.265625 0)"/>
     <use xlink:href="#ArialMT-52" transform="translate(728.265625 0)"/>
     <use xlink:href="#ArialMT-55" transform="translate(783.875 0)"/>
     <use xlink:href="#ArialMT-48" transform="translate(817.171875 0)"/>
     <use xlink:href="#ArialMT-3" transform="translate(872.78125 0)"/>
     <use xlink:href="#ArialMT-57" transform="translate(900.5625 0)"/>
     <use xlink:href="#ArialMT-55" transform="translate(928.34375 0)"/>
     <use xlink:href="#ArialMT-4c" transform="translate(961.640625 0)"/>
     <use xlink:href="#ArialMT-44" transform="translate(983.859375 0)"/>
     <use xlink:href="#ArialMT-4f" transform="translate(1039.46875 0)"/>
     <use xlink:href="#ArialMT-10" transform="translate(1061.6875 0)"/>
     <use xlink:href="#ArialMT-55" transform="translate(1094.984375 0)"/>
     <use xlink:href="#ArialMT-48" transform="translate(1128.28125 0)"/>
     <use xlink:href="#ArialMT-56" transform="translate(1183.890625 0)"/>
     <use xlink:href="#ArialMT-53" transform="translate(1233.890625 0)"/>
     <use xlink:href="#ArialMT-52" transform="translate(1289.5 0)"/>
     <use xlink:href="#ArialMT-51" transform="translate(1345.109375 0)"/>
     <use xlink:href="#ArialMT-56" transform="translate(1400.71875 0)"/>
     <use xlink:href="#ArialMT-48" transform="translate(1450.71875 0)"/>
     <use xlink:href="#ArialMT-3" transform="translate(1506.328125 0)"/>
     <use xlink:href="#ArialMT-55" transform="translate(1534.109375 0)"/>
     <use xlink:href="#ArialMT-48" transform="translate(1567.40625 0)"/>
     <use xlink:href="#ArialMT-46" transform="translate(1623.015625 0)"/>
     <use xlink:href="#ArialMT-4c" transform="translate(1673.015625 0)"/>
     <use xlink:href="#ArialMT-53" transform="translate(1695.234375 0)"/>
     <use xlink:href="#ArialMT-48" transform="translate(1750.84375 0)"/>
    </g>
   </g>
   <g id="legend_1">
    <g id="patch_7">
     <path d="M 38.228209 68.420553
L 140.305709 68.420553
Q 141.905709 68.420553 141.905709 66.820553
L 141.905709 21.589303
Q 141.905709 19.989303 140.305709 19.989303
L 38.228209 19.989303
Q 36.628209 19.989303 36.628209 21.589303
L 36.628209 66.820553
Q 36.628209 68.420553 38.228209 68.420553
z
" style="fill: #ffffff; opacity: 0.8; stroke: #cccccc; stroke-linejoin: miter"/>
    </g>
    <g id="line2d_27">
     <path d="M 39.828209 26.213521
L 47.828209 26.213521
L 55.828209 26.213521
" style="fill: none; stroke-dasharray: 1.2,1.98; stroke-dashoffset: 0; stroke: #111827; stroke-opacity: 0.85; stroke-width: 1.2"/>
    </g>
    <g id="text_15">
     <!-- Stimulus onset -->
     <g transform="translate(62.228209 29.013521) scale(0.08 -0.08)">
      <defs>
       <path id="ArialMT-36" d="M 288 1472
L 859 1522
Q 900 1178 1048 958
Q 1197 738 1509 602
Q 1822 466 2213 466
Q 2559 466 2825 569
Q 3091 672 3220 851
Q 3350 1031 3350 1244
Q 3350 1459 3225 1620
Q 3100 1781 2813 1891
Q 2628 1963 1997 2114
Q 1366 2266 1113 2400
Q 784 2572 623 2826
Q 463 3081 463 3397
Q 463 3744 659 4045
Q 856 4347 1234 4503
Q 1613 4659 2075 4659
Q 2584 4659 2973 4495
Q 3363 4331 3572 4012
Q 3781 3694 3797 3291
L 3216 3247
Q 3169 3681 2898 3903
Q 2628 4125 2100 4125
Q 1550 4125 1298 3923
Q 1047 3722 1047 3438
Q 1047 3191 1225 3031
Q 1400 2872 2139 2705
Q 2878 2538 3153 2413
Q 3553 2228 3743 1945
Q 3934 1663 3934 1294
Q 3934 928 3725 604
Q 3516 281 3123 101
Q 2731 -78 2241 -78
Q 1619 -78 1198 103
Q 778 284 539 648
Q 300 1013 288 1472
z
" transform="scale(0.015625)"/>
      </defs>
      <use xlink:href="#ArialMT-36"/>
      <use xlink:href="#ArialMT-57" transform="translate(66.703125 0)"/>
      <use xlink:href="#ArialMT-4c" transform="translate(94.484375 0)"/>
      <use xlink:href="#ArialMT-50" transform="translate(116.703125 0)"/>
      <use xlink:href="#ArialMT-58" transform="translate(200 0)"/>
      <use xlink:href="#ArialMT-4f" transform="translate(255.609375 0)"/>
      <use xlink:href="#ArialMT-58" transform="translate(277.828125 0)"/>
      <use xlink:href="#ArialMT-56" transform="translate(333.4375 0)"/>
      <use xlink:href="#ArialMT-3" transform="translate(383.4375 0)"/>
      <use xlink:href="#ArialMT-52" transform="translate(411.21875 0)"/>
      <use xlink:href="#ArialMT-51" transform="translate(466.828125 0)"/>
      <use xlink:href="#ArialMT-56" transform="translate(522.4375 0)"/>
      <use xlink:href="#ArialMT-48" transform="translate(572.4375 0)"/>
      <use xlink:href="#ArialMT-57" transform="translate(628.046875 0)"/>
     </g>
    </g>
    <g id="LineCollection_4">
     <path d="M 47.828209 41.721334
L 47.828209 33.721334
" style="fill: none; stroke: #0f766e; stroke-width: 1.7"/>
    </g>
    <g id="line2d_28">
     <path d="M 39.828209 37.721334
L 55.828209 37.721334
" style="fill: none; stroke: #0f766e; stroke-width: 1.7; stroke-linecap: square"/>
    </g>
    <g id="line2d_29">
     <g>
      <use xlink:href="#m50eabf4d7f" x="47.828209" y="37.721334" style="fill: #0f766e; stroke: #0f766e"/>
     </g>
    </g>
    <g id="text_16">
     <!-- Response Baseline -->
     <g transform="translate(62.228209 40.521334) scale(0.08 -0.08)">
      <use xlink:href="#ArialMT-35"/>
      <use xlink:href="#ArialMT-48" transform="translate(72.21875 0)"/>
      <use xlink:href="#ArialMT-56" transform="translate(127.828125 0)"/>
      <use xlink:href="#ArialMT-53" transform="translate(177.828125 0)"/>
      <use xlink:href="#ArialMT-52" transform="translate(233.4375 0)"/>
      <use xlink:href="#ArialMT-51" transform="translate(289.046875 0)"/>
      <use xlink:href="#ArialMT-56" transform="translate(344.65625 0)"/>
      <use xlink:href="#ArialMT-48" transform="translate(394.65625 0)"/>
      <use xlink:href="#ArialMT-3" transform="translate(450.265625 0)"/>
      <use xlink:href="#ArialMT-25" transform="translate(478.046875 0)"/>
      <use xlink:href="#ArialMT-44" transform="translate(544.75 0)"/>
      <use xlink:href="#ArialMT-56" transform="translate(600.359375 0)"/>
      <use xlink:href="#ArialMT-48" transform="translate(650.359375 0)"/>
      <use xlink:href="#ArialMT-4f" transform="translate(705.96875 0)"/>
      <use xlink:href="#ArialMT-4c" transform="translate(728.1875 0)"/>
      <use xlink:href="#ArialMT-51" transform="translate(750.40625 0)"/>
      <use xlink:href="#ArialMT-48" transform="translate(806.015625 0)"/>
     </g>
    </g>
    <g id="LineCollection_5">
     <path d="M 47.828209 53.229146
L 47.828209 45.229146
" style="fill: none; stroke: #0f766e; stroke-width: 1.7"/>
    </g>
    <g id="line2d_30">
     <path d="M 39.828209 49.229146
L 55.828209 49.229146
" style="fill: none; stroke: #0f766e; stroke-width: 1.7; stroke-linecap: square"/>
    </g>
    <g id="line2d_31">
     <g>
      <use xlink:href="#m50eabf4d7f" x="47.828209" y="49.229146" style="fill: #0f766e; stroke: #0f766e"/>
     </g>
    </g>
    <g id="text_17">
     <!-- Response Stimulus A -->
     <g transform="translate(62.228209 52.029146) scale(0.08 -0.08)">
      <defs>
       <path id="ArialMT-24" d="M -9 0
L 1750 4581
L 2403 4581
L 4278 0
L 3588 0
L 3053 1388
L 1138 1388
L 634 0
L -9 0
z
M 1313 1881
L 2866 1881
L 2388 3150
Q 2169 3728 2063 4100
Q 1975 3659 1816 3225
L 1313 1881
z
" transform="scale(0.015625)"/>
      </defs>
      <use xlink:href="#ArialMT-35"/>
      <use xlink:href="#ArialMT-48" transform="translate(72.21875 0)"/>
      <use xlink:href="#ArialMT-56" transform="translate(127.828125 0)"/>
      <use xlink:href="#ArialMT-53" transform="translate(177.828125 0)"/>
      <use xlink:href="#ArialMT-52" transform="translate(233.4375 0)"/>
      <use xlink:href="#ArialMT-51" transform="translate(289.046875 0)"/>
      <use xlink:href="#ArialMT-56" transform="translate(344.65625 0)"/>
      <use xlink:href="#ArialMT-48" transform="translate(394.65625 0)"/>
      <use xlink:href="#ArialMT-3" transform="translate(450.265625 0)"/>
      <use xlink:href="#ArialMT-36" transform="translate(478.046875 0)"/>
      <use xlink:href="#ArialMT-57" transform="translate(544.75 0)"/>
      <use xlink:href="#ArialMT-4c" transform="translate(572.53125 0)"/>
      <use xlink:href="#ArialMT-50" transform="translate(594.75 0)"/>
      <use xlink:href="#ArialMT-58" transform="translate(678.046875 0)"/>
      <use xlink:href="#ArialMT-4f" transform="translate(733.65625 0)"/>
      <use xlink:href="#ArialMT-58" transform="translate(755.875 0)"/>
      <use xlink:href="#ArialMT-56" transform="translate(811.484375 0)"/>
      <use xlink:href="#ArialMT-3" transform="translate(861.484375 0)"/>
      <use xlink:href="#ArialMT-24" transform="translate(883.75 0)"/>
     </g>
    </g>
    <g id="LineCollection_6">
     <path d="M 47.828209 64.736959
L 47.828209 56.736959
" style="fill: none; stroke: #0f766e; stroke-width: 1.7"/>
    </g>
    <g id="line2d_32">
     <path d="M 39.828209 60.736959
L 55.828209 60.736959
" style="fill: none; stroke: #0f766e; stroke-width: 1.7; stroke-linecap: square"/>
    </g>
    <g id="line2d_33">
     <g>
      <use xlink:href="#m50eabf4d7f" x="47.828209" y="60.736959" style="fill: #0f766e; stroke: #0f766e"/>
     </g>
    </g>
    <g id="text_18">
     <!-- Response Stimulus B -->
     <g transform="translate(62.228209 63.536959) scale(0.08 -0.08)">
      <use xlink:href="#ArialMT-35"/>
      <use xlink:href="#ArialMT-48" transform="translate(72.21875 0)"/>
      <use xlink:href="#ArialMT-56" transform="translate(127.828125 0)"/>
      <use xlink:href="#ArialMT-53" transform="translate(177.828125 0)"/>
      <use xlink:href="#ArialMT-52" transform="translate(233.4375 0)"/>
      <use xlink:href="#ArialMT-51" transform="translate(289.046875 0)"/>
      <use xlink:href="#ArialMT-56" transform="translate(344.65625 0)"/>
      <use xlink:href="#ArialMT-48" transform="translate(394.65625 0)"/>
      <use xlink:href="#ArialMT-3" transform="translate(450.265625 0)"/>
      <use xlink:href="#ArialMT-36" transform="translate(478.046875 0)"/>
      <use xlink:href="#ArialMT-57" transform="translate(544.75 0)"/>
      <use xlink:href="#ArialMT-4c" transform="translate(572.53125 0)"/>
      <use xlink:href="#ArialMT-50" transform="translate(594.75 0)"/>
      <use xlink:href="#ArialMT-58" transform="translate(678.046875 0)"/>
      <use xlink:href="#ArialMT-4f" transform="translate(733.65625 0)"/>
      <use xlink:href="#ArialMT-58" transform="translate(755.875 0)"/>
      <use xlink:href="#ArialMT-56" transform="translate(811.484375 0)"/>
      <use xlink:href="#ArialMT-3" transform="translate(861.484375 0)"/>
      <use xlink:href="#ArialMT-25" transform="translate(889.265625 0)"/>
     </g>
    </g>
   </g>
  </g>
 </g>
 <defs>
  <clipPath id="p4a344e52d2">
   <rect x="32.628209" y="15.989303" width="346.498426" height="185.394676"/>
  </clipPath>
 </defs>
</svg>
