<?xml version="1.0" encoding="utf-8" standalone="no"?>
<!DOCTYPE svg PUBLIC "-//W3C//DTD SVG 1.1//EN"
  "http://www.w3.org/Graphics/SVG/1.1/DTD/svg11.dtd">
<svg xmlns:xlink="http://www.w3.org/1999/xlink" width="454.79952pt" height="253.19952pt" viewBox="0 0 454.79952 253.19952" xmlns="http://www.w3.org/2000/svg" version="1.1">
 <metadata>
  <rdf:RDF xmlns:dc="http://purl.org/dc/elements/1.1/" xmlns:cc="http://creativecommons.org/ns#" xmlns:rdf="http://www.w3.org/1999/02/22-rdf-syntax-ns#">
   <cc:Work>
    <dc:type rdf:resource="http://purl.org/dc/dcmitype/StillImage"/>
    <dc:date>2026-06-20T18:30:45.062868</dc:date>
    <dc:format>image/svg+xml</dc:format>
    <dc:creator>
     <cc:Agent>
      <dc:title>Matplotlib v3.11.0, https://matplotlib.org/</dc:title>
     </cc:Agent>
    </dc:creator>
   </cc:Work>
  </rdf:RDF>
 </metadata>
 <defs>
  <style type="text/css">*{stroke-linejoin: round; stroke-linecap: butt}</style>
 </defs>
 <g id="figure_1">
  <g id="patch_1">
   <path d="M 0 253.19952 
L 454.79952 253.19952 
L 454.79952 0 
L 0 0 
z
" style="fill: #ffffff"/>
  </g>
  <g id="axes_1">
   <g id="patch_2">
    <path d="M 39.156465 218.106766 
L 415.643231 218.106766 
L 415.643231 21.062695 
L 39.156465 21.062695 
z
" style="fill: #ffffff"/>
   </g>
   <g id="matplotlib.axis_1">
    <g id="xtick_1">
     <g id="line2d_1">
      <path d="M 56.2695 218.106766 
L 56.2695 21.062695 
" clip-path="url(#p2a818a3f61)" style="fill: none; stroke: #b0b0b0; stroke-opacity: 0.25; stroke-width: 0.8; stroke-linecap: square"/>
     </g>
     <g id="line2d_2">
      <defs>
       <path id="md178c8a809" d="M 0 0 
L 0 3.5 
" style="stroke: #000000; stroke-width: 0.8"/>
      </defs>
      <g>
       <use xlink:href="#md178c8a809" x="56.2695" y="218.106766" style="stroke: #000000; stroke-width: 0.8"/>
      </g>
     </g>
     <g id="text_1">
      <!-- 0 -->
      <g transform="translate(53.767078 231.659012) scale(0.09 -0.09)">
       <defs>
        <path id="ArialMT-13" d="M 266 2259 
Q 266 3072 433 3567 
Q 600 4063 929 4331 
Q 1259 4600 1759 4600 
Q 2128 4600 2406 4451 
Q 2684 4303 2865 4023 
Q 3047 3744 3150 3342 
Q 3253 2941 3253 2259 
Q 3253 1453 3087 958 
Q 2922 463 2592 192 
Q 2263 -78 1759 -78 
Q 1097 -78 719 397 
Q 266 969 266 2259 
z
M 844 2259 
Q 844 1131 1108 757 
Q 1372 384 1759 384 
Q 2147 384 2411 759 
Q 2675 1134 2675 2259 
Q 2675 3391 2411 3762 
Q 2147 4134 1753 4134 
Q 1366 4134 1134 3806 
Q 844 3388 844 2259 
z
" transform="scale(0.015625)"/>
       </defs>
       <use xlink:href="#ArialMT-13"/>
      </g>
     </g>
    </g>
    <g id="xtick_2">
     <g id="line2d_3">
      <path d="M 113.312949 218.106766 
L 113.312949 21.062695 
" clip-path="url(#p2a818a3f61)" style="fill: none; stroke: #b0b0b0; stroke-opacity: 0.25; stroke-width: 0.8; stroke-linecap: square"/>
     </g>
     <g id="line2d_4">
      <g>
       <use xlink:href="#md178c8a809" x="113.312949" y="218.106766" style="stroke: #000000; stroke-width: 0.8"/>
      </g>
     </g>
     <g id="text_2">
      <!-- 10 -->
      <g transform="translate(108.308105 231.659012) scale(0.09 -0.09)">
       <defs>
        <path id="ArialMT-14" d="M 2384 0 
L 1822 0 
L 1822 3584 
Q 1619 3391 1289 3197 
Q 959 3003 697 2906 
L 697 3450 
Q 1169 3672 1522 3987 
Q 1875 4303 2022 4600 
L 2384 4600 
L 2384 0 
z
" transform="scale(0.015625)"/>
       </defs>
       <use xlink:href="#ArialMT-14"/>
       <use xlink:href="#ArialMT-13" transform="translate(55.609375 0)"/>
      </g>
     </g>
    </g>
    <g id="xtick_3">
     <g id="line2d_5">
      <path d="M 170.356398 218.106766 
L 170.356398 21.062695 
" clip-path="url(#p2a818a3f61)" style="fill: none; stroke: #b0b0b0; stroke-opacity: 0.25; stroke-width: 0.8; stroke-linecap: square"/>
     </g>
     <g id="line2d_6">
      <g>
       <use xlink:href="#md178c8a809" x="170.356398" y="218.106766" style="stroke: #000000; stroke-width: 0.8"/>
      </g>
     </g>
     <g id="text_3">
      <!-- 20 -->
      <g transform="translate(165.351555 231.659012) scale(0.09 -0.09)">
       <defs>
        <path id="ArialMT-15" d="M 3222 541 
L 3222 0 
L 194 0 
Q 188 203 259 391 
Q 375 700 629 1000 
Q 884 1300 1366 1694 
Q 2113 2306 2375 2664 
Q 2638 3022 2638 3341 
Q 2638 3675 2398 3904 
Q 2159 4134 1775 4134 
Q 1369 4134 1125 3890 
Q 881 3647 878 3216 
L 300 3275 
Q 359 3922 746 4261 
Q 1134 4600 1788 4600 
Q 2447 4600 2831 4234 
Q 3216 3869 3216 3328 
Q 3216 3053 3103 2787 
Q 2991 2522 2730 2228 
Q 2469 1934 1863 1422 
Q 1356 997 1212 845 
Q 1069 694 975 541 
L 3222 541 
z
" transform="scale(0.015625)"/>
       </defs>
       <use xlink:href="#ArialMT-15"/>
       <use xlink:href="#ArialMT-13" transform="translate(55.609375 0)"/>
      </g>
     </g>
    </g>
    <g id="xtick_4">
     <g id="line2d_7">
      <path d="M 227.399848 218.106766 
L 227.399848 21.062695 
" clip-path="url(#p2a818a3f61)" style="fill: none; stroke: #b0b0b0; stroke-opacity: 0.25; stroke-width: 0.8; stroke-linecap: square"/>
     </g>
     <g id="line2d_8">
      <g>
       <use xlink:href="#md178c8a809" x="227.399848" y="218.106766" style="stroke: #000000; stroke-width: 0.8"/>
      </g>
     </g>
     <g id="text_4">
      <!-- 30 -->
      <g transform="translate(222.395004 231.659012) scale(0.09 -0.09)">
       <defs>
        <path id="ArialMT-16" d="M 269 1209 
L 831 1284 
Q 928 806 1161 595 
Q 1394 384 1728 384 
Q 2125 384 2398 659 
Q 2672 934 2672 1341 
Q 2672 1728 2419 1979 
Q 2166 2231 1775 2231 
Q 1616 2231 1378 2169 
L 1441 2663 
Q 1497 2656 1531 2656 
Q 1891 2656 2178 2843 
Q 2466 3031 2466 3422 
Q 2466 3731 2256 3934 
Q 2047 4138 1716 4138 
Q 1388 4138 1169 3931 
Q 950 3725 888 3313 
L 325 3413 
Q 428 3978 793 4289 
Q 1159 4600 1703 4600 
Q 2078 4600 2393 4439 
Q 2709 4278 2876 4000 
Q 3044 3722 3044 3409 
Q 3044 3113 2884 2869 
Q 2725 2625 2413 2481 
Q 2819 2388 3044 2092 
Q 3269 1797 3269 1353 
Q 3269 753 2831 336 
Q 2394 -81 1725 -81 
Q 1122 -81 723 278 
Q 325 638 269 1209 
z
" transform="scale(0.015625)"/>
       </defs>
       <use xlink:href="#ArialMT-16"/>
       <use xlink:href="#ArialMT-13" transform="translate(55.609375 0)"/>
      </g>
     </g>
    </g>
    <g id="xtick_5">
     <g id="line2d_9">
      <path d="M 284.443297 218.106766 
L 284.443297 21.062695 
" clip-path="url(#p2a818a3f61)" style="fill: none; stroke: #b0b0b0; stroke-opacity: 0.25; stroke-width: 0.8; stroke-linecap: square"/>
     </g>
     <g id="line2d_10">
      <g>
       <use xlink:href="#md178c8a809" x="284.443297" y="218.106766" style="stroke: #000000; stroke-width: 0.8"/>
      </g>
     </g>
     <g id="text_5">
      <!-- 40 -->
      <g transform="translate(279.438454 231.659012) scale(0.09 -0.09)">
       <defs>
        <path id="ArialMT-17" d="M 2069 0 
L 2069 1097 
L 81 1097 
L 81 1613 
L 2172 4581 
L 2631 4581 
L 2631 1613 
L 3250 1613 
L 3250 1097 
L 2631 1097 
L 2631 0 
L 2069 0 
z
M 2069 1613 
L 2069 3678 
L 634 1613 
L 2069 1613 
z
" transform="scale(0.015625)"/>
       </defs>
       <use xlink:href="#ArialMT-17"/>
       <use xlink:href="#ArialMT-13" transform="translate(55.609375 0)"/>
      </g>
     </g>
    </g>
    <g id="xtick_6">
     <g id="line2d_11">
      <path d="M 341.486747 218.106766 
L 341.486747 21.062695 
" clip-path="url(#p2a818a3f61)" style="fill: none; stroke: #b0b0b0; stroke-opacity: 0.25; stroke-width: 0.8; stroke-linecap: square"/>
     </g>
     <g id="line2d_12">
      <g>
       <use xlink:href="#md178c8a809" x="341.486747" y="218.106766" style="stroke: #000000; stroke-width: 0.8"/>
      </g>
     </g>
     <g id="text_6">
      <!-- 50 -->
      <g transform="translate(336.481903 231.659012) scale(0.09 -0.09)">
       <defs>
        <path id="ArialMT-18" d="M 266 1200 
L 856 1250 
Q 922 819 1161 601 
Q 1400 384 1738 384 
Q 2144 384 2425 690 
Q 2706 997 2706 1503 
Q 2706 1984 2436 2262 
Q 2166 2541 1728 2541 
Q 1456 2541 1237 2417 
Q 1019 2294 894 2097 
L 366 2166 
L 809 4519 
L 3088 4519 
L 3088 3981 
L 1259 3981 
L 1013 2750 
Q 1425 3038 1878 3038 
Q 2478 3038 2890 2622 
Q 3303 2206 3303 1553 
Q 3303 931 2941 478 
Q 2500 -78 1738 -78 
Q 1113 -78 717 272 
Q 322 622 266 1200 
z
" transform="scale(0.015625)"/>
       </defs>
       <use xlink:href="#ArialMT-18"/>
       <use xlink:href="#ArialMT-13" transform="translate(55.609375 0)"/>
      </g>
     </g>
    </g>
    <g id="xtick_7">
     <g id="line2d_13">
      <path d="M 398.530196 218.106766 
L 398.530196 21.062695 
" clip-path="url(#p2a818a3f61)" style="fill: none; stroke: #b0b0b0; stroke-opacity: 0.25; stroke-width: 0.8; stroke-linecap: square"/>
     </g>
     <g id="line2d_14">
      <g>
       <use xlink:href="#md178c8a809" x="398.530196" y="218.106766" style="stroke: #000000; stroke-width: 0.8"/>
      </g>
     </g>
     <g id="text_7">
      <!-- 60 -->
      <g transform="translate(393.525352 231.659012) scale(0.09 -0.09)">
       <defs>
        <path id="ArialMT-19" d="M 3184 3459 
L 2625 3416 
Q 2550 3747 2413 3897 
Q 2184 4138 1850 4138 
Q 1581 4138 1378 3988 
Q 1113 3794 959 3422 
Q 806 3050 800 2363 
Q 1003 2672 1297 2822 
Q 1591 2972 1913 2972 
Q 2475 2972 2870 2558 
Q 3266 2144 3266 1488 
Q 3266 1056 3080 686 
Q 2894 316 2569 119 
Q 2244 -78 1831 -78 
Q 1128 -78 684 439 
Q 241 956 241 2144 
Q 241 3472 731 4075 
Q 1159 4600 1884 4600 
Q 2425 4600 2770 4297 
Q 3116 3994 3184 3459 
z
M 888 1484 
Q 888 1194 1011 928 
Q 1134 663 1356 523 
Q 1578 384 1822 384 
Q 2178 384 2434 671 
Q 2691 959 2691 1453 
Q 2691 1928 2437 2201 
Q 2184 2475 1800 2475 
Q 1419 2475 1153 2201 
Q 888 1928 888 1484 
z
" transform="scale(0.015625)"/>
       </defs>
       <use xlink:href="#ArialMT-19"/>
       <use xlink:href="#ArialMT-13" transform="translate(55.609375 0)"/>
      </g>
     </g>
    </g>
    <g id="text_8">
     <!-- Time (s) -->
     <g transform="translate(211.070473 244.105301) scale(0.09 -0.09)">
      <defs>
       <path id="ArialMT-37" d="M 1659 0 
L 1659 4041 
L 150 4041 
L 150 4581 
L 3781 4581 
L 3781 4041 
L 2266 4041 
L 2266 0 
L 1659 0 
z
" transform="scale(0.015625)"/>
       <path id="ArialMT-4c" d="M 425 3934 
L 425 4581 
L 988 4581 
L 988 3934 
L 425 3934 
z
M 425 0 
L 425 3319 
L 988 3319 
L 988 0 
L 425 0 
z
" transform="scale(0.015625)"/>
       <path id="ArialMT-50" d="M 422 0 
L 422 3319 
L 925 3319 
L 925 2853 
Q 1081 3097 1340 3245 
Q 1600 3394 1931 3394 
Q 2300 3394 2536 3241 
Q 2772 3088 2869 2813 
Q 3263 3394 3894 3394 
Q 4388 3394 4653 3120 
Q 4919 2847 4919 2278 
L 4919 0 
L 4359 0 
L 4359 2091 
Q 4359 2428 4304 2576 
Q 4250 2725 4106 2815 
Q 3963 2906 3769 2906 
Q 3419 2906 3187 2673 
Q 2956 2441 2956 1928 
L 2956 0 
L 2394 0 
L 2394 2156 
Q 2394 2531 2256 2718 
Q 2119 2906 1806 2906 
Q 1569 2906 1367 2781 
Q 1166 2656 1075 2415 
Q 984 2175 984 1722 
L 984 0 
L 422 0 
z
" transform="scale(0.015625)"/>
       <path id="ArialMT-48" d="M 2694 1069 
L 3275 997 
Q 3138 488 2766 206 
Q 2394 -75 1816 -75 
Q 1088 -75 661 373 
Q 234 822 234 1631 
Q 234 2469 665 2931 
Q 1097 3394 1784 3394 
Q 2450 3394 2872 2941 
Q 3294 2488 3294 1666 
Q 3294 1616 3291 1516 
L 816 1516 
Q 847 969 1125 678 
Q 1403 388 1819 388 
Q 2128 388 2347 550 
Q 2566 713 2694 1069 
z
M 847 1978 
L 2700 1978 
Q 2663 2397 2488 2606 
Q 2219 2931 1791 2931 
Q 1403 2931 1139 2672 
Q 875 2413 847 1978 
z
" transform="scale(0.015625)"/>
       <path id="ArialMT-3" transform="scale(0.015625)"/>
       <path id="ArialMT-b" d="M 1497 -1347 
Q 1031 -759 709 28 
Q 388 816 388 1659 
Q 388 2403 628 3084 
Q 909 3875 1497 4659 
L 1900 4659 
Q 1522 4009 1400 3731 
Q 1209 3300 1100 2831 
Q 966 2247 966 1656 
Q 966 153 1900 -1347 
L 1497 -1347 
z
" transform="scale(0.015625)"/>
       <path id="ArialMT-56" d="M 197 991 
L 753 1078 
Q 800 744 1014 566 
Q 1228 388 1613 388 
Q 2000 388 2187 545 
Q 2375 703 2375 916 
Q 2375 1106 2209 1216 
Q 2094 1291 1634 1406 
Q 1016 1563 777 1677 
Q 538 1791 414 1992 
Q 291 2194 291 2438 
Q 291 2659 392 2848 
Q 494 3038 669 3163 
Q 800 3259 1026 3326 
Q 1253 3394 1513 3394 
Q 1903 3394 2198 3281 
Q 2494 3169 2634 2976 
Q 2775 2784 2828 2463 
L 2278 2388 
Q 2241 2644 2061 2787 
Q 1881 2931 1553 2931 
Q 1166 2931 1000 2803 
Q 834 2675 834 2503 
Q 834 2394 903 2306 
Q 972 2216 1119 2156 
Q 1203 2125 1616 2013 
Q 2213 1853 2448 1751 
Q 2684 1650 2818 1456 
Q 2953 1263 2953 975 
Q 2953 694 2789 445 
Q 2625 197 2315 61 
Q 2006 -75 1616 -75 
Q 969 -75 630 194 
Q 291 463 197 991 
z
" transform="scale(0.015625)"/>
       <path id="ArialMT-c" d="M 791 -1347 
L 388 -1347 
Q 1322 153 1322 1656 
Q 1322 2244 1188 2822 
Q 1081 3291 891 3722 
Q 769 4003 388 4659 
L 791 4659 
Q 1378 3875 1659 3084 
Q 1900 2403 1900 1659 
Q 1900 816 1576 28 
Q 1253 -759 791 -1347 
z
" transform="scale(0.015625)"/>
      </defs>
      <use xlink:href="#ArialMT-37"/>
      <use xlink:href="#ArialMT-4c" transform="translate(57.375 0)"/>
      <use xlink:href="#ArialMT-50" transform="translate(79.59375 0)"/>
      <use xlink:href="#ArialMT-48" transform="translate(162.890625 0)"/>
      <use xlink:href="#ArialMT-3" transform="translate(218.5 0)"/>
      <use xlink:href="#ArialMT-b" transform="translate(246.28125 0)"/>
      <use xlink:href="#ArialMT-56" transform="translate(279.578125 0)"/>
      <use xlink:href="#ArialMT-c" transform="translate(329.578125 0)"/>
     </g>
    </g>
   </g>
   <g id="matplotlib.axis_2">
    <g id="ytick_1">
     <g id="line2d_15">
      <path d="M 39.156465 202.325204 
L 415.643231 202.325204 
" clip-path="url(#p2a818a3f61)" style="fill: none; stroke: #b0b0b0; stroke-opacity: 0.25; stroke-width: 0.8; stroke-linecap: square"/>
     </g>
     <g id="line2d_16">
      <defs>
       <path id="mc0f7d7734d" d="M 0 0 
L -3.5 0 
" style="stroke: #000000; stroke-width: 0.8"/>
      </defs>
      <g>
       <use xlink:href="#mc0f7d7734d" x="39.156465" y="202.325204" style="stroke: #000000; stroke-width: 0.8"/>
      </g>
     </g>
     <g id="text_9">
      <!-- 0.8 -->
      <g transform="translate(19.646465 205.601327) scale(0.09 -0.09)">
       <defs>
        <path id="ArialMT-11" d="M 581 0 
L 581 641 
L 1222 641 
L 1222 0 
L 581 0 
z
" transform="scale(0.015625)"/>
        <path id="ArialMT-1b" d="M 1131 2484 
Q 781 2613 612 2850 
Q 444 3088 444 3419 
Q 444 3919 803 4259 
Q 1163 4600 1759 4600 
Q 2359 4600 2725 4251 
Q 3091 3903 3091 3403 
Q 3091 3084 2923 2848 
Q 2756 2613 2416 2484 
Q 2838 2347 3058 2040 
Q 3278 1734 3278 1309 
Q 3278 722 2862 322 
Q 2447 -78 1769 -78 
Q 1091 -78 675 323 
Q 259 725 259 1325 
Q 259 1772 486 2073 
Q 713 2375 1131 2484 
z
M 1019 3438 
Q 1019 3113 1228 2906 
Q 1438 2700 1772 2700 
Q 2097 2700 2305 2904 
Q 2513 3109 2513 3406 
Q 2513 3716 2298 3927 
Q 2084 4138 1766 4138 
Q 1444 4138 1231 3931 
Q 1019 3725 1019 3438 
z
M 838 1322 
Q 838 1081 952 856 
Q 1066 631 1291 507 
Q 1516 384 1775 384 
Q 2178 384 2440 643 
Q 2703 903 2703 1303 
Q 2703 1709 2433 1975 
Q 2163 2241 1756 2241 
Q 1359 2241 1098 1978 
Q 838 1716 838 1322 
z
" transform="scale(0.015625)"/>
       </defs>
       <use xlink:href="#ArialMT-13"/>
       <use xlink:href="#ArialMT-11" transform="translate(55.609375 0)"/>
       <use xlink:href="#ArialMT-1b" transform="translate(83.390625 0)"/>
      </g>
     </g>
    </g>
    <g id="ytick_2">
     <g id="line2d_17">
      <path d="M 39.156465 176.746461 
L 415.643231 176.746461 
" clip-path="url(#p2a818a3f61)" style="fill: none; stroke: #b0b0b0; stroke-opacity: 0.25; stroke-width: 0.8; stroke-linecap: square"/>
     </g>
     <g id="line2d_18">
      <g>
       <use xlink:href="#mc0f7d7734d" x="39.156465" y="176.746461" style="stroke: #000000; stroke-width: 0.8"/>
      </g>
     </g>
     <g id="text_10">
      <!-- 0.9 -->
      <g transform="translate(19.646465 180.022584) scale(0.09 -0.09)">
       <defs>
        <path id="ArialMT-1c" d="M 350 1059 
L 891 1109 
Q 959 728 1153 556 
Q 1347 384 1650 384 
Q 1909 384 2104 503 
Q 2300 622 2425 820 
Q 2550 1019 2634 1356 
Q 2719 1694 2719 2044 
Q 2719 2081 2716 2156 
Q 2547 1888 2255 1720 
Q 1963 1553 1622 1553 
Q 1053 1553 659 1965 
Q 266 2378 266 3053 
Q 266 3750 677 4175 
Q 1088 4600 1706 4600 
Q 2153 4600 2523 4359 
Q 2894 4119 3086 3673 
Q 3278 3228 3278 2384 
Q 3278 1506 3087 986 
Q 2897 466 2520 194 
Q 2144 -78 1638 -78 
Q 1100 -78 759 220 
Q 419 519 350 1059 
z
M 2653 3081 
Q 2653 3566 2395 3850 
Q 2138 4134 1775 4134 
Q 1400 4134 1122 3828 
Q 844 3522 844 3034 
Q 844 2597 1108 2323 
Q 1372 2050 1759 2050 
Q 2150 2050 2401 2323 
Q 2653 2597 2653 3081 
z
" transform="scale(0.015625)"/>
       </defs>
       <use xlink:href="#ArialMT-13"/>
       <use xlink:href="#ArialMT-11" transform="translate(55.609375 0)"/>
       <use xlink:href="#ArialMT-1c" transform="translate(83.390625 0)"/>
      </g>
     </g>
    </g>
    <g id="ytick_3">
     <g id="line2d_19">
      <path d="M 39.156465 151.167719 
L 415.643231 151.167719 
" clip-path="url(#p2a818a3f61)" style="fill: none; stroke: #b0b0b0; stroke-opacity: 0.25; stroke-width: 0.8; stroke-linecap: square"/>
     </g>
     <g id="line2d_20">
      <g>
       <use xlink:href="#mc0f7d7734d" x="39.156465" y="151.167719" style="stroke: #000000; stroke-width: 0.8"/>
      </g>
     </g>
     <g id="text_11">
      <!-- 1.0 -->
      <g transform="translate(19.646465 154.443842) scale(0.09 -0.09)">
       <use xlink:href="#ArialMT-14"/>
       <use xlink:href="#ArialMT-11" transform="translate(55.609375 0)"/>
       <use xlink:href="#ArialMT-13" transform="translate(83.390625 0)"/>
      </g>
     </g>
    </g>
    <g id="ytick_4">
     <g id="line2d_21">
      <path d="M 39.156465 125.588976 
L 415.643231 125.588976 
" clip-path="url(#p2a818a3f61)" style="fill: none; stroke: #b0b0b0; stroke-opacity: 0.25; stroke-width: 0.8; stroke-linecap: square"/>
     </g>
     <g id="line2d_22">
      <g>
       <use xlink:href="#mc0f7d7734d" x="39.156465" y="125.588976" style="stroke: #000000; stroke-width: 0.8"/>
      </g>
     </g>
     <g id="text_12">
      <!-- 1.1 -->
      <g transform="translate(19.646465 128.8651) scale(0.09 -0.09)">
       <use xlink:href="#ArialMT-14"/>
       <use xlink:href="#ArialMT-11" transform="translate(55.609375 0)"/>
       <use xlink:href="#ArialMT-14" transform="translate(83.390625 0)"/>
      </g>
     </g>
    </g>
    <g id="ytick_5">
     <g id="line2d_23">
      <path d="M 39.156465 100.010234 
L 415.643231 100.010234 
" clip-path="url(#p2a818a3f61)" style="fill: none; stroke: #b0b0b0; stroke-opacity: 0.25; stroke-width: 0.8; stroke-linecap: square"/>
     </g>
     <g id="line2d_24">
      <g>
       <use xlink:href="#mc0f7d7734d" x="39.156465" y="100.010234" style="stroke: #000000; stroke-width: 0.8"/>
      </g>
     </g>
     <g id="text_13">
      <!-- 1.2 -->
      <g transform="translate(19.646465 103.286357) scale(0.09 -0.09)">
       <use xlink:href="#ArialMT-14"/>
       <use xlink:href="#ArialMT-11" transform="translate(55.609375 0)"/>
       <use xlink:href="#ArialMT-15" transform="translate(83.390625 0)"/>
      </g>
     </g>
    </g>
    <g id="ytick_6">
     <g id="line2d_25">
      <path d="M 39.156465 74.431492 
L 415.643231 74.431492 
" clip-path="url(#p2a818a3f61)" style="fill: none; stroke: #b0b0b0; stroke-opacity: 0.25; stroke-width: 0.8; stroke-linecap: square"/>
     </g>
     <g id="line2d_26">
      <g>
       <use xlink:href="#mc0f7d7734d" x="39.156465" y="74.431492" style="stroke: #000000; stroke-width: 0.8"/>
      </g>
     </g>
     <g id="text_14">
      <!-- 1.3 -->
      <g transform="translate(19.646465 77.707615) scale(0.09 -0.09)">
       <use xlink:href="#ArialMT-14"/>
       <use xlink:href="#ArialMT-11" transform="translate(55.609375 0)"/>
       <use xlink:href="#ArialMT-16" transform="translate(83.390625 0)"/>
      </g>
     </g>
    </g>
    <g id="ytick_7">
     <g id="line2d_27">
      <path d="M 39.156465 48.852749 
L 415.643231 48.852749 
" clip-path="url(#p2a818a3f61)" style="fill: none; stroke: #b0b0b0; stroke-opacity: 0.25; stroke-width: 0.8; stroke-linecap: square"/>
     </g>
     <g id="line2d_28">
      <g>
       <use xlink:href="#mc0f7d7734d" x="39.156465" y="48.852749" style="stroke: #000000; stroke-width: 0.8"/>
      </g>
     </g>
     <g id="text_15">
      <!-- 1.4 -->
      <g transform="translate(19.646465 52.128872) scale(0.09 -0.09)">
       <use xlink:href="#ArialMT-14"/>
       <use xlink:href="#ArialMT-11" transform="translate(55.609375 0)"/>
       <use xlink:href="#ArialMT-17" transform="translate(83.390625 0)"/>
      </g>
     </g>
    </g>
    <g id="ytick_8">
     <g id="line2d_29">
      <path d="M 39.156465 23.274007 
L 415.643231 23.274007 
" clip-path="url(#p2a818a3f61)" style="fill: none; stroke: #b0b0b0; stroke-opacity: 0.25; stroke-width: 0.8; stroke-linecap: square"/>
     </g>
     <g id="line2d_30">
      <g>
       <use xlink:href="#mc0f7d7734d" x="39.156465" y="23.274007" style="stroke: #000000; stroke-width: 0.8"/>
      </g>
     </g>
     <g id="text_16">
      <!-- 1.5 -->
      <g transform="translate(19.646465 26.55013) scale(0.09 -0.09)">
       <use xlink:href="#ArialMT-14"/>
       <use xlink:href="#ArialMT-11" transform="translate(55.609375 0)"/>
       <use xlink:href="#ArialMT-18" transform="translate(83.390625 0)"/>
      </g>
     </g>
    </g>
    <g id="text_17">
     <!-- Fluorescence (a.u.) -->
     <g transform="translate(13.752246 158.348012) rotate(-90) scale(0.09 -0.09)">
      <defs>
       <path id="ArialMT-29" d="M 525 0 
L 525 4581 
L 3616 4581 
L 3616 4041 
L 1131 4041 
L 1131 2622 
L 3281 2622 
L 3281 2081 
L 1131 2081 
L 1131 0 
L 525 0 
z
" transform="scale(0.015625)"/>
       <path id="ArialMT-4f" d="M 409 0 
L 409 4581 
L 972 4581 
L 972 0 
L 409 0 
z
" transform="scale(0.015625)"/>
       <path id="ArialMT-58" d="M 2597 0 
L 2597 488 
Q 2209 -75 1544 -75 
Q 1250 -75 995 37 
Q 741 150 617 320 
Q 494 491 444 738 
Q 409 903 409 1263 
L 409 3319 
L 972 3319 
L 972 1478 
Q 972 1038 1006 884 
Q 1059 663 1231 536 
Q 1403 409 1656 409 
Q 1909 409 2131 539 
Q 2353 669 2445 892 
Q 2538 1116 2538 1541 
L 2538 3319 
L 3100 3319 
L 3100 0 
L 2597 0 
z
" transform="scale(0.015625)"/>
       <path id="ArialMT-52" d="M 213 1659 
Q 213 2581 725 3025 
Q 1153 3394 1769 3394 
Q 2453 3394 2887 2945 
Q 3322 2497 3322 1706 
Q 3322 1066 3130 698 
Q 2938 331 2570 128 
Q 2203 -75 1769 -75 
Q 1072 -75 642 372 
Q 213 819 213 1659 
z
M 791 1659 
Q 791 1022 1069 705 
Q 1347 388 1769 388 
Q 2188 388 2466 706 
Q 2744 1025 2744 1678 
Q 2744 2294 2464 2611 
Q 2184 2928 1769 2928 
Q 1347 2928 1069 2612 
Q 791 2297 791 1659 
z
" transform="scale(0.015625)"/>
       <path id="ArialMT-55" d="M 416 0 
L 416 3319 
L 922 3319 
L 922 2816 
Q 1116 3169 1280 3281 
Q 1444 3394 1641 3394 
Q 1925 3394 2219 3213 
L 2025 2691 
Q 1819 2813 1613 2813 
Q 1428 2813 1281 2702 
Q 1134 2591 1072 2394 
Q 978 2094 978 1738 
L 978 0 
L 416 0 
z
" transform="scale(0.015625)"/>
       <path id="ArialMT-46" d="M 2588 1216 
L 3141 1144 
Q 3050 572 2676 248 
Q 2303 -75 1759 -75 
Q 1078 -75 664 370 
Q 250 816 250 1647 
Q 250 2184 428 2587 
Q 606 2991 970 3192 
Q 1334 3394 1763 3394 
Q 2303 3394 2647 3120 
Q 2991 2847 3088 2344 
L 2541 2259 
Q 2463 2594 2264 2762 
Q 2066 2931 1784 2931 
Q 1359 2931 1093 2626 
Q 828 2322 828 1663 
Q 828 994 1084 691 
Q 1341 388 1753 388 
Q 2084 388 2306 591 
Q 2528 794 2588 1216 
z
" transform="scale(0.015625)"/>
       <path id="ArialMT-51" d="M 422 0 
L 422 3319 
L 928 3319 
L 928 2847 
Q 1294 3394 1984 3394 
Q 2284 3394 2536 3286 
Q 2788 3178 2913 3003 
Q 3038 2828 3088 2588 
Q 3119 2431 3119 2041 
L 3119 0 
L 2556 0 
L 2556 2019 
Q 2556 2363 2490 2533 
Q 2425 2703 2258 2804 
Q 2091 2906 1866 2906 
Q 1506 2906 1245 2678 
Q 984 2450 984 1813 
L 984 0 
L 422 0 
z
" transform="scale(0.015625)"/>
       <path id="ArialMT-44" d="M 2588 409 
Q 2275 144 1986 34 
Q 1697 -75 1366 -75 
Q 819 -75 525 192 
Q 231 459 231 875 
Q 231 1119 342 1320 
Q 453 1522 633 1644 
Q 813 1766 1038 1828 
Q 1203 1872 1538 1913 
Q 2219 1994 2541 2106 
Q 2544 2222 2544 2253 
Q 2544 2597 2384 2738 
Q 2169 2928 1744 2928 
Q 1347 2928 1158 2789 
Q 969 2650 878 2297 
L 328 2372 
Q 403 2725 575 2942 
Q 747 3159 1072 3276 
Q 1397 3394 1825 3394 
Q 2250 3394 2515 3294 
Q 2781 3194 2906 3042 
Q 3031 2891 3081 2659 
Q 3109 2516 3109 2141 
L 3109 1391 
Q 3109 606 3145 398 
Q 3181 191 3288 0 
L 2700 0 
Q 2613 175 2588 409 
z
M 2541 1666 
Q 2234 1541 1622 1453 
Q 1275 1403 1131 1340 
Q 988 1278 909 1158 
Q 831 1038 831 891 
Q 831 666 1001 516 
Q 1172 366 1500 366 
Q 1825 366 2078 508 
Q 2331 650 2450 897 
Q 2541 1088 2541 1459 
L 2541 1666 
z
" transform="scale(0.015625)"/>
      </defs>
      <use xlink:href="#ArialMT-29"/>
      <use xlink:href="#ArialMT-4f" transform="translate(61.078125 0)"/>
      <use xlink:href="#ArialMT-58" transform="translate(83.296875 0)"/>
      <use xlink:href="#ArialMT-52" transform="translate(138.90625 0)"/>
      <use xlink:href="#ArialMT-55" transform="translate(194.515625 0)"/>
      <use xlink:href="#ArialMT-48" transform="translate(227.8125 0)"/>
      <use xlink:href="#ArialMT-56" transform="translate(283.421875 0)"/>
      <use xlink:href="#ArialMT-46" transform="translate(333.421875 0)"/>
      <use xlink:href="#ArialMT-48" transform="translate(383.421875 0)"/>
      <use xlink:href="#ArialMT-51" transform="translate(439.03125 0)"/>
      <use xlink:href="#ArialMT-46" transform="translate(494.640625 0)"/>
      <use xlink:href="#ArialMT-48" transform="translate(544.640625 0)"/>
      <use xlink:href="#ArialMT-3" transform="translate(600.25 0)"/>
      <use xlink:href="#ArialMT-b" transform="translate(628.03125 0)"/>
      <use xlink:href="#ArialMT-44" transform="translate(661.328125 0)"/>
      <use xlink:href="#ArialMT-11" transform="translate(716.9375 0)"/>
      <use xlink:href="#ArialMT-58" transform="translate(744.71875 0)"/>
      <use xlink:href="#ArialMT-11" transform="translate(800.328125 0)"/>
      <use xlink:href="#ArialMT-c" transform="translate(828.109375 0)"/>
     </g>
    </g>
   </g>
   <g id="line2d_31">
    <path d="M 56.2695 134.804862 
L 59.121672 171.262713 
L 61.973845 127.721867 
L 64.826017 128.372209 
L 67.67819 110.042101 
L 70.530362 111.440017 
L 73.382534 91.829987 
L 76.234707 101.493631 
L 79.086879 100.324436 
L 81.939052 84.807086 
L 84.791224 80.849551 
L 87.643397 83.073351 
L 90.495569 77.729773 
L 93.347742 65.213856 
L 96.199914 62.01108 
L 99.052087 69.939393 
L 101.904259 66.560442 
L 104.756432 77.750678 
L 107.608604 45.404621 
L 110.460777 61.858153 
L 113.312949 47.828265 
L 116.165122 56.53267 
L 119.017294 43.831445 
L 121.869466 48.902973 
L 124.721639 61.670938 
L 127.573811 53.504663 
L 130.425984 77.84353 
L 133.278156 60.927036 
L 136.130329 88.527895 
L 138.982501 75.439468 
L 141.834674 72.308539 
L 144.686846 83.191427 
L 147.539019 91.782738 
L 150.391191 98.889341 
L 153.243364 97.736452 
L 156.095536 87.987052 
L 158.947709 91.826629 
L 161.799881 104.168168 
L 164.652054 114.557317 
L 167.504226 98.465308 
L 170.356398 118.055943 
L 173.208571 109.858575 
L 176.060743 111.153838 
L 178.912916 96.8266 
L 181.765088 99.719929 
L 184.617261 95.517449 
L 187.469433 94.536451 
L 190.321606 99.916743 
L 193.173778 85.532456 
L 196.025951 73.833035 
L 198.878123 82.706614 
L 201.730296 72.432079 
L 204.582468 74.87026 
L 207.434641 60.170954 
L 210.286813 59.129059 
L 213.138986 53.137624 
L 215.991158 53.979461 
L 218.84333 38.843763 
L 221.695503 53.551763 
L 224.547675 50.515105 
L 227.399848 50.474082 
L 230.25202 37.826176 
L 233.104193 47.464743 
L 235.956365 46.730553 
L 238.808538 33.967741 
L 241.66071 30.019244 
L 244.512883 35.605198 
L 247.365055 65.424179 
L 250.217228 50.87352 
L 253.0694 53.094381 
L 255.921573 55.594111 
L 258.773745 49.822875 
L 261.625918 31.316315 
L 264.47809 51.725305 
L 267.330262 56.860662 
L 270.182435 45.196999 
L 273.034607 51.848241 
L 275.88678 52.212357 
L 278.738952 60.05991 
L 281.591125 54.333471 
L 284.443297 50.628816 
L 287.29547 71.633696 
L 290.147642 68.768303 
L 292.999815 44.329522 
L 295.851987 46.071609 
L 298.70416 57.669493 
L 301.556332 61.764037 
L 304.408505 53.820254 
L 307.260677 62.45659 
L 310.11285 54.560375 
L 312.965022 36.663901 
L 315.817194 50.425901 
L 318.669367 41.608146 
L 321.521539 54.803331 
L 324.373712 50.620551 
L 327.225884 43.026636 
L 330.078057 69.313092 
L 332.930229 62.817539 
L 335.782402 63.912908 
L 338.634574 63.240839 
L 341.486747 55.569984 
L 344.338919 67.508455 
L 347.191092 91.662075 
L 350.043264 85.714616 
L 352.895437 96.728747 
L 355.747609 102.774871 
L 358.599782 82.587014 
L 361.451954 116.712303 
L 364.304126 111.837469 
L 367.156299 127.349706 
L 370.008471 120.422961 
L 372.860644 132.29392 
L 375.712816 141.746753 
L 378.564989 151.045064 
L 381.417161 147.651958 
L 384.269334 173.601163 
L 387.121506 179.088746 
L 389.973679 189.746258 
L 392.825851 174.770425 
L 395.678024 196.065949 
L 398.530196 209.150217 
" clip-path="url(#p2a818a3f61)" style="fill: none; stroke: #2563eb; stroke-width: 1.8; stroke-linecap: square"/>
   </g>
   <g id="line2d_32">
    <path d="M 193.173778 218.106766 
L 193.173778 21.062695 
" clip-path="url(#p2a818a3f61)" style="fill: none; stroke-dasharray: 1.2,1.98; stroke-dashoffset: 0; stroke: #111827; stroke-opacity: 0.85; stroke-width: 1.2"/>
   </g>
   <g id="line2d_33">
    <path d="M 261.625918 218.106766 
L 261.625918 21.062695 
" clip-path="url(#p2a818a3f61)" style="fill: none; stroke-dasharray: 1.2,1.98; stroke-dashoffset: 0; stroke: #374151; stroke-opacity: 0.85; stroke-width: 1.2"/>
   </g>
   <g id="patch_3">
    <path d="M 39.156465 218.106766 
L 39.156465 21.062695 
" style="fill: none; stroke: #000000; stroke-width: 0.8; stroke-linejoin: miter; stroke-linecap: square"/>
   </g>
   <g id="patch_4">
    <path d="M 415.643231 218.106766 
L 415.643231 21.062695 
" style="fill: none; stroke: #000000; stroke-width: 0.8; stroke-linejoin: miter; stroke-linecap: square"/>
   </g>
   <g id="patch_5">
    <path d="M 39.156465 218.106766 
L 415.643231 218.106766 
" style="fill: none; stroke: #000000; stroke-width: 0.8; stroke-linejoin: miter; stroke-linecap: square"/>
   </g>
   <g id="patch_6">
    <path d="M 39.156465 21.062695 
L 415.643231 21.062695 
" style="fill: none; stroke: #000000; stroke-width: 0.8; stroke-linejoin: miter; stroke-linecap: square"/>
   </g>
   <g id="text_18">
    <!-- Signal and event rate after stimulation -->
    <g transform="translate(136.753254 15.062695) scale(0.108 -0.108)">
     <defs>
      <path id="ArialMT-36" d="M 288 1472 
L 859 1522 
Q 900 1178 1048 958 
Q 1197 738 1509 602 
Q 1822 466 2213 466 
Q 2559 466 2825 569 
Q 3091 672 3220 851 
Q 3350 1031 3350 1244 
Q 3350 1459 3225 1620 
Q 3100 1781 2813 1891 
Q 2628 1963 1997 2114 
Q 1366 2266 1113 2400 
Q 784 2572 623 2826 
Q 463 3081 463 3397 
Q 463 3744 659 4045 
Q 856 4347 1234 4503 
Q 1613 4659 2075 4659 
Q 2584 4659 2973 4495 
Q 3363 4331 3572 4012 
Q 3781 3694 3797 3291 
L 3216 3247 
Q 3169 3681 2898 3903 
Q 2628 4125 2100 4125 
Q 1550 4125 1298 3923 
Q 1047 3722 1047 3438 
Q 1047 3191 1225 3031 
Q 1400 2872 2139 2705 
Q 2878 2538 3153 2413 
Q 3553 2228 3743 1945 
Q 3934 1663 3934 1294 
Q 3934 928 3725 604 
Q 3516 281 3123 101 
Q 2731 -78 2241 -78 
Q 1619 -78 1198 103 
Q 778 284 539 648 
Q 300 1013 288 1472 
z
" transform="scale(0.015625)"/>
      <path id="ArialMT-4a" d="M 319 -275 
L 866 -356 
Q 900 -609 1056 -725 
Q 1266 -881 1628 -881 
Q 2019 -881 2231 -725 
Q 2444 -569 2519 -288 
Q 2563 -116 2559 434 
Q 2191 0 1641 0 
Q 956 0 581 494 
Q 206 988 206 1678 
Q 206 2153 378 2554 
Q 550 2956 876 3175 
Q 1203 3394 1644 3394 
Q 2231 3394 2613 2919 
L 2613 3319 
L 3131 3319 
L 3131 450 
Q 3131 -325 2973 -648 
Q 2816 -972 2473 -1159 
Q 2131 -1347 1631 -1347 
Q 1038 -1347 672 -1080 
Q 306 -813 319 -275 
z
M 784 1719 
Q 784 1066 1043 766 
Q 1303 466 1694 466 
Q 2081 466 2343 764 
Q 2606 1063 2606 1700 
Q 2606 2309 2336 2618 
Q 2066 2928 1684 2928 
Q 1309 2928 1046 2623 
Q 784 2319 784 1719 
z
" transform="scale(0.015625)"/>
      <path id="ArialMT-47" d="M 2575 0 
L 2575 419 
Q 2259 -75 1647 -75 
Q 1250 -75 917 144 
Q 584 363 401 755 
Q 219 1147 219 1656 
Q 219 2153 384 2558 
Q 550 2963 881 3178 
Q 1213 3394 1622 3394 
Q 1922 3394 2156 3267 
Q 2391 3141 2538 2938 
L 2538 4581 
L 3097 4581 
L 3097 0 
L 2575 0 
z
M 797 1656 
Q 797 1019 1065 703 
Q 1334 388 1700 388 
Q 2069 388 2326 689 
Q 2584 991 2584 1609 
Q 2584 2291 2321 2609 
Q 2059 2928 1675 2928 
Q 1300 2928 1048 2622 
Q 797 2316 797 1656 
z
" transform="scale(0.015625)"/>
      <path id="ArialMT-59" d="M 1344 0 
L 81 3319 
L 675 3319 
L 1388 1331 
Q 1503 1009 1600 663 
Q 1675 925 1809 1294 
L 2547 3319 
L 3125 3319 
L 1869 0 
L 1344 0 
z
" transform="scale(0.015625)"/>
      <path id="ArialMT-57" d="M 1650 503 
L 1731 6 
Q 1494 -44 1306 -44 
Q 1000 -44 831 53 
Q 663 150 594 308 
Q 525 466 525 972 
L 525 2881 
L 113 2881 
L 113 3319 
L 525 3319 
L 525 4141 
L 1084 4478 
L 1084 3319 
L 1650 3319 
L 1650 2881 
L 1084 2881 
L 1084 941 
Q 1084 700 1114 631 
Q 1144 563 1211 522 
Q 1278 481 1403 481 
Q 1497 481 1650 503 
z
" transform="scale(0.015625)"/>
      <path id="ArialMT-49" d="M 556 0 
L 556 2881 
L 59 2881 
L 59 3319 
L 556 3319 
L 556 3672 
Q 556 4006 616 4169 
Q 697 4388 901 4523 
Q 1106 4659 1475 4659 
Q 1713 4659 2000 4603 
L 1916 4113 
Q 1741 4144 1584 4144 
Q 1328 4144 1222 4034 
Q 1116 3925 1116 3625 
L 1116 3319 
L 1763 3319 
L 1763 2881 
L 1116 2881 
L 1116 0 
L 556 0 
z
" transform="scale(0.015625)"/>
     </defs>
     <use xlink:href="#ArialMT-36"/>
     <use xlink:href="#ArialMT-4c" transform="translate(66.703125 0)"/>
     <use xlink:href="#ArialMT-4a" transform="translate(88.921875 0)"/>
     <use xlink:href="#ArialMT-51" transform="translate(144.53125 0)"/>
     <use xlink:href="#ArialMT-44" transform="translate(200.140625 0)"/>
     <use xlink:href="#ArialMT-4f" transform="translate(255.75 0)"/>
     <use xlink:href="#ArialMT-3" transform="translate(277.96875 0)"/>
     <use xlink:href="#ArialMT-44" transform="translate(305.75 0)"/>
     <use xlink:href="#ArialMT-51" transform="translate(361.359375 0)"/>
     <use xlink:href="#ArialMT-47" transform="translate(416.96875 0)"/>
     <use xlink:href="#ArialMT-3" transform="translate(472.578125 0)"/>
     <use xlink:href="#ArialMT-48" transform="translate(500.359375 0)"/>
     <use xlink:href="#ArialMT-59" transform="translate(555.96875 0)"/>
     <use xlink:href="#ArialMT-48" transform="translate(605.96875 0)"/>
     <use xlink:href="#ArialMT-51" transform="translate(661.578125 0)"/>
     <use xlink:href="#ArialMT-57" transform="translate(717.1875 0)"/>
     <use xlink:href="#ArialMT-3" transform="translate(744.96875 0)"/>
     <use xlink:href="#ArialMT-55" transform="translate(772.75 0)"/>
     <use xlink:href="#ArialMT-44" transform="translate(806.046875 0)"/>
     <use xlink:href="#ArialMT-57" transform="translate(861.65625 0)"/>
     <use xlink:href="#ArialMT-48" transform="translate(889.4375 0)"/>
     <use xlink:href="#ArialMT-3" transform="translate(945.046875 0)"/>
     <use xlink:href="#ArialMT-44" transform="translate(972.828125 0)"/>
     <use xlink:href="#ArialMT-49" transform="translate(1028.4375 0)"/>
     <use xlink:href="#ArialMT-57" transform="translate(1056.21875 0)"/>
     <use xlink:href="#ArialMT-48" transform="translate(1084 0)"/>
     <use xlink:href="#ArialMT-55" transform="translate(1139.609375 0)"/>
     <use xlink:href="#ArialMT-3" transform="translate(1172.90625 0)"/>
     <use xlink:href="#ArialMT-56" transform="translate(1200.6875 0)"/>
     <use xlink:href="#ArialMT-57" transform="translate(1250.6875 0)"/>
     <use xlink:href="#ArialMT-4c" transform="translate(1278.46875 0)"/>
     <use xlink:href="#ArialMT-50" transform="translate(1300.6875 0)"/>
     <use xlink:href="#ArialMT-58" transform="translate(1383.984375 0)"/>
     <use xlink:href="#ArialMT-4f" transform="translate(1439.59375 0)"/>
     <use xlink:href="#ArialMT-44" transform="translate(1461.8125 0)"/>
     <use xlink:href="#ArialMT-57" transform="translate(1517.421875 0)"/>
     <use xlink:href="#ArialMT-4c" transform="translate(1545.203125 0)"/>
     <use xlink:href="#ArialMT-52" transform="translate(1567.421875 0)"/>
     <use xlink:href="#ArialMT-51" transform="translate(1623.03125 0)"/>
    </g>
   </g>
   <g id="legend_1">
    <g id="patch_7">
     <path d="M 45.456465 213.606766 
L 128.278965 213.606766 
Q 130.078965 213.606766 130.078965 211.806766 
L 130.078965 160.92161 
Q 130.078965 159.12161 128.278965 159.12161 
L 45.456465 159.12161 
Q 43.656465 159.12161 43.656465 160.92161 
L 43.656465 211.806766 
Q 43.656465 213.606766 45.456465 213.606766 
z
" style="fill: #ffffff; opacity: 0.8; stroke: #cccccc; stroke-linejoin: miter"/>
    </g>
    <g id="line2d_34">
     <path d="M 47.256465 166.123856 
L 56.256465 166.123856 
L 65.256465 166.123856 
" style="fill: none; stroke: #2563eb; stroke-width: 1.8; stroke-linecap: square"/>
    </g>
    <g id="text_19">
     <!-- Fluorescence -->
     <g transform="translate(72.456465 169.273856) scale(0.09 -0.09)">
      <use xlink:href="#ArialMT-29"/>
      <use xlink:href="#ArialMT-4f" transform="translate(61.078125 0)"/>
      <use xlink:href="#ArialMT-58" transform="translate(83.296875 0)"/>
      <use xlink:href="#ArialMT-52" transform="translate(138.90625 0)"/>
      <use xlink:href="#ArialMT-55" transform="translate(194.515625 0)"/>
      <use xlink:href="#ArialMT-48" transform="translate(227.8125 0)"/>
      <use xlink:href="#ArialMT-56" transform="translate(283.421875 0)"/>
      <use xlink:href="#ArialMT-46" transform="translate(333.421875 0)"/>
      <use xlink:href="#ArialMT-48" transform="translate(383.421875 0)"/>
      <use xlink:href="#ArialMT-51" transform="translate(439.03125 0)"/>
      <use xlink:href="#ArialMT-46" transform="translate(494.640625 0)"/>
      <use xlink:href="#ArialMT-48" transform="translate(544.640625 0)"/>
     </g>
    </g>
    <g id="line2d_35">
     <path d="M 47.256465 179.070145 
L 56.256465 179.070145 
L 65.256465 179.070145 
" style="fill: none; stroke-dasharray: 1.2,1.98; stroke-dashoffset: 0; stroke: #111827; stroke-opacity: 0.85; stroke-width: 1.2"/>
    </g>
    <g id="text_20">
     <!-- Stimulus on -->
     <g transform="translate(72.456465 182.220145) scale(0.09 -0.09)">
      <use xlink:href="#ArialMT-36"/>
      <use xlink:href="#ArialMT-57" transform="translate(66.703125 0)"/>
      <use xlink:href="#ArialMT-4c" transform="translate(94.484375 0)"/>
      <use xlink:href="#ArialMT-50" transform="translate(116.703125 0)"/>
      <use xlink:href="#ArialMT-58" transform="translate(200 0)"/>
      <use xlink:href="#ArialMT-4f" transform="translate(255.609375 0)"/>
      <use xlink:href="#ArialMT-58" transform="translate(277.828125 0)"/>
      <use xlink:href="#ArialMT-56" transform="translate(333.4375 0)"/>
      <use xlink:href="#ArialMT-3" transform="translate(383.4375 0)"/>
      <use xlink:href="#ArialMT-52" transform="translate(411.21875 0)"/>
      <use xlink:href="#ArialMT-51" transform="translate(466.828125 0)"/>
     </g>
    </g>
    <g id="line2d_36">
     <path d="M 47.256465 192.016434 
L 56.256465 192.016434 
L 65.256465 192.016434 
" style="fill: none; stroke-dasharray: 1.2,1.98; stroke-dashoffset: 0; stroke: #374151; stroke-opacity: 0.85; stroke-width: 1.2"/>
    </g>
    <g id="text_21">
     <!-- Stimulus off -->
     <g transform="translate(72.456465 195.166434) scale(0.09 -0.09)">
      <use xlink:href="#ArialMT-36"/>
      <use xlink:href="#ArialMT-57" transform="translate(66.703125 0)"/>
      <use xlink:href="#ArialMT-4c" transform="translate(94.484375 0)"/>
      <use xlink:href="#ArialMT-50" transform="translate(116.703125 0)"/>
      <use xlink:href="#ArialMT-58" transform="translate(200 0)"/>
      <use xlink:href="#ArialMT-4f" transform="translate(255.609375 0)"/>
      <use xlink:href="#ArialMT-58" transform="translate(277.828125 0)"/>
      <use xlink:href="#ArialMT-56" transform="translate(333.4375 0)"/>
      <use xlink:href="#ArialMT-3" transform="translate(383.4375 0)"/>
      <use xlink:href="#ArialMT-52" transform="translate(411.21875 0)"/>
      <use xlink:href="#ArialMT-49" transform="translate(466.828125 0)"/>
      <use xlink:href="#ArialMT-49" transform="translate(492.796875 0)"/>
     </g>
    </g>
    <g id="line2d_37">
     <path d="M 47.256465 204.962723 
L 56.256465 204.962723 
L 65.256465 204.962723 
" style="fill: none; stroke-dasharray: 5.92,2.56; stroke-dashoffset: 0; stroke: #dc2626; stroke-width: 1.6"/>
    </g>
    <g id="text_22">
     <!-- Event rate -->
     <g transform="translate(72.456465 208.112723) scale(0.09 -0.09)">
      <defs>
       <path id="ArialMT-28" d="M 506 0 
L 506 4581 
L 3819 4581 
L 3819 4041 
L 1113 4041 
L 1113 2638 
L 3647 2638 
L 3647 2100 
L 1113 2100 
L 1113 541 
L 3925 541 
L 3925 0 
L 506 0 
z
" transform="scale(0.015625)"/>
      </defs>
      <use xlink:href="#ArialMT-28"/>
      <use xlink:href="#ArialMT-59" transform="translate(66.703125 0)"/>
      <use xlink:href="#ArialMT-48" transform="translate(116.703125 0)"/>
      <use xlink:href="#ArialMT-51" transform="translate(172.3125 0)"/>
      <use xlink:href="#ArialMT-57" transform="translate(227.921875 0)"/>
      <use xlink:href="#ArialMT-3" transform="translate(255.703125 0)"/>
      <use xlink:href="#ArialMT-55" transform="translate(283.484375 0)"/>
      <use xlink:href="#ArialMT-44" transform="translate(316.78125 0)"/>
      <use xlink:href="#ArialMT-57" transform="translate(372.390625 0)"/>
      <use xlink:href="#ArialMT-48" transform="translate(400.171875 0)"/>
     </g>
    </g>
   </g>
  </g>
  <g id="axes_2">
   <g id="matplotlib.axis_3">
    <g id="ytick_9">
     <g id="line2d_38">
      <defs>
       <path id="m59892810ad" d="M 0 0 
L 3.5 0 
" style="stroke: #000000; stroke-width: 0.8"/>
      </defs>
      <g>
       <use xlink:href="#m59892810ad" x="415.643231" y="218.106766" style="stroke: #000000; stroke-width: 0.8"/>
      </g>
     </g>
     <g id="text_23">
      <!-- 0.0 -->
      <g transform="translate(422.643231 221.382889) scale(0.09 -0.09)">
       <use xlink:href="#ArialMT-13"/>
       <use xlink:href="#ArialMT-11" transform="translate(55.609375 0)"/>
       <use xlink:href="#ArialMT-13" transform="translate(83.390625 0)"/>
      </g>
     </g>
    </g>
    <g id="ytick_10">
     <g id="line2d_39">
      <g>
       <use xlink:href="#m59892810ad" x="415.643231" y="178.697952" style="stroke: #000000; stroke-width: 0.8"/>
      </g>
     </g>
     <g id="text_24">
      <!-- 0.2 -->
      <g transform="translate(422.643231 181.974075) scale(0.09 -0.09)">
       <use xlink:href="#ArialMT-13"/>
       <use xlink:href="#ArialMT-11" transform="translate(55.609375 0)"/>
       <use xlink:href="#ArialMT-15" transform="translate(83.390625 0)"/>
      </g>
     </g>
    </g>
    <g id="ytick_11">
     <g id="line2d_40">
      <g>
       <use xlink:href="#m59892810ad" x="415.643231" y="139.289138" style="stroke: #000000; stroke-width: 0.8"/>
      </g>
     </g>
     <g id="text_25">
      <!-- 0.4 -->
      <g transform="translate(422.643231 142.565261) scale(0.09 -0.09)">
       <use xlink:href="#ArialMT-13"/>
       <use xlink:href="#ArialMT-11" transform="translate(55.609375 0)"/>
       <use xlink:href="#ArialMT-17" transform="translate(83.390625 0)"/>
      </g>
     </g>
    </g>
    <g id="ytick_12">
     <g id="line2d_41">
      <g>
       <use xlink:href="#m59892810ad" x="415.643231" y="99.880324" style="stroke: #000000; stroke-width: 0.8"/>
      </g>
     </g>
     <g id="text_26">
      <!-- 0.6 -->
      <g transform="translate(422.643231 103.156447) scale(0.09 -0.09)">
       <use xlink:href="#ArialMT-13"/>
       <use xlink:href="#ArialMT-11" transform="translate(55.609375 0)"/>
       <use xlink:href="#ArialMT-19" transform="translate(83.390625 0)"/>
      </g>
     </g>
    </g>
    <g id="ytick_13">
     <g id="line2d_42">
      <g>
       <use xlink:href="#m59892810ad" x="415.643231" y="60.471509" style="stroke: #000000; stroke-width: 0.8"/>
      </g>
     </g>
     <g id="text_27">
      <!-- 0.8 -->
      <g transform="translate(422.643231 63.747633) scale(0.09 -0.09)">
       <use xlink:href="#ArialMT-13"/>
       <use xlink:href="#ArialMT-11" transform="translate(55.609375 0)"/>
       <use xlink:href="#ArialMT-1b" transform="translate(83.390625 0)"/>
      </g>
     </g>
    </g>
    <g id="ytick_14">
     <g id="line2d_43">
      <g>
       <use xlink:href="#m59892810ad" x="415.643231" y="21.062695" style="stroke: #000000; stroke-width: 0.8"/>
      </g>
     </g>
     <g id="text_28">
      <!-- 1.0 -->
      <g transform="translate(422.643231 24.338818) scale(0.09 -0.09)">
       <use xlink:href="#ArialMT-14"/>
       <use xlink:href="#ArialMT-11" transform="translate(55.609375 0)"/>
       <use xlink:href="#ArialMT-13" transform="translate(83.390625 0)"/>
      </g>
     </g>
    </g>
    <g id="text_29">
     <!-- Events / min -->
     <g transform="translate(445.705477 144.342465) rotate(-90) scale(0.09 -0.09)">
      <defs>
       <path id="ArialMT-12" d="M 0 -78 
L 1328 4659 
L 1778 4659 
L 453 -78 
L 0 -78 
z
" transform="scale(0.015625)"/>
      </defs>
      <use xlink:href="#ArialMT-28"/>
      <use xlink:href="#ArialMT-59" transform="translate(66.703125 0)"/>
      <use xlink:href="#ArialMT-48" transform="translate(116.703125 0)"/>
      <use xlink:href="#ArialMT-51" transform="translate(172.3125 0)"/>
      <use xlink:href="#ArialMT-57" transform="translate(227.921875 0)"/>
      <use xlink:href="#ArialMT-56" transform="translate(255.703125 0)"/>
      <use xlink:href="#ArialMT-3" transform="translate(305.703125 0)"/>
      <use xlink:href="#ArialMT-12" transform="translate(333.484375 0)"/>
      <use xlink:href="#ArialMT-3" transform="translate(361.265625 0)"/>
      <use xlink:href="#ArialMT-50" transform="translate(389.046875 0)"/>
      <use xlink:href="#ArialMT-4c" transform="translate(472.34375 0)"/>
      <use xlink:href="#ArialMT-51" transform="translate(494.5625 0)"/>
     </g>
    </g>
   </g>
   <g id="line2d_44">
    <path clip-path="url(#p2a818a3f61)" style="fill: none; stroke-dasharray: 5.92,2.56; stroke-dashoffset: 0; stroke: #dc2626; stroke-width: 1.6"/>
   </g>
   <g id="patch_8">
    <path d="M 39.156465 218.106766 
L 39.156465 21.062695 
" style="fill: none; stroke: #000000; stroke-width: 0.8; stroke-linejoin: miter; stroke-linecap: square"/>
   </g>
   <g id="patch_9">
    <path d="M 415.643231 218.106766 
L 415.643231 21.062695 
" style="fill: none; stroke: #000000; stroke-width: 0.8; stroke-linejoin: miter; stroke-linecap: square"/>
   </g>
   <g id="patch_10">
    <path d="M 39.156465 218.106766 
L 415.643231 218.106766 
" style="fill: none; stroke: #000000; stroke-width: 0.8; stroke-linejoin: miter; stroke-linecap: square"/>
   </g>
   <g id="patch_11">
    <path d="M 39.156465 21.062695 
L 415.643231 21.062695 
" style="fill: none; stroke: #000000; stroke-width: 0.8; stroke-linejoin: miter; stroke-linecap: square"/>
   </g>
  </g>
 </g>
 <defs>
  <clipPath id="p2a818a3f61">
   <rect x="39.156465" y="21.062695" width="376.486766" height="197.044071"/>
  </clipPath>
 </defs>
</svg>
